{"glyphs":{"0":{"ha":702,"x_min":64,"x_max":637,"o":"m 637 581 l 637 409 q 616 218 637 298 q 557 86 595 138 q 467 11 519 35 q 352 -14 415 -14 q 258 2 302 -14 q 178 50 214 18 q 117 132 142 82 q 78 251 92 182 q 64 409 64 319 l 64 581 q 86 771 64 692 q 145 902 107 851 q 236 977 183 953 q 351 1001 288 1001 q 445 986 401 1001 q 524 939 489 970 q 585 857 559 907 q 624 738 610 807 q 637 581 637 669 m 447 382 l 447 608 q 443 700 447 661 q 430 766 438 739 q 411 810 422 793 q 384 835 399 827 q 351 843 369 843 q 311 831 329 843 q 281 791 294 819 q 261 719 268 764 q 255 608 255 673 l 255 382 q 259 290 255 330 q 272 222 264 250 q 292 177 281 194 q 318 152 303 160 q 352 144 334 144 q 392 157 374 144 q 422 197 410 170 q 440 271 434 225 q 447 382 447 317 z "},"1":{"ha":702,"x_min":107,"x_max":486,"o":"m 486 989 l 486 0 l 296 0 l 296 756 l 107 684 l 107 842 l 465 989 l 486 989 z "},"2":{"ha":702,"x_min":49,"x_max":646,"o":"m 646 158 l 646 0 l 64 0 l 64 135 l 332 475 q 392 568 370 528 q 423 641 414 609 q 433 703 433 673 q 422 778 433 746 q 392 826 412 809 q 343 844 372 844 q 285 822 308 844 q 251 763 262 800 q 239 677 239 725 l 49 677 q 85 840 49 766 q 188 958 121 914 q 347 1002 254 1002 q 498 968 437 1002 q 592 871 560 934 q 623 721 623 808 q 610 626 623 672 q 574 533 597 579 q 515 440 550 488 q 437 342 480 393 l 309 158 l 646 158 z "},"3":{"ha":702,"x_min":46,"x_max":634,"o":"m 235 581 l 328 581 q 387 598 363 581 q 420 645 410 614 q 431 718 431 676 q 421 782 431 754 q 390 827 411 810 q 337 844 369 844 q 291 830 313 844 q 258 792 270 817 q 245 732 245 767 l 55 732 q 92 874 55 814 q 192 968 129 935 q 332 1002 255 1002 q 483 970 418 1002 q 585 875 548 938 q 621 720 621 812 q 604 629 621 673 q 552 550 586 585 q 469 494 517 515 q 359 474 420 474 l 235 474 l 235 581 m 235 427 l 235 531 l 359 531 q 480 513 429 531 q 566 461 532 495 q 617 381 600 427 q 634 277 634 334 q 611 154 634 208 q 547 62 588 100 q 450 6 505 25 q 331 -14 395 -14 q 226 3 277 -14 q 134 56 175 20 q 70 144 94 91 q 46 271 46 198 l 236 271 q 249 206 236 235 q 285 161 262 177 q 336 144 307 144 q 393 161 369 144 q 431 209 418 178 q 444 279 444 239 q 430 365 444 332 q 391 412 416 397 q 328 427 365 427 l 235 427 z "},"4":{"ha":702,"x_min":43,"x_max":654,"o":"m 654 372 l 654 214 l 52 214 l 43 338 l 378 987 l 529 987 l 375 699 l 229 372 l 654 372 m 570 987 l 570 0 l 380 0 l 380 987 l 570 987 z "},"5":{"ha":702,"x_min":66,"x_max":642,"o":"m 237 448 l 85 486 l 134 987 l 611 987 l 611 825 l 290 825 l 272 612 q 318 636 288 623 q 387 649 349 649 q 496 627 449 649 q 576 562 543 604 q 625 457 608 519 q 642 317 642 395 q 625 192 642 252 q 570 86 607 132 q 480 13 534 40 q 353 -14 426 -14 q 247 5 298 -14 q 155 62 196 24 q 90 153 115 100 q 66 275 66 206 l 254 275 q 270 205 257 235 q 303 160 282 176 q 352 144 324 144 q 399 158 380 144 q 430 197 418 172 q 447 256 441 222 q 452 328 452 290 q 445 399 452 368 q 424 454 438 431 q 387 490 410 477 q 334 502 364 502 q 272 485 292 502 q 237 448 251 467 z "},"6":{"ha":702,"x_min":68,"x_max":652,"o":"m 496 998 l 522 998 l 522 837 l 513 837 q 400 815 448 837 q 321 751 353 793 q 274 651 290 709 q 258 519 258 592 l 258 353 q 266 262 258 302 q 287 197 273 223 q 319 158 300 171 q 360 145 338 145 q 402 159 383 145 q 435 196 421 172 q 455 253 448 220 q 463 324 463 285 q 455 396 463 363 q 434 453 448 429 q 401 490 420 477 q 358 503 382 503 q 299 483 323 503 q 262 430 275 462 q 248 362 249 397 l 191 403 q 210 500 193 454 q 256 583 227 546 q 326 640 285 619 q 417 661 366 661 q 520 634 475 661 q 594 562 564 608 q 638 455 623 515 q 652 326 652 395 q 632 192 652 254 q 574 84 612 130 q 484 12 537 38 q 364 -14 431 -14 q 242 15 296 -14 q 148 96 187 43 q 89 220 109 149 q 68 379 68 292 l 68 456 q 96 674 68 575 q 179 846 124 774 q 313 959 233 919 q 496 998 393 998 z "},"7":{"ha":702,"x_min":46,"x_max":643,"o":"m 643 987 l 643 879 l 331 0 l 130 0 l 444 829 l 46 829 l 46 987 l 643 987 z "},"8":{"ha":702,"x_min":67,"x_max":634,"o":"m 634 271 q 598 114 634 178 q 497 19 562 51 q 352 -14 433 -14 q 206 19 271 -14 q 104 114 142 51 q 67 271 67 178 q 88 385 67 334 q 148 471 109 435 q 238 527 186 508 q 351 547 290 547 q 497 513 433 547 q 598 417 562 479 q 634 271 634 355 m 444 285 q 432 361 444 330 q 400 410 421 393 q 351 427 379 427 q 301 410 322 427 q 269 361 281 393 q 258 285 258 330 q 269 210 258 241 q 301 162 280 179 q 352 144 323 144 q 402 162 381 144 q 433 210 422 179 q 444 285 444 241 m 618 725 q 584 591 618 649 q 490 501 550 534 q 352 469 430 469 q 213 501 273 469 q 118 591 152 534 q 84 725 84 649 q 118 876 84 814 q 213 970 153 938 q 351 1002 273 1002 q 490 970 429 1002 q 584 876 550 938 q 618 725 618 814 m 428 715 q 419 783 428 754 q 394 828 411 812 q 351 844 378 844 q 309 828 326 844 q 283 784 292 813 q 275 715 275 755 q 283 648 275 677 q 309 602 292 618 q 352 585 326 585 q 394 602 378 585 q 419 648 411 618 q 428 715 428 677 z "},"9":{"ha":702,"x_min":61,"x_max":630,"o":"m 187 154 l 197 154 q 308 173 262 154 q 384 229 355 192 q 427 320 414 266 q 441 444 441 374 l 441 634 q 433 726 441 687 q 412 791 426 765 q 382 830 399 817 q 345 843 365 843 q 304 827 322 843 q 275 785 287 811 q 257 724 263 758 q 251 654 251 690 q 257 583 251 616 q 275 524 263 549 q 307 484 288 498 q 352 470 326 470 q 392 483 374 470 q 424 516 410 495 q 446 562 438 536 q 454 614 454 587 l 516 575 q 499 484 516 529 q 454 401 483 438 q 386 341 425 363 q 304 319 348 319 q 199 345 245 319 q 123 415 154 370 q 77 520 92 460 q 61 652 61 581 q 81 787 61 724 q 138 899 101 850 q 229 974 176 947 q 347 1002 281 1002 q 463 973 411 1002 q 553 891 515 945 q 610 764 590 838 q 630 598 630 690 l 630 530 q 613 350 630 433 q 562 200 596 267 q 475 86 527 134 q 355 15 424 39 q 199 -10 286 -10 l 187 -10 l 187 154 z "},"\u0000":{"ha":0,"x_min":0,"x_max":0,"o":""},"\u0002":{"ha":0,"x_min":0,"x_max":0,"o":""},"\r":{"ha":320,"x_min":0,"x_max":0,"o":""}," ":{"ha":320,"x_min":0,"x_max":0,"o":""},"!":{"ha":362,"x_min":81,"x_max":290,"o":"m 287 987 l 265 304 l 107 304 l 84 987 l 287 987 m 81 93 q 110 166 81 136 q 185 197 138 197 q 261 166 233 197 q 290 93 290 136 q 261 19 290 49 q 185 -12 233 -12 q 110 19 138 -12 q 81 93 81 49 z "},"\"":{"ha":446,"x_min":43,"x_max":401,"o":"m 180 1042 l 180 949 l 153 669 l 43 669 l 43 940 l 43 1042 l 180 1042 m 401 1042 l 401 949 l 374 669 l 264 669 l 264 946 l 264 1042 l 401 1042 z "},"#":{"ha":733,"x_min":52,"x_max":688,"o":"m 135 0 l 280 987 l 398 987 l 253 0 l 135 0 m 345 0 l 490 987 l 608 987 l 463 0 l 345 0 m 688 588 l 94 588 l 94 705 l 688 705 l 688 588 m 644 278 l 52 278 l 52 395 l 644 395 l 644 278 z "},"$":{"ha":702,"x_min":63,"x_max":638,"o":"m 423 1145 l 423 943 l 321 943 l 321 1145 l 423 1145 m 409 37 l 409 -146 l 307 -146 l 307 37 l 409 37 m 447 260 q 437 324 447 298 q 405 372 427 351 q 347 412 383 393 q 215 484 272 446 q 126 580 158 523 q 95 726 95 637 q 129 872 95 810 q 224 968 163 934 q 366 1002 286 1002 q 477 980 427 1002 q 563 918 527 959 q 619 818 600 877 q 638 682 638 758 l 448 682 q 442 753 448 722 q 425 804 436 783 q 397 834 413 824 q 363 844 382 844 q 319 828 336 844 q 293 786 301 812 q 285 726 285 760 q 295 667 285 692 q 327 621 304 642 q 387 578 350 600 q 518 504 462 544 q 605 407 574 465 q 637 261 637 350 q 602 112 637 174 q 504 18 566 50 q 357 -14 441 -14 q 252 2 304 -14 q 157 57 199 19 q 89 156 114 94 q 63 311 63 218 l 253 311 q 261 230 253 262 q 284 178 270 197 q 318 151 299 159 q 357 143 337 143 q 408 159 388 143 q 437 200 427 174 q 447 260 447 227 z "},"%":{"ha":886,"x_min":66,"x_max":826,"o":"m 66 745 l 66 798 q 87 900 66 854 q 149 974 108 946 q 250 1002 190 1002 q 354 974 312 1002 q 415 900 395 946 q 435 798 435 854 l 435 745 q 415 644 435 690 q 354 570 395 598 q 251 543 313 543 q 149 570 191 543 q 87 644 108 598 q 66 745 66 690 m 191 798 l 191 745 q 197 702 191 722 q 218 668 204 681 q 251 656 231 656 q 285 668 272 656 q 304 702 298 681 q 311 745 311 722 l 311 798 q 304 842 311 821 q 284 876 298 863 q 250 888 271 888 q 217 876 231 888 q 197 842 203 863 q 191 798 191 821 m 456 190 l 456 242 q 477 344 456 298 q 539 418 498 390 q 641 446 581 446 q 744 418 703 446 q 805 344 785 390 q 826 242 826 298 l 826 190 q 806 88 826 134 q 744 14 785 42 q 642 -14 703 -14 q 539 14 581 -14 q 477 88 498 42 q 456 190 456 134 m 581 242 l 581 190 q 589 146 581 167 q 611 112 597 125 q 642 100 625 100 q 680 112 667 100 q 697 145 692 125 q 701 190 701 166 l 701 242 q 695 287 701 266 q 675 320 688 307 q 641 332 662 332 q 607 320 621 332 q 587 287 594 307 q 581 242 581 266 m 691 846 l 286 74 l 195 125 l 600 897 l 691 846 z "},"&":{"ha":804,"x_min":50,"x_max":780,"o":"m 208 528 l 368 650 q 412 704 403 679 q 420 760 420 730 q 403 817 420 790 q 355 844 385 844 q 318 830 332 844 q 296 794 303 817 q 289 744 289 772 q 303 683 289 714 q 341 617 317 652 q 393 541 366 582 l 780 0 l 564 0 l 256 437 q 185 547 216 497 q 137 644 154 597 q 119 742 119 692 q 149 878 119 819 q 231 969 178 937 q 355 1002 284 1002 q 472 970 422 1002 q 550 886 522 938 q 577 772 577 834 q 564 686 577 725 q 525 614 550 648 q 465 553 500 581 l 275 399 q 254 356 261 377 q 243 315 246 334 q 240 277 240 296 q 253 209 240 239 q 287 161 266 178 q 335 144 308 144 q 420 168 378 144 q 494 238 461 193 q 547 346 528 283 q 566 484 566 409 l 727 484 q 714 338 727 408 q 671 211 701 269 q 591 107 642 153 q 581 98 588 104 q 570 87 574 91 q 455 11 515 36 q 326 -14 396 -14 q 178 22 240 -14 q 83 121 117 58 q 50 266 50 184 q 70 370 50 326 q 125 452 90 414 q 208 528 161 489 z "},"'":{"ha":224,"x_min":43,"x_max":186,"o":"m 186 1042 l 186 942 l 166 668 l 43 668 l 43 932 l 43 1042 l 186 1042 z "},"(":{"ha":449,"x_min":82,"x_max":410,"o":"m 82 386 l 82 401 q 109 662 82 545 q 180 866 136 778 q 276 1013 224 955 q 375 1097 327 1070 l 410 990 q 350 913 380 962 q 296 792 320 864 q 256 624 271 721 q 241 403 241 527 l 241 385 q 256 164 241 261 q 296 -5 271 67 q 350 -126 320 -77 q 410 -205 380 -176 l 375 -309 q 276 -225 327 -283 q 180 -79 224 -168 q 109 126 136 9 q 82 386 82 243 z "},")":{"ha":450,"x_min":38,"x_max":377,"o":"m 377 401 l 377 386 q 349 132 377 248 q 276 -74 321 16 q 177 -223 230 -164 q 73 -309 124 -283 l 38 -205 q 98 -127 68 -177 q 152 -6 127 -78 q 191 163 176 66 q 206 385 206 261 l 206 403 q 191 624 206 527 q 151 793 176 722 q 96 915 126 865 q 38 992 66 964 l 73 1097 q 177 1010 124 1070 q 276 862 230 951 q 349 656 321 772 q 377 401 377 541 z "},"*":{"ha":630,"x_min":18,"x_max":622,"o":"m 85 469 l 233 652 l 18 713 l 59 836 l 269 751 l 256 987 l 389 987 l 375 747 l 581 830 l 622 706 l 404 646 l 546 465 l 439 389 l 315 587 l 193 395 l 85 469 z "},"+":{"ha":661,"x_min":45,"x_max":613,"o":"m 613 553 l 613 377 l 45 377 l 45 553 l 613 553 m 420 818 l 420 99 l 240 99 l 240 818 l 420 818 z "},",":{"ha":340,"x_min":24,"x_max":260,"o":"m 260 167 l 260 34 q 222 -121 260 -43 q 126 -248 184 -199 l 24 -195 q 58 -133 41 -164 q 85 -63 74 -101 q 96 24 96 -25 l 96 167 l 260 167 z "},"-":{"ha":501,"x_min":82,"x_max":412,"o":"m 412 503 l 412 345 l 82 345 l 82 503 l 412 503 z "},".":{"ha":404,"x_min":86,"x_max":307,"o":"m 86 97 q 116 172 86 142 q 197 202 146 202 q 277 172 248 202 q 307 97 307 142 q 277 22 307 52 q 197 -7 248 -7 q 116 22 146 -7 q 86 97 86 52 z "},"/":{"ha":461,"x_min":-1,"x_max":437,"o":"m 437 987 l 139 -85 l -1 -85 l 298 987 l 437 987 z "},":":{"ha":379,"x_min":86,"x_max":309,"o":"m 87 97 q 117 172 87 142 q 198 202 147 202 q 279 172 249 202 q 309 97 309 142 q 279 22 309 52 q 198 -7 249 -7 q 117 22 147 -7 q 87 97 87 52 m 86 653 q 116 728 86 698 q 197 758 146 758 q 277 728 248 758 q 307 653 307 698 q 277 578 307 608 q 197 549 248 549 q 116 578 146 549 q 86 653 86 608 z "},";":{"ha":352,"x_min":40,"x_max":296,"o":"m 75 653 q 105 728 75 698 q 186 758 135 758 q 267 728 237 758 q 296 653 296 698 q 267 578 296 608 q 186 549 237 549 q 105 578 135 549 q 75 653 75 608 m 277 167 l 277 34 q 239 -121 277 -43 q 142 -248 201 -199 l 41 -195 q 74 -133 58 -164 q 101 -63 90 -101 q 112 24 112 -25 l 112 167 l 277 167 z "},"<":{"ha":621,"x_min":41,"x_max":535,"o":"m 191 435 l 535 283 l 535 93 l 41 340 l 41 476 l 191 435 m 535 559 l 191 404 l 41 366 l 41 500 l 535 748 l 535 559 z "},"=":{"ha":699,"x_min":91,"x_max":606,"o":"m 606 666 l 606 507 l 91 507 l 91 666 l 606 666 m 606 372 l 606 212 l 91 212 l 91 372 l 606 372 z "},">":{"ha":631,"x_min":83,"x_max":583,"o":"m 431 408 l 83 559 l 83 748 l 583 500 l 583 364 l 431 408 m 83 282 l 431 437 l 583 476 l 583 340 l 83 94 l 83 282 z "},"?":{"ha":621,"x_min":35,"x_max":569,"o":"m 374 304 l 206 304 q 214 410 207 365 q 241 491 222 455 q 292 562 260 527 q 336 615 317 589 q 366 667 355 640 q 378 726 378 694 q 369 790 378 765 q 345 828 361 815 q 303 841 328 841 q 268 829 286 841 q 238 791 250 817 q 226 726 226 766 l 35 726 q 71 881 36 820 q 167 971 106 942 q 303 1001 228 1001 q 446 970 387 1001 q 537 880 505 939 q 569 735 569 821 q 548 631 569 676 q 495 546 528 585 q 427 465 463 507 q 386 393 396 431 q 374 304 376 356 m 189 96 q 217 170 189 140 q 294 200 245 200 q 369 170 341 200 q 397 96 397 140 q 369 22 397 52 q 294 -8 341 -8 q 217 22 245 -8 q 189 96 189 52 z "},"@":{"ha":1064,"x_min":52,"x_max":1010,"o":"m 1006 364 q 989 227 1004 294 q 943 105 974 159 q 865 18 913 51 q 750 -14 818 -14 q 682 1 713 -14 q 630 45 651 16 q 599 114 609 74 q 592 206 589 155 l 622 597 l 752 597 l 723 206 q 723 151 720 172 q 733 117 726 130 q 752 100 741 105 q 774 96 762 96 q 821 116 800 96 q 857 172 841 136 q 881 255 872 208 q 891 359 890 303 q 884 524 895 448 q 848 660 873 600 q 781 763 822 720 q 684 827 741 805 q 557 850 628 850 q 431 824 488 850 q 329 750 374 798 q 254 635 285 702 q 205 488 222 569 q 184 314 188 407 q 193 136 180 216 q 233 -5 205 56 q 302 -107 260 -66 q 399 -169 343 -148 q 522 -189 454 -189 q 623 -176 572 -189 q 711 -143 675 -163 l 734 -247 q 633 -292 693 -277 q 519 -307 574 -307 q 354 -281 429 -307 q 222 -205 279 -256 q 127 -79 165 -154 q 71 95 89 -3 q 56 314 52 193 q 85 524 60 425 q 153 702 110 622 q 257 841 196 783 q 394 930 318 899 q 559 961 469 961 q 719 933 647 961 q 847 853 791 905 q 939 728 902 802 q 993 563 976 655 q 1006 364 1010 471 m 448 292 q 448 213 445 247 q 460 156 451 180 q 483 121 469 133 q 517 110 497 110 q 537 117 526 110 q 561 140 548 124 q 584 186 573 157 q 603 261 595 216 l 658 191 q 626 103 645 141 q 583 39 607 64 q 530 1 558 14 q 470 -12 502 -12 q 395 9 428 -12 q 339 71 361 31 q 307 166 317 111 q 303 292 298 222 q 327 420 310 361 q 368 525 343 479 q 425 604 393 572 q 493 654 456 637 q 571 671 530 671 q 679 649 640 671 q 752 597 718 627 l 688 501 q 646 535 672 519 q 584 552 620 552 q 529 535 552 552 q 489 486 505 518 q 463 404 473 453 q 448 292 452 355 z "},"A":{"ha":829,"x_min":16,"x_max":816,"o":"m 437 811 l 225 0 l 16 0 l 324 987 l 455 987 l 437 811 m 605 0 l 391 811 l 372 987 l 505 987 l 816 0 l 605 0 m 612 368 l 612 203 l 167 203 l 167 368 l 612 368 z "},"B":{"ha":779,"x_min":80,"x_max":714,"o":"m 414 431 l 211 431 l 210 574 l 382 574 q 449 588 423 574 q 488 630 475 602 q 500 696 500 657 q 489 769 500 742 q 451 810 477 797 q 385 823 426 823 l 279 823 l 279 0 l 80 0 l 80 987 l 385 987 q 516 971 458 987 q 615 921 574 955 q 677 837 656 888 q 699 718 699 787 q 675 605 699 656 q 598 520 650 553 q 463 484 546 488 l 414 431 m 406 0 l 155 0 l 234 164 l 406 164 q 470 181 446 164 q 505 227 494 198 q 516 293 516 256 q 506 366 516 335 q 474 414 496 397 q 414 431 452 431 l 243 431 l 244 574 l 452 574 l 498 517 q 625 487 578 520 q 693 402 673 454 q 714 290 714 349 q 679 131 714 195 q 574 33 643 66 q 406 0 506 0 z "},"C":{"ha":791,"x_min":62,"x_max":750,"o":"m 551 329 l 748 329 q 703 141 744 218 q 588 26 663 65 q 407 -14 513 -14 q 261 14 325 -14 q 153 95 197 41 q 85 228 108 149 q 62 410 62 307 l 62 577 q 86 760 62 680 q 156 893 111 839 q 265 974 201 947 q 410 1002 329 1002 q 590 961 517 1002 q 702 843 663 921 q 750 653 742 765 l 552 653 q 536 764 550 724 q 492 821 522 804 q 410 838 463 838 q 342 824 370 838 q 295 779 313 810 q 268 699 277 749 q 260 578 260 650 l 260 410 q 267 291 260 340 q 291 210 275 241 q 335 165 307 179 q 407 151 363 151 q 488 165 457 151 q 534 219 519 180 q 551 329 549 258 z "},"D":{"ha":785,"x_min":80,"x_max":720,"o":"m 338 0 l 163 0 l 165 164 l 338 164 q 450 190 410 164 q 506 271 490 216 q 523 417 523 327 l 523 571 q 514 687 523 640 q 484 765 505 735 q 428 808 463 794 q 340 823 393 823 l 160 823 l 160 987 l 340 987 q 496 960 426 987 q 616 879 566 932 q 693 747 666 825 q 720 570 720 669 l 720 417 q 693 239 720 317 q 616 109 666 162 q 496 28 566 56 q 338 0 425 0 m 279 987 l 279 0 l 80 0 l 80 987 l 279 987 z "},"E":{"ha":682,"x_min":80,"x_max":646,"o":"m 646 164 l 646 0 l 217 0 l 217 164 l 646 164 m 279 987 l 279 0 l 80 0 l 80 987 l 279 987 m 589 587 l 589 428 l 217 428 l 217 587 l 589 587 m 645 987 l 645 823 l 217 823 l 217 987 l 645 987 z "},"F":{"ha":661,"x_min":80,"x_max":626,"o":"m 279 987 l 279 0 l 80 0 l 80 987 l 279 987 m 588 568 l 588 404 l 229 404 l 229 568 l 588 568 m 626 987 l 626 823 l 229 823 l 229 987 l 626 987 z "},"G":{"ha":813,"x_min":65,"x_max":751,"o":"m 751 519 l 751 112 q 689 60 730 90 q 584 8 649 31 q 427 -14 519 -14 q 278 12 345 -14 q 163 91 211 38 q 90 222 115 143 q 65 410 65 301 l 65 578 q 89 765 65 685 q 159 897 113 844 q 270 976 205 950 q 414 1002 334 1002 q 597 964 526 1002 q 706 854 669 927 q 750 674 743 781 l 558 674 q 537 772 553 736 q 493 822 522 807 q 419 838 465 838 q 351 824 380 838 q 302 779 321 810 q 273 699 282 747 q 263 579 263 650 l 263 410 q 274 290 263 340 q 306 210 285 241 q 360 164 328 178 q 438 151 393 151 q 496 158 474 151 q 531 174 517 165 q 553 187 544 182 l 553 369 l 411 369 l 411 519 l 751 519 z "},"H":{"ha":852,"x_min":80,"x_max":771,"o":"m 627 587 l 627 423 l 222 423 l 222 587 l 627 587 m 279 987 l 279 0 l 80 0 l 80 987 l 279 987 m 771 987 l 771 0 l 574 0 l 574 987 l 771 987 z "},"I":{"ha":375,"x_min":89,"x_max":286,"o":"m 286 987 l 286 0 l 89 0 l 89 987 l 286 987 z "},"J":{"ha":681,"x_min":31,"x_max":603,"o":"m 405 304 l 405 987 l 603 987 l 603 304 q 565 134 603 205 q 463 24 528 62 q 318 -14 399 -14 q 171 19 235 -14 q 68 120 106 52 q 31 292 31 188 l 231 292 q 241 208 231 239 q 272 164 252 178 q 318 151 292 151 q 365 169 346 151 q 395 221 385 187 q 405 304 405 256 z "},"K":{"ha":768,"x_min":80,"x_max":774,"o":"m 279 987 l 279 0 l 80 0 l 80 987 l 279 987 m 769 987 l 449 497 l 253 253 l 215 452 l 342 663 l 528 987 l 769 987 m 540 0 l 324 454 l 470 583 l 774 0 l 540 0 z "},"L":{"ha":665,"x_min":80,"x_max":628,"o":"m 628 164 l 628 0 l 218 0 l 218 164 l 628 164 m 279 987 l 279 0 l 80 0 l 80 987 l 279 987 z "},"M":{"ha":1053,"x_min":80,"x_max":972,"o":"m 151 987 l 325 987 l 526 312 l 727 987 l 881 987 l 600 0 l 452 0 l 151 987 m 80 987 l 246 987 l 272 336 l 272 0 l 80 0 l 80 987 m 805 987 l 972 987 l 972 0 l 781 0 l 781 336 l 805 987 z "},"N":{"ha":850,"x_min":80,"x_max":770,"o":"m 770 987 l 770 0 l 578 0 l 269 618 l 269 0 l 80 0 l 80 987 l 269 987 l 582 363 l 582 987 l 770 987 z "},"O":{"ha":838,"x_min":64,"x_max":774,"o":"m 774 570 l 774 406 q 748 223 774 301 q 676 92 723 144 q 565 13 630 39 q 420 -14 499 -14 q 275 13 340 -14 q 162 92 210 39 q 90 223 115 144 q 64 406 64 301 l 64 570 q 89 758 64 677 q 161 892 114 838 q 274 974 209 946 q 418 1001 339 1001 q 563 974 498 1001 q 675 892 628 946 q 748 758 723 838 q 774 570 774 677 m 576 406 l 576 572 q 566 692 576 642 q 536 774 556 742 q 486 821 515 806 q 418 836 457 836 q 350 821 380 836 q 301 774 321 806 q 271 692 281 742 q 261 572 261 642 l 261 406 q 271 290 261 338 q 302 211 281 241 q 352 166 322 180 q 420 151 381 151 q 487 166 458 151 q 536 211 517 180 q 566 290 556 241 q 576 406 576 338 z "},"P":{"ha":789,"x_min":80,"x_max":736,"o":"m 416 348 l 214 348 l 214 513 l 416 513 q 486 532 459 513 q 524 584 512 551 q 536 660 536 618 q 524 740 536 703 q 486 800 512 777 q 416 823 459 823 l 279 823 l 279 0 l 80 0 l 80 987 l 416 987 q 588 945 516 987 q 698 830 659 903 q 736 661 736 756 q 698 495 736 566 q 588 387 659 425 q 416 348 516 348 z "},"Q":{"ha":838,"x_min":62,"x_max":777,"o":"m 541 151 l 777 -62 l 652 -177 l 422 36 l 541 151 m 773 570 l 773 417 q 748 230 773 311 q 675 95 723 149 q 563 14 628 41 q 418 -14 498 -14 q 274 14 339 -14 q 161 95 208 41 q 88 230 114 149 q 62 417 62 311 l 62 570 q 87 758 62 677 q 160 892 113 838 q 273 974 208 946 q 417 1001 338 1001 q 562 974 497 1001 q 675 892 627 946 q 748 758 723 838 q 773 570 773 677 m 575 417 l 575 572 q 565 692 575 642 q 535 774 555 742 q 485 821 515 806 q 417 836 456 836 q 349 821 379 836 q 300 774 319 806 q 270 692 281 742 q 260 572 260 642 l 260 417 q 270 296 260 347 q 300 214 281 245 q 350 166 320 182 q 418 151 380 151 q 486 166 456 151 q 535 214 515 182 q 565 296 555 245 q 575 417 575 347 z "},"R":{"ha":768,"x_min":81,"x_max":741,"o":"m 81 987 l 397 987 q 566 954 496 987 q 673 853 636 920 q 711 689 711 787 q 689 552 711 609 q 627 458 667 496 q 532 398 587 420 l 471 362 l 214 362 l 214 527 l 392 527 q 459 545 433 527 q 499 596 486 563 q 513 673 513 629 q 501 753 513 720 q 464 805 489 787 q 397 823 438 823 l 279 823 l 279 0 l 81 0 l 81 987 m 529 0 l 348 440 l 556 441 l 741 9 l 741 0 l 529 0 z "},"S":{"ha":749,"x_min":50,"x_max":696,"o":"m 498 260 q 493 308 498 286 q 473 348 488 330 q 429 385 458 366 q 354 422 400 403 q 248 472 299 446 q 155 532 196 498 q 89 614 113 567 q 65 725 65 661 q 88 838 65 787 q 153 925 111 889 q 251 981 195 962 q 378 1001 308 1001 q 542 962 473 1001 q 650 854 612 922 q 688 696 688 785 l 490 696 q 478 771 490 739 q 441 821 467 803 q 374 840 415 840 q 312 824 336 840 q 275 783 287 809 q 263 724 263 757 q 275 681 263 700 q 308 646 287 661 q 358 616 329 631 q 421 589 387 602 q 540 531 488 562 q 626 460 591 499 q 678 372 661 421 q 696 261 696 323 q 674 149 696 199 q 612 62 653 98 q 514 6 572 26 q 387 -14 457 -14 q 257 6 318 -14 q 150 65 196 25 q 77 166 103 104 q 50 311 50 227 l 249 311 q 258 235 249 267 q 285 185 267 203 q 330 157 303 166 q 391 148 357 148 q 454 163 431 148 q 488 203 477 178 q 498 260 498 228 z "},"T":{"ha":753,"x_min":35,"x_max":719,"o":"m 473 987 l 473 0 l 276 0 l 276 987 l 473 987 m 719 987 l 719 823 l 35 823 l 35 987 l 719 987 z "},"U":{"ha":793,"x_min":73,"x_max":722,"o":"m 524 987 l 722 987 l 722 309 q 680 124 722 195 q 565 19 638 52 q 397 -14 492 -14 q 229 19 302 -14 q 114 124 155 52 q 73 309 73 195 l 73 987 l 271 987 l 271 309 q 285 210 271 245 q 328 163 300 176 q 397 151 356 151 q 467 163 439 151 q 509 210 494 176 q 524 309 524 245 l 524 987 z "},"V":{"ha":802,"x_min":15,"x_max":789,"o":"m 387 211 l 574 987 l 789 987 l 503 0 l 358 0 l 387 211 m 227 987 l 414 211 l 444 0 l 299 0 l 15 987 l 227 987 z "},"W":{"ha":1041,"x_min":31,"x_max":1012,"o":"m 281 148 l 439 987 l 544 987 l 575 857 l 406 0 l 292 0 l 281 148 m 227 987 l 355 146 l 333 0 l 208 0 l 31 987 l 227 987 m 690 149 l 817 987 l 1012 987 l 836 0 l 711 0 l 690 149 m 604 987 l 764 143 l 751 0 l 637 0 l 469 859 l 500 987 l 604 987 z "},"X":{"ha":777,"x_min":22,"x_max":754,"o":"m 255 987 l 396 658 l 530 987 l 749 987 l 511 498 l 754 0 l 526 0 l 386 337 l 245 0 l 22 0 l 269 503 l 28 987 l 255 987 z "},"Y":{"ha":753,"x_min":11,"x_max":743,"o":"m 227 987 l 377 543 l 526 987 l 743 987 l 477 359 l 477 0 l 277 0 l 277 359 l 11 987 l 227 987 z "},"Z":{"ha":736,"x_min":49,"x_max":692,"o":"m 692 164 l 692 0 l 105 0 l 105 164 l 692 164 m 685 871 l 191 0 l 53 0 l 53 120 l 552 987 l 685 987 l 685 871 m 618 987 l 618 823 l 49 823 l 49 987 l 618 987 z "},"[":{"ha":366,"x_min":76,"x_max":338,"o":"m 338 1149 l 338 998 l 266 998 l 266 -79 l 338 -79 l 338 -230 l 76 -230 l 76 1149 l 338 1149 z "},"\\":{"ha":529,"x_min":7,"x_max":547,"o":"m 353 -85 l 7 987 l 201 987 l 547 -85 l 353 -85 z "},"]":{"ha":366,"x_min":24,"x_max":286,"o":"m 24 998 l 24 1149 l 286 1149 l 286 -230 l 24 -230 l 24 -79 l 96 -79 l 96 998 l 24 998 z "},"^":{"ha":543,"x_min":34,"x_max":511,"o":"m 277 819 l 184 494 l 34 494 l 204 987 l 311 987 l 277 819 m 363 494 l 269 819 l 235 987 l 342 987 l 511 494 l 363 494 z "},"_":{"ha":555,"x_min":14,"x_max":541,"o":"m 541 0 l 541 -153 l 14 -153 l 14 0 l 541 0 z "},"`":{"ha":460,"x_min":35,"x_max":384,"o":"m 250 1042 l 384 832 l 223 832 l 35 1042 l 250 1042 z "},"a":{"ha":654,"x_min":50,"x_max":611,"o":"m 394 169 l 394 508 q 386 561 394 541 q 363 590 378 581 q 326 599 348 599 q 286 589 302 599 q 261 559 269 578 q 254 514 254 541 l 63 514 q 81 604 63 562 q 135 679 100 646 q 220 729 171 711 q 332 747 270 747 q 462 723 405 747 q 552 644 519 698 q 585 505 585 591 l 585 178 q 592 78 585 117 q 611 12 598 39 l 611 0 l 420 0 q 400 76 407 31 q 394 169 394 122 m 417 448 l 418 334 l 348 334 q 301 326 321 334 q 267 301 281 317 q 247 264 254 285 q 241 219 241 243 q 248 174 241 193 q 271 146 256 156 q 306 137 286 137 q 360 150 337 137 q 394 181 383 163 q 401 215 406 199 l 445 141 q 423 89 437 116 q 388 39 409 62 q 336 1 367 16 q 263 -14 305 -14 q 155 14 204 -14 q 78 90 106 41 q 50 205 50 138 q 68 306 50 261 q 122 383 86 351 q 213 431 158 414 q 342 448 268 448 l 417 448 z "},"b":{"ha":688,"x_min":71,"x_max":642,"o":"m 71 1042 l 260 1042 l 260 170 l 247 0 l 71 0 l 71 1042 m 642 391 l 642 343 q 628 187 642 254 q 585 76 614 121 q 511 9 556 31 q 406 -14 467 -14 q 311 13 351 -14 q 245 85 272 39 q 202 194 218 132 q 178 332 185 257 l 178 403 q 201 539 184 476 q 244 649 218 602 q 310 721 271 695 q 404 747 350 747 q 511 725 467 747 q 585 657 556 702 q 628 546 614 612 q 642 391 642 479 m 452 343 l 452 391 q 448 479 452 442 q 433 540 444 515 q 402 576 422 564 q 350 589 382 589 q 301 577 321 589 q 268 545 281 566 q 247 495 254 524 q 240 431 241 466 l 240 303 q 252 220 241 256 q 287 165 262 184 q 351 145 311 145 q 403 156 383 145 q 434 191 422 167 q 449 252 445 214 q 452 343 452 290 z "},"c":{"ha":639,"x_min":48,"x_max":600,"o":"m 336 144 q 381 155 362 144 q 411 191 401 166 q 422 254 421 215 l 600 254 q 565 111 600 171 q 472 19 530 51 q 339 -14 413 -14 q 210 10 265 -14 q 120 79 155 34 q 66 190 84 125 q 48 340 48 256 l 48 394 q 66 543 48 477 q 120 654 84 609 q 210 724 155 700 q 338 747 264 747 q 476 714 418 747 q 567 618 534 682 q 600 460 600 554 l 422 460 q 412 531 421 503 q 384 574 403 559 q 335 589 366 589 q 284 576 303 589 q 255 538 264 563 q 241 477 245 513 q 238 394 238 440 l 238 340 q 241 255 238 291 q 254 194 244 218 q 283 157 264 169 q 336 144 302 144 z "},"d":{"ha":688,"x_min":45,"x_max":616,"o":"m 426 162 l 426 1042 l 616 1042 l 616 0 l 444 -1 l 426 162 m 45 341 l 45 390 q 61 547 45 479 q 106 659 76 614 q 181 725 137 703 q 283 747 226 747 q 375 721 336 747 q 443 648 415 695 q 488 538 471 602 q 511 398 505 474 l 511 328 q 487 193 503 256 q 442 85 470 131 q 374 13 414 39 q 283 -14 335 -14 q 181 9 225 -14 q 106 78 136 33 q 61 189 76 123 q 45 341 45 255 m 235 390 l 235 341 q 240 253 235 290 q 257 192 245 216 q 289 158 269 169 q 338 146 309 146 q 399 166 376 146 q 435 219 423 185 q 448 298 447 254 l 448 427 q 439 494 447 464 q 418 545 432 524 q 385 577 405 566 q 338 589 365 589 q 290 577 310 589 q 258 542 270 566 q 241 480 247 517 q 235 390 235 442 z "},"e":{"ha":665,"x_min":53,"x_max":625,"o":"m 366 -14 q 233 9 291 -14 q 135 76 175 33 q 74 182 95 120 q 53 325 53 245 l 53 385 q 73 542 53 475 q 131 656 94 610 q 223 725 168 702 q 347 747 277 747 q 468 725 416 747 q 555 657 521 702 q 608 545 590 612 q 625 391 625 479 l 625 304 l 134 304 l 134 437 l 439 437 l 439 454 q 429 529 439 499 q 399 574 420 559 q 345 589 379 589 q 297 578 317 589 q 266 542 277 566 q 249 478 254 517 q 243 385 243 439 l 243 325 q 252 240 243 274 q 278 184 261 205 q 321 154 296 163 q 379 144 346 144 q 470 162 429 144 q 538 212 510 180 l 614 96 q 560 45 595 71 q 477 3 526 19 q 366 -14 429 -14 z "},"f":{"ha":455,"x_min":26,"x_max":440,"o":"m 306 0 l 115 0 l 115 798 q 144 939 115 882 q 227 1026 174 996 q 353 1056 280 1056 q 398 1052 377 1056 q 440 1042 420 1048 l 438 891 q 417 895 429 894 q 391 897 405 897 q 345 885 364 897 q 316 852 326 873 q 306 798 306 830 l 306 0 m 420 734 l 420 591 l 26 591 l 26 734 l 420 734 z "},"g":{"ha":699,"x_min":47,"x_max":629,"o":"m 456 734 l 629 734 l 629 0 q 590 -164 629 -100 q 484 -259 552 -229 q 325 -289 416 -289 q 247 -279 290 -289 q 164 -251 204 -270 q 98 -204 124 -231 l 163 -73 q 232 -118 189 -99 q 316 -136 275 -136 q 383 -124 356 -136 q 424 -81 410 -111 q 437 -1 437 -52 l 437 564 l 456 734 m 47 341 l 47 390 q 64 547 47 479 q 113 659 81 614 q 191 725 144 703 q 295 747 237 747 q 396 721 355 747 q 462 648 437 695 q 502 538 488 602 q 523 398 515 474 l 523 328 q 499 193 515 256 q 455 85 482 131 q 389 13 428 39 q 294 -14 349 -14 q 191 9 237 -14 q 113 78 145 33 q 64 189 81 123 q 47 341 47 255 m 237 390 l 237 341 q 244 253 237 290 q 264 192 250 216 q 299 158 277 169 q 349 146 320 146 q 415 166 391 146 q 452 219 440 185 q 465 298 464 254 l 465 427 q 457 494 465 464 q 435 545 449 524 q 400 577 422 566 q 351 589 379 589 q 300 577 321 589 q 266 542 279 566 q 244 480 252 517 q 237 390 237 442 z "},"h":{"ha":684,"x_min":66,"x_max":615,"o":"m 256 1042 l 256 0 l 66 0 l 66 1042 l 256 1042 m 229 392 l 177 391 q 193 533 177 468 q 239 646 208 598 q 314 721 270 694 q 410 747 357 747 q 493 732 456 747 q 558 683 530 716 q 600 595 585 650 q 615 463 615 541 l 615 0 l 425 0 l 425 465 q 415 539 425 512 q 387 577 406 566 q 339 589 368 589 q 287 574 309 589 q 253 532 266 559 q 234 469 240 505 q 229 392 229 433 z "},"i":{"ha":350,"x_min":71,"x_max":278,"o":"m 270 734 l 270 0 l 79 0 l 79 734 l 270 734 m 71 924 q 99 997 71 968 q 175 1025 127 1025 q 250 997 222 1025 q 278 924 278 968 q 250 851 278 880 q 175 823 222 823 q 99 851 127 823 q 71 924 71 880 z "},"j":{"ha":340,"x_min":-37,"x_max":275,"o":"m 79 734 l 271 734 l 271 -41 q 244 -180 271 -123 q 170 -267 218 -237 q 52 -296 121 -296 q 8 -294 29 -296 q -37 -285 -14 -291 l -36 -130 q -9 -134 -22 -133 q 15 -136 3 -136 q 51 -126 37 -136 q 72 -95 65 -116 q 79 -41 79 -74 l 79 734 m 66 924 q 95 997 66 968 q 170 1025 123 1025 q 247 997 218 1025 q 275 924 275 968 q 247 851 275 880 q 170 823 218 823 q 95 851 123 823 q 66 924 66 880 z "},"k":{"ha":664,"x_min":71,"x_max":666,"o":"m 260 1042 l 260 0 l 71 0 l 71 1042 l 260 1042 m 646 734 l 388 369 l 233 195 l 165 339 l 285 513 l 420 734 l 646 734 m 448 0 l 288 337 l 419 458 l 666 0 l 448 0 z "},"l":{"ha":350,"x_min":79,"x_max":270,"o":"m 270 1042 l 270 0 l 79 0 l 79 1042 l 270 1042 z "},"m":{"ha":1030,"x_min":71,"x_max":958,"o":"m 262 582 l 262 0 l 71 0 l 71 734 l 250 734 l 262 582 m 235 392 l 182 391 q 196 533 181 468 q 241 646 211 598 q 318 721 271 694 q 425 747 364 747 q 499 733 465 747 q 558 687 533 718 q 596 607 583 656 q 610 490 610 558 l 610 0 l 420 0 l 420 467 q 411 542 420 515 q 384 578 401 568 q 340 589 366 589 q 293 574 313 589 q 260 532 273 559 q 241 469 248 505 q 235 392 235 433 m 592 411 l 524 402 q 536 538 522 475 q 581 648 551 601 q 655 721 610 694 q 760 747 701 747 q 842 732 805 747 q 904 685 878 718 q 944 598 930 652 q 958 468 958 545 l 958 0 l 768 0 l 768 467 q 759 543 768 517 q 732 579 749 570 q 689 589 714 589 q 647 575 665 589 q 616 537 629 562 q 598 481 604 513 q 592 411 592 449 z "},"n":{"ha":684,"x_min":66,"x_max":615,"o":"m 257 577 l 257 0 l 66 0 l 66 734 l 244 734 l 257 577 m 229 392 l 178 391 q 194 539 176 473 q 243 651 211 605 q 320 723 275 698 q 421 747 365 747 q 499 732 464 747 q 561 685 535 718 q 601 599 587 652 q 615 467 615 545 l 615 0 l 425 0 l 425 468 q 415 542 425 515 q 387 578 406 568 q 339 589 368 589 q 291 574 312 589 q 256 532 270 559 q 235 469 242 505 q 229 392 228 433 z "},"o":{"ha":691,"x_min":49,"x_max":642,"o":"m 49 342 l 49 391 q 70 544 49 477 q 129 655 90 610 q 222 724 168 701 q 345 747 277 747 q 468 724 413 747 q 561 655 522 701 q 621 544 600 610 q 642 391 642 477 l 642 342 q 621 190 642 256 q 561 78 600 123 q 468 9 522 33 q 346 -14 414 -14 q 223 9 278 -14 q 130 78 169 33 q 70 190 90 123 q 49 342 49 256 m 239 391 l 239 342 q 246 254 239 291 q 267 192 253 216 q 300 156 281 168 q 346 144 320 144 q 392 156 372 144 q 426 192 412 168 q 445 254 439 216 q 452 342 452 291 l 452 391 q 444 478 452 441 q 423 540 437 516 q 390 577 410 564 q 345 589 370 589 q 300 577 319 589 q 267 540 281 564 q 246 478 253 516 q 239 391 239 441 z "},"p":{"ha":688,"x_min":71,"x_max":642,"o":"m 260 593 l 260 -282 l 71 -282 l 71 734 l 246 734 l 260 593 m 642 392 l 642 343 q 627 191 642 257 q 582 79 612 125 q 509 10 553 33 q 406 -14 465 -14 q 311 13 351 -14 q 244 85 271 39 q 201 193 217 131 q 176 325 184 254 l 176 401 q 199 539 184 476 q 242 650 215 603 q 310 722 270 696 q 404 747 349 747 q 508 726 464 747 q 582 660 553 704 q 627 549 612 616 q 642 392 642 482 m 452 343 l 452 392 q 446 482 452 445 q 428 543 440 519 q 396 578 416 567 q 348 589 376 589 q 299 578 320 589 q 266 546 279 567 q 246 496 253 526 q 239 429 239 467 l 239 296 q 251 218 240 252 q 285 164 261 184 q 349 144 309 144 q 398 157 378 144 q 429 193 417 169 q 447 255 441 218 q 452 343 452 292 z "},"q":{"ha":690,"x_min":45,"x_max":616,"o":"m 426 -282 l 426 583 l 450 734 l 616 734 l 616 -282 l 426 -282 m 45 343 l 45 392 q 61 549 45 481 q 106 660 76 616 q 180 726 136 704 q 284 747 225 747 q 379 722 339 747 q 446 649 418 696 q 489 539 473 602 q 513 399 505 475 l 513 329 q 488 195 505 257 q 444 85 471 132 q 378 13 417 39 q 283 -14 338 -14 q 180 10 224 -14 q 106 78 136 33 q 61 190 76 123 q 45 343 45 257 m 235 392 l 235 343 q 241 254 235 292 q 258 193 246 216 q 289 157 269 169 q 338 144 309 144 q 403 164 379 144 q 438 220 427 184 q 450 300 449 256 l 450 428 q 443 495 450 465 q 422 546 436 525 q 388 578 409 567 q 339 589 368 589 q 291 578 311 589 q 258 542 271 566 q 241 481 246 518 q 235 392 235 444 z "},"r":{"ha":460,"x_min":71,"x_max":433,"o":"m 260 570 l 260 0 l 71 0 l 71 734 l 250 734 l 260 570 m 433 739 l 431 550 q 400 554 418 553 q 368 555 382 555 q 314 546 336 555 q 277 516 292 536 q 255 469 262 497 q 246 404 248 440 l 210 418 q 221 550 210 490 q 255 654 233 610 q 309 723 277 699 q 380 747 340 747 q 409 745 394 747 q 433 739 425 743 z "},"s":{"ha":631,"x_min":41,"x_max":581,"o":"m 396 198 q 383 232 396 217 q 342 263 370 247 q 269 298 315 279 q 180 340 218 319 q 114 389 141 362 q 74 449 87 415 q 60 526 60 483 q 78 613 60 573 q 127 683 95 652 q 207 730 160 713 q 313 747 254 747 q 455 719 396 747 q 547 638 515 690 q 578 518 578 587 l 389 518 q 381 562 389 543 q 357 592 374 581 q 313 603 340 603 q 276 594 292 603 q 251 571 260 585 q 242 536 242 556 q 249 510 242 522 q 269 488 255 498 q 308 465 283 477 q 367 439 332 453 q 487 380 440 412 q 557 308 534 349 q 581 205 581 266 q 562 116 581 156 q 508 47 543 76 q 424 2 473 18 q 314 -14 374 -14 q 164 22 225 -14 q 72 112 103 57 q 41 227 41 168 l 221 227 q 235 170 222 191 q 269 141 248 149 q 317 133 291 133 q 361 140 344 133 q 387 162 378 147 q 396 198 396 178 z "},"t":{"ha":426,"x_min":16,"x_max":395,"o":"m 391 734 l 391 591 l 16 591 l 16 734 l 391 734 m 102 915 l 292 915 l 292 224 q 298 177 292 194 q 316 154 304 161 q 349 148 329 148 q 376 150 364 148 q 395 153 389 151 l 395 5 q 348 -9 372 -4 q 289 -14 323 -14 q 190 8 232 -14 q 125 77 149 29 q 102 203 102 125 l 102 915 z "},"u":{"ha":683,"x_min":66,"x_max":616,"o":"m 425 176 l 425 734 l 616 734 l 616 0 l 437 0 l 425 176 m 447 328 l 500 329 q 486 192 500 255 q 443 83 471 130 q 372 12 415 37 q 271 -14 329 -14 q 188 2 226 -14 q 123 50 151 17 q 81 135 96 83 q 66 259 66 186 l 66 734 l 256 734 l 256 258 q 261 207 256 228 q 276 172 267 185 q 299 152 286 158 q 328 146 312 146 q 399 170 373 146 q 436 234 425 193 q 447 328 447 275 z "},"v":{"ha":623,"x_min":18,"x_max":603,"o":"m 287 146 l 405 734 l 603 734 l 401 0 l 283 0 l 287 146 m 217 734 l 337 146 l 339 0 l 220 0 l 18 734 l 217 734 z "},"w":{"ha":880,"x_min":24,"x_max":855,"o":"m 243 193 l 371 734 l 490 734 l 461 514 l 335 0 l 235 0 l 243 193 m 206 734 l 294 195 l 293 0 l 176 0 l 24 734 l 206 734 m 587 203 l 671 734 l 855 734 l 702 0 l 585 0 l 587 203 m 507 734 l 635 197 l 644 0 l 544 0 l 418 513 l 389 734 l 507 734 z "},"x":{"ha":628,"x_min":22,"x_max":610,"o":"m 233 734 l 323 547 l 401 734 l 603 734 l 415 375 l 610 0 l 408 0 l 315 193 l 226 0 l 22 0 l 209 373 l 29 734 l 233 734 z "},"y":{"ha":618,"x_min":12,"x_max":606,"o":"m 255 84 l 408 734 l 606 734 l 365 -110 q 342 -170 357 -138 q 305 -231 328 -202 q 246 -278 281 -260 q 161 -296 211 -296 q 121 -293 136 -296 q 83 -283 106 -290 l 83 -136 q 95 -136 89 -136 q 106 -136 100 -136 q 157 -128 138 -136 q 188 -102 176 -119 q 208 -58 199 -84 l 255 84 m 216 734 l 330 208 l 355 -7 l 227 -19 l 12 734 l 216 734 z "},"z":{"ha":628,"x_min":54,"x_max":572,"o":"m 572 158 l 572 0 l 106 0 l 106 158 l 572 158 m 568 618 l 181 0 l 54 0 l 54 119 l 439 734 l 568 734 l 568 618 m 501 734 l 501 576 l 62 576 l 62 734 l 501 734 z "},"{":{"ha":414,"x_min":38,"x_max":377,"o":"m 342 1083 l 377 974 q 317 897 332 952 q 302 768 302 841 l 302 630 q 275 506 302 562 q 190 417 248 450 q 38 384 132 384 l 38 490 q 110 528 88 490 q 132 630 132 566 l 132 768 q 151 901 132 839 q 216 1010 170 963 q 342 1083 262 1057 m 376 -134 l 342 -244 q 216 -171 262 -218 q 151 -61 170 -123 q 132 72 132 1 l 132 210 q 122 284 132 252 q 92 332 113 315 q 38 349 71 349 l 38 456 q 190 423 132 456 q 275 334 248 390 q 302 210 302 279 l 302 72 q 308 -18 302 23 q 330 -90 313 -60 q 376 -134 347 -119 z "},"|":{"ha":351,"x_min":118,"x_max":236,"o":"m 236 987 l 236 -183 l 118 -183 l 118 987 l 236 987 z "},"}":{"ha":414,"x_min":36,"x_max":376,"o":"m 36 974 l 73 1083 q 198 1010 153 1057 q 263 901 244 963 q 282 768 282 839 l 282 630 q 292 556 282 587 q 322 507 301 525 q 376 490 342 490 l 376 387 q 224 418 282 387 q 139 506 166 450 q 112 630 112 562 l 112 768 q 105 858 112 817 q 83 929 99 899 q 36 974 67 960 m 73 -244 l 37 -134 q 84 -90 68 -119 q 106 -18 100 -60 q 112 72 112 23 l 112 210 q 139 334 112 279 q 224 421 166 389 q 376 454 282 454 l 376 349 q 304 311 326 349 q 282 210 282 273 l 282 72 q 263 -61 282 1 q 198 -171 244 -123 q 73 -244 153 -218 z "},"~":{"ha":775,"x_min":68,"x_max":707,"o":"m 568 539 l 707 538 q 692 422 707 474 q 650 332 677 370 q 588 275 624 295 q 510 255 553 255 q 429 277 465 255 q 353 345 393 298 q 313 387 333 372 q 273 401 294 401 q 240 385 254 401 q 217 342 225 370 q 209 281 209 315 l 68 282 q 83 398 68 347 q 124 487 98 450 q 186 542 151 523 q 264 561 222 561 q 346 538 308 561 q 422 472 385 516 q 461 430 443 444 q 500 416 480 416 q 534 432 519 416 q 559 476 550 448 q 568 539 568 504 z "},"¡":{"ha":376,"x_min":85,"x_max":293,"o":"m 87 -250 l 110 433 l 267 433 l 290 -250 l 87 -250 m 293 644 q 265 569 293 600 q 189 539 237 539 q 114 569 142 539 q 85 644 85 600 q 114 717 85 687 q 189 747 142 747 q 265 717 237 747 q 293 644 293 687 z "},"¢":{"ha":706,"x_min":66,"x_max":619,"o":"m 422 894 l 422 696 l 292 696 l 292 894 l 422 894 m 422 31 l 422 -166 l 292 -166 l 292 31 l 422 31 m 354 144 q 401 158 382 144 q 430 196 420 172 q 441 254 440 221 l 618 254 q 584 116 619 176 q 490 21 549 56 q 358 -14 431 -14 q 229 15 284 -14 q 138 94 174 43 q 84 212 102 144 q 66 357 66 279 l 66 376 q 84 522 66 454 q 138 640 102 589 q 229 719 174 690 q 357 747 284 747 q 494 712 436 747 q 586 613 553 677 q 618 460 619 549 l 441 460 q 431 525 440 496 q 403 572 422 554 q 353 589 384 589 q 302 572 321 589 q 273 524 283 554 q 260 456 263 494 q 256 376 256 418 l 256 357 q 260 277 256 315 q 273 208 263 238 q 302 161 283 178 q 354 144 321 144 z "},"£":{"ha":728,"x_min":71,"x_max":686,"o":"m 686 0 l 72 0 l 72 164 l 686 164 l 686 0 m 521 391 l 71 391 l 71 551 l 521 551 l 521 391 m 347 705 l 360 297 q 335 183 361 230 q 246 105 309 136 l 122 164 q 147 189 139 170 q 158 234 155 208 q 160 286 160 260 l 149 705 q 183 864 149 798 q 277 965 217 930 q 417 1000 336 1000 q 562 965 503 1000 q 653 866 622 930 q 684 718 684 803 l 496 718 q 485 788 496 762 q 456 825 474 813 q 416 836 438 836 q 381 822 397 836 q 356 778 365 807 q 347 705 347 749 z "},"¤":{"ha":962,"x_min":56,"x_max":914,"o":"m 205 412 q 226 296 205 350 q 286 201 248 242 q 375 138 324 161 q 483 115 425 115 q 591 138 541 115 q 680 201 642 161 q 739 296 718 242 q 761 412 761 350 q 739 529 761 475 q 680 623 718 583 q 591 686 642 663 q 483 709 541 709 q 375 686 425 709 q 286 623 324 663 q 226 529 248 583 q 205 412 205 475 m 79 412 q 111 580 79 503 q 198 715 142 657 q 326 805 253 772 q 483 837 399 837 q 640 805 566 837 q 768 715 713 772 q 855 580 824 657 q 886 412 886 503 q 855 245 886 322 q 768 110 824 168 q 640 19 713 52 q 483 -14 566 -14 q 326 19 399 -14 q 198 110 253 52 q 111 245 142 168 q 79 412 79 322 m 914 760 l 777 621 l 682 718 l 818 858 l 914 760 m 288 122 l 151 -18 l 56 79 l 193 218 l 288 122 m 818 -18 l 682 121 l 777 218 l 914 79 l 818 -18 m 193 621 l 56 760 l 151 857 l 288 718 l 193 621 z "},"¥":{"ha":660,"x_min":17,"x_max":642,"o":"m 578 503 l 578 385 l 64 385 l 64 503 l 578 503 m 578 307 l 578 189 l 64 189 l 64 307 l 578 307 m 279 482 l 437 987 l 642 987 l 417 378 l 310 378 l 279 482 m 223 987 l 386 476 l 351 378 l 244 378 l 17 987 l 223 987 m 426 515 l 426 0 l 229 0 l 229 515 l 426 515 z "},"¦":{"ha":350,"x_min":87,"x_max":263,"o":"m 263 -183 l 87 -183 l 87 356 l 263 356 l 263 -183 m 263 987 l 263 473 l 87 473 l 87 987 l 263 987 z "},"§":{"ha":767,"x_min":64,"x_max":696,"o":"m 399 94 l 399 191 q 458 206 434 191 q 495 247 482 220 q 508 307 508 273 q 500 350 508 332 q 475 384 492 368 q 429 415 458 400 q 356 448 400 431 q 239 494 291 470 q 152 552 188 519 q 97 631 115 585 q 78 743 78 677 q 99 849 78 802 q 160 930 120 897 q 256 983 200 964 q 380 1001 311 1001 q 542 968 475 1001 q 647 870 610 935 q 684 712 684 806 l 494 712 q 481 778 494 749 q 443 825 469 808 q 380 843 418 843 q 316 829 340 843 q 280 794 292 816 q 268 745 268 772 q 275 702 268 720 q 298 670 281 684 q 344 642 314 656 q 421 613 374 629 q 538 568 487 593 q 624 511 589 544 q 677 433 659 478 q 696 327 696 388 q 674 226 696 269 q 614 153 653 182 q 521 109 575 123 q 399 94 467 94 m 351 595 l 351 496 q 296 481 317 496 q 265 441 275 467 q 255 382 255 416 q 261 337 255 355 q 283 303 267 318 q 328 273 298 288 q 402 240 357 258 q 520 195 469 219 q 609 138 572 172 q 664 58 645 104 q 682 -54 682 12 q 661 -162 682 -115 q 600 -242 639 -210 q 504 -291 560 -274 q 380 -307 448 -307 q 265 -293 321 -307 q 163 -247 208 -279 q 91 -160 117 -215 q 64 -24 64 -106 l 254 -24 q 265 -86 254 -61 q 293 -124 275 -111 q 334 -143 311 -138 q 380 -149 357 -149 q 442 -137 417 -149 q 479 -104 467 -125 q 492 -54 492 -83 q 485 -15 492 -33 q 459 17 477 3 q 411 46 441 32 q 336 77 380 60 q 221 121 272 98 q 136 178 171 145 q 83 256 101 211 q 64 362 64 301 q 85 461 64 418 q 142 534 105 505 q 233 580 180 564 q 351 595 286 595 z "},"¨":{"ha":649,"x_min":64,"x_max":583,"o":"m 64 926 q 91 987 64 962 q 158 1013 117 1013 q 225 987 199 1013 q 252 926 252 962 q 225 865 252 890 q 158 840 199 840 q 91 865 117 840 q 64 926 64 890 m 395 926 q 421 987 395 962 q 489 1013 448 1013 q 556 987 530 1013 q 583 926 583 962 q 556 865 583 890 q 489 840 530 840 q 421 865 448 840 q 395 926 395 890 z "},"©":{"ha":1090,"x_min":59,"x_max":1021,"o":"m 652 404 l 758 404 q 697 244 758 298 q 531 191 636 191 q 405 224 458 191 q 323 317 352 258 q 294 454 294 376 l 294 534 q 323 671 294 612 q 405 764 352 730 q 531 797 458 797 q 697 744 636 797 q 759 584 759 690 l 653 584 q 622 677 653 649 q 531 705 591 705 q 458 684 488 705 q 414 624 429 662 q 399 535 399 585 l 399 454 q 414 365 399 404 q 458 304 429 326 q 531 283 488 283 q 622 311 591 283 q 652 404 652 338 m 142 494 q 173 328 142 405 q 258 193 203 251 q 386 103 313 136 q 541 71 458 71 q 695 103 623 71 q 822 193 767 136 q 908 328 878 251 q 939 494 939 405 q 908 661 939 584 q 822 795 878 738 q 695 884 767 852 q 541 916 623 916 q 386 884 458 916 q 258 795 313 852 q 173 661 203 738 q 142 494 142 584 m 59 494 q 96 694 59 602 q 200 856 134 787 q 354 963 267 924 q 541 1001 441 1001 q 727 963 640 1001 q 881 856 814 924 q 984 694 947 787 q 1021 494 1021 602 q 984 294 1021 387 q 881 133 947 202 q 727 25 814 64 q 541 -14 640 -14 q 354 25 441 -14 q 200 133 267 64 q 96 294 134 202 q 59 494 59 387 z "},"ª":{"ha":547,"x_min":89,"x_max":463,"o":"m 336 584 l 336 814 q 330 862 336 842 q 311 891 323 881 q 279 901 298 901 q 229 884 247 901 q 211 833 211 866 l 100 843 q 122 925 100 889 q 184 981 144 960 q 279 1001 225 1001 q 368 980 330 1001 q 428 918 406 959 q 449 814 449 876 l 449 601 q 452 538 449 568 q 463 478 455 508 l 350 478 q 336 584 336 526 m 363 780 l 364 701 l 286 701 q 237 690 256 701 q 210 663 218 680 q 201 626 201 646 q 216 582 201 598 q 260 566 231 566 q 303 579 281 566 q 341 610 326 591 q 356 644 356 628 l 366 565 q 340 521 357 543 q 296 484 323 498 q 231 469 269 469 q 126 511 163 469 q 89 623 89 553 q 110 708 89 673 q 175 762 131 743 q 286 780 218 780 l 363 780 z "},"«":{"ha":623,"x_min":50,"x_max":557,"o":"m 326 627 l 194 353 l 50 353 l 50 362 l 208 627 l 326 627 m 194 359 l 326 85 l 208 85 l 50 349 l 50 358 l 194 359 m 557 627 l 425 353 l 280 354 l 280 363 l 438 627 l 557 627 m 425 359 l 557 85 l 438 85 l 280 350 l 280 359 l 425 359 z "},"¬":{"ha":673,"x_min":86,"x_max":566,"o":"m 566 546 l 566 430 l 86 430 l 86 546 l 566 546 m 566 494 l 566 254 l 437 254 l 437 494 l 566 494 z "},"®":{"ha":1090,"x_min":59,"x_max":1021,"o":"m 557 443 l 412 443 l 410 534 l 535 534 q 592 543 565 534 q 634 569 618 552 q 650 612 650 587 q 638 665 650 646 q 601 692 627 684 q 531 701 575 701 l 443 701 l 443 214 l 341 214 l 341 791 l 531 791 q 648 771 598 791 q 724 711 697 751 q 751 614 751 672 q 734 549 751 577 q 684 500 717 520 q 603 467 651 479 q 598 462 601 467 q 594 457 596 457 q 579 447 583 450 q 573 444 576 444 q 557 443 570 443 m 550 443 l 564 517 q 710 469 671 517 q 749 349 749 421 l 749 311 q 752 263 749 286 q 761 225 754 241 l 761 214 l 656 214 q 649 264 650 232 q 648 312 648 297 l 648 349 q 625 420 648 397 q 550 443 603 443 m 142 494 q 173 328 142 405 q 258 193 203 251 q 386 103 313 136 q 541 71 458 71 q 695 103 623 71 q 822 193 767 136 q 908 328 877 251 q 939 494 939 405 q 908 661 939 584 q 822 795 877 738 q 695 884 767 852 q 541 916 623 916 q 386 884 458 916 q 258 795 313 852 q 173 661 203 738 q 142 494 142 584 m 59 494 q 96 694 59 602 q 200 856 134 787 q 354 963 267 924 q 541 1001 441 1001 q 727 963 640 1001 q 881 856 814 924 q 984 694 947 787 q 1021 494 1021 602 q 984 294 1021 387 q 881 133 947 202 q 727 25 814 64 q 541 -14 640 -14 q 354 25 441 -14 q 200 133 267 64 q 96 294 134 202 q 59 494 59 387 z "},"¯":{"ha":635,"x_min":114,"x_max":519,"o":"m 519 987 l 519 873 l 114 873 l 114 987 l 519 987 z "},"°":{"ha":540,"x_min":86,"x_max":452,"o":"m 86 814 q 111 908 86 865 q 178 976 136 950 q 271 1001 220 1001 q 362 976 320 1001 q 428 908 404 950 q 452 814 452 865 q 428 721 452 763 q 362 655 404 680 q 271 630 320 630 q 178 655 220 630 q 111 721 136 680 q 86 814 86 763 m 186 814 q 211 754 186 778 q 271 730 236 730 q 330 754 306 730 q 353 814 353 778 q 330 876 353 851 q 271 901 306 901 q 211 876 236 901 q 186 814 186 851 z "},"±":{"ha":656,"x_min":66,"x_max":588,"o":"m 588 639 l 588 476 l 66 476 l 66 639 l 588 639 m 412 873 l 412 229 l 245 229 l 245 873 l 412 873 m 572 161 l 572 1 l 77 1 l 77 161 l 572 161 z "},"²":{"ha":466,"x_min":43,"x_max":413,"o":"m 413 564 l 413 452 l 52 452 l 52 546 l 215 720 q 246 763 234 743 q 264 800 258 783 q 270 827 270 817 q 259 868 270 852 q 226 884 248 884 q 188 862 201 884 q 176 810 176 840 l 43 810 q 64 902 43 860 q 125 970 86 945 q 220 996 165 996 q 319 976 279 996 q 381 918 360 956 q 403 827 403 880 q 390 755 403 787 q 348 692 376 724 q 275 623 320 661 l 227 564 l 413 564 z "},"³":{"ha":466,"x_min":38,"x_max":414,"o":"m 169 772 l 222 772 q 252 779 240 772 q 269 800 263 787 q 274 831 274 814 q 263 867 274 850 q 223 884 252 884 q 192 873 205 884 q 179 842 179 862 l 45 842 q 70 927 45 892 q 134 978 94 961 q 220 996 174 996 q 318 978 275 996 q 384 926 360 960 q 408 842 408 892 q 386 771 408 800 q 327 726 363 742 q 243 711 290 711 l 169 711 l 169 772 m 169 679 l 169 738 l 243 738 q 332 725 294 738 q 393 683 371 712 q 414 603 414 654 q 389 517 414 553 q 319 464 363 482 q 220 445 275 445 q 135 461 177 445 q 65 515 93 478 q 38 613 38 552 l 172 613 q 186 574 172 591 q 228 557 201 557 q 269 575 257 557 q 281 616 281 593 q 274 653 281 639 q 254 673 267 667 q 222 679 241 679 l 169 679 z "},"´":{"ha":460,"x_min":69,"x_max":416,"o":"m 69 832 l 202 1042 l 416 1042 l 228 832 l 69 832 z "},"µ":{"ha":762,"x_min":90,"x_max":659,"o":"m 468 734 l 659 734 l 659 0 l 481 0 l 468 170 l 468 734 m 492 341 l 566 342 q 553 200 566 265 q 515 87 540 135 q 452 12 490 39 q 364 -14 414 -14 q 293 1 324 -14 q 239 50 262 16 q 199 136 216 83 l 178 313 l 280 313 q 286 229 280 262 q 303 177 292 195 q 332 153 315 159 q 370 146 349 146 q 428 160 404 146 q 465 201 451 175 q 486 263 479 228 q 492 341 492 299 m 90 734 l 280 734 l 280 -282 l 90 -282 l 90 734 z "},"¶":{"ha":605,"x_min":54,"x_max":520,"o":"m 520 0 l 377 0 l 377 353 l 334 353 q 181 394 244 353 q 86 507 119 435 q 54 670 54 578 q 86 833 54 761 q 181 946 119 905 q 334 987 244 987 l 520 987 l 520 0 z "},"·":{"ha":395,"x_min":90,"x_max":299,"o":"m 90 473 q 118 548 90 517 q 194 578 146 578 q 271 548 243 578 q 299 473 299 517 q 271 399 299 429 q 194 368 243 368 q 118 399 146 368 q 90 473 90 429 z "},"¸":{"ha":346,"x_min":66,"x_max":302,"o":"m 84 5 l 225 5 l 220 -35 q 276 -67 250 -41 q 302 -152 302 -94 q 289 -218 302 -189 q 250 -269 276 -247 q 185 -302 224 -291 q 96 -313 146 -313 l 92 -201 q 119 -195 108 -201 q 137 -177 131 -189 q 142 -145 142 -165 q 135 -116 142 -126 q 111 -100 127 -105 q 66 -92 94 -94 l 84 5 z "},"¹":{"ha":466,"x_min":92,"x_max":325,"o":"m 325 986 l 325 452 l 193 452 l 193 825 l 92 797 l 92 904 l 313 986 l 325 986 z "},"º":{"ha":564,"x_min":78,"x_max":481,"o":"m 78 708 l 78 760 q 103 885 78 831 q 173 970 127 939 q 279 1001 218 1001 q 388 970 342 1001 q 457 885 433 939 q 481 760 481 831 l 481 708 q 457 584 481 638 q 388 499 433 530 q 281 468 343 468 q 173 499 218 468 q 103 584 127 530 q 78 708 78 638 m 191 760 l 191 708 q 200 636 191 668 q 231 585 210 604 q 281 567 251 567 q 330 585 311 567 q 359 636 349 604 q 369 708 369 668 l 369 760 q 359 832 369 800 q 330 882 349 863 q 279 901 310 901 q 230 882 250 901 q 200 832 210 863 q 191 760 191 800 z "},"»":{"ha":624,"x_min":58,"x_max":570,"o":"m 58 84 l 190 359 l 335 358 l 335 349 l 177 84 l 58 84 m 58 626 l 177 626 l 335 362 l 335 353 l 190 353 l 58 626 m 292 84 l 425 359 l 570 358 l 570 349 l 412 84 l 292 84 m 292 626 l 412 626 l 570 362 l 570 353 l 425 353 l 292 626 z "},"¼":{"ha":865,"x_min":66,"x_max":808,"o":"m 300 984 l 300 450 l 168 450 l 168 823 l 66 795 l 66 902 l 288 984 l 300 984 m 687 851 l 282 79 l 191 131 l 597 903 l 687 851 m 808 222 l 808 109 l 441 109 l 433 199 l 631 535 l 735 535 l 625 350 l 559 222 l 808 222 m 764 535 l 764 0 l 631 0 l 631 535 l 764 535 z "},"½":{"ha":920,"x_min":57,"x_max":863,"o":"m 663 851 l 258 79 l 167 131 l 572 903 l 663 851 m 291 987 l 291 454 l 159 454 l 159 826 l 58 798 l 58 905 l 279 987 l 291 987 m 863 111 l 863 0 l 502 0 l 502 94 l 665 268 q 696 311 684 290 q 714 348 708 331 q 720 374 720 364 q 709 416 720 400 q 676 431 698 431 q 638 409 651 431 q 626 357 626 387 l 493 357 q 515 450 493 408 q 576 518 536 492 q 671 543 615 543 q 770 523 729 543 q 832 466 810 503 q 853 374 853 428 q 840 303 853 335 q 799 240 827 271 q 725 170 770 209 l 677 111 l 863 111 z "},"¾":{"ha":977,"x_min":64,"x_max":901,"o":"m 779 851 l 374 79 l 283 131 l 688 903 l 779 851 m 901 222 l 901 109 l 534 109 l 527 199 l 724 535 l 829 535 l 718 350 l 652 222 l 901 222 m 858 535 l 858 0 l 724 0 l 724 535 l 858 535 m 195 772 l 249 772 q 278 779 267 772 q 295 800 290 787 q 300 831 300 814 q 290 867 300 850 q 250 884 279 884 q 218 873 231 884 q 205 842 205 862 l 71 842 q 96 927 71 892 q 161 978 121 961 q 246 996 201 996 q 344 978 302 996 q 410 926 387 960 q 434 842 434 892 q 412 771 434 800 q 353 726 390 742 q 270 711 316 711 l 195 711 l 195 772 m 195 679 l 195 738 l 270 738 q 359 725 320 738 q 419 683 397 712 q 441 603 441 654 q 415 517 441 553 q 346 464 390 482 q 246 445 302 445 q 161 461 203 445 q 92 515 119 478 q 64 613 64 552 l 198 613 q 213 574 198 591 q 254 557 228 557 q 295 575 283 557 q 307 616 307 593 q 300 653 307 639 q 281 673 294 667 q 249 679 268 679 l 195 679 z "},"¿":{"ha":620,"x_min":50,"x_max":585,"o":"m 242 436 l 410 436 q 402 331 410 374 q 375 252 393 287 q 323 181 356 216 q 280 126 299 153 q 251 72 262 100 q 239 5 239 43 q 249 -55 239 -31 q 274 -90 258 -79 q 313 -102 291 -102 q 351 -90 332 -102 q 382 -52 370 -77 q 394 16 394 -26 l 585 16 q 548 -140 584 -79 q 452 -232 512 -202 q 315 -261 391 -261 q 173 -231 232 -261 q 81 -141 113 -200 q 50 4 50 -82 q 70 111 50 64 q 123 198 91 158 q 191 279 156 238 q 222 325 212 302 q 237 374 233 347 q 242 436 241 401 m 432 644 q 404 570 432 600 q 328 540 376 540 q 252 570 280 540 q 224 644 224 600 q 252 718 224 688 q 328 748 280 748 q 404 718 376 748 q 432 644 432 688 z "},"Æ":{"ha":1136,"x_min":10,"x_max":1086,"o":"m 583 880 l 233 0 l 10 0 l 448 987 l 566 987 l 583 880 m 651 394 l 651 227 l 212 227 l 212 394 l 651 394 m 1086 160 l 1086 0 l 670 0 l 670 160 l 1086 160 m 715 987 l 750 0 l 559 0 l 525 987 l 715 987 m 1006 587 l 1006 428 l 646 428 l 646 587 l 1006 587 m 1053 987 l 1053 827 l 635 827 l 635 987 l 1053 987 z "},"×":{"ha":651,"x_min":45,"x_max":603,"o":"m 159 139 l 47 254 l 491 792 l 603 677 l 159 139 m 488 139 l 45 677 l 156 792 l 600 254 l 488 139 z "},"Ø":{"ha":836,"x_min":62,"x_max":785,"o":"m 753 1029 l 214 -64 l 94 -64 l 633 1029 l 753 1029 m 785 516 l 785 471 q 759 269 785 359 q 684 116 732 178 q 570 20 635 53 q 425 -14 504 -14 q 306 8 361 -14 q 206 70 250 29 q 130 171 161 111 q 80 305 98 230 q 62 471 62 380 l 62 516 q 89 719 62 629 q 164 871 116 808 q 278 968 212 935 q 424 1001 345 1001 q 543 980 488 1001 q 643 917 598 958 q 719 816 687 876 q 768 682 751 757 q 785 516 785 606 m 585 471 l 585 517 q 577 629 585 578 q 557 717 570 679 q 525 781 544 755 q 480 820 505 806 q 424 833 455 833 q 355 812 385 833 q 304 752 326 792 q 273 653 283 712 q 262 517 262 595 l 262 471 q 269 359 262 410 q 290 271 276 309 q 323 207 304 233 q 368 167 342 180 q 425 154 394 154 q 492 175 463 154 q 543 235 522 195 q 574 335 564 275 q 585 471 585 394 z "},"Þ":{"ha":740,"x_min":82,"x_max":699,"o":"m 82 987 l 273 987 l 273 0 l 82 0 l 82 987 m 149 807 l 383 807 q 556 767 486 807 q 662 659 625 728 q 699 500 699 590 q 662 342 699 412 q 556 234 625 273 q 383 195 486 195 l 250 195 l 250 353 l 383 353 q 456 374 429 353 q 496 428 484 395 q 508 499 508 462 q 496 572 508 538 q 456 627 484 606 q 383 648 429 648 l 275 648 l 149 807 z "},"ß":{"ha":775,"x_min":87,"x_max":728,"o":"m 277 744 l 277 0 l 87 0 l 87 747 q 107 882 87 824 q 164 980 127 941 q 255 1038 202 1019 q 373 1058 307 1058 q 501 1030 444 1058 q 592 946 558 1002 q 626 807 626 890 q 617 726 626 756 q 596 675 608 696 q 575 628 585 653 q 566 564 566 604 q 583 511 566 536 q 623 459 599 486 q 672 401 648 433 q 712 331 696 370 q 728 241 728 292 q 700 103 728 160 q 613 16 671 46 q 467 -14 555 -14 q 409 -9 439 -14 q 353 5 378 -4 q 311 25 327 14 l 345 180 q 393 156 362 168 q 463 144 424 144 q 506 156 490 144 q 531 188 523 168 q 539 237 539 209 q 523 297 539 271 q 482 347 507 323 q 433 399 458 371 q 392 465 409 427 q 376 555 376 503 q 386 629 376 600 q 408 682 395 659 q 429 731 420 705 q 439 797 439 757 q 429 851 439 828 q 401 887 419 874 q 358 901 383 901 q 315 886 333 901 q 287 836 297 871 q 277 744 277 802 z "},"æ":{"ha":1012,"x_min":49,"x_max":971,"o":"m 417 124 l 417 479 q 409 538 417 513 q 383 576 400 562 q 342 589 366 589 q 298 578 317 589 q 270 548 279 567 q 260 505 260 529 l 70 518 q 89 610 70 569 q 144 683 109 652 q 231 730 180 713 q 345 747 282 747 q 479 717 422 747 q 569 627 537 687 q 602 477 602 568 l 602 148 l 417 124 m 444 441 l 446 313 l 340 313 q 284 299 307 313 q 250 263 262 286 q 238 214 238 240 q 247 171 238 190 q 273 141 255 152 q 319 130 291 130 q 363 141 340 130 q 406 167 387 151 q 438 202 426 183 q 450 237 450 220 l 535 131 q 488 65 521 98 q 404 9 456 31 q 282 -14 353 -14 q 155 15 207 -14 q 76 95 102 43 q 49 217 49 146 q 68 312 49 271 q 123 382 87 353 q 213 426 159 411 q 338 441 267 441 l 444 441 m 721 -14 q 592 12 648 -14 q 498 85 536 38 q 439 196 459 132 q 420 335 420 260 l 420 382 q 438 530 420 463 q 493 646 457 597 q 583 721 530 694 q 707 747 637 748 q 819 724 770 747 q 901 658 867 701 q 953 553 935 614 q 971 415 971 492 l 971 305 l 497 305 l 497 437 l 785 437 l 785 456 q 777 526 785 496 q 752 572 769 555 q 707 589 735 589 q 657 574 677 589 q 625 530 637 558 q 608 464 613 502 q 602 382 602 427 l 602 335 q 610 260 602 295 q 635 199 618 225 q 678 159 652 173 q 742 144 704 144 q 838 161 802 144 q 906 197 873 177 l 954 68 q 901 31 936 50 q 820 -1 866 12 q 721 -14 774 -14 z "},"ð":{"ha":698,"x_min":52,"x_max":651,"o":"m 135 920 l 195 1072 q 376 994 292 1048 q 521 858 459 939 q 617 671 583 776 q 651 441 651 567 l 651 392 q 628 227 651 302 q 563 98 604 153 q 466 15 522 44 q 344 -14 410 -14 q 224 12 277 -14 q 132 83 171 37 q 73 188 94 128 q 52 317 52 248 q 70 456 52 393 q 121 563 88 518 q 203 631 155 607 q 313 655 251 655 q 428 622 377 655 q 509 530 478 588 q 544 399 540 472 l 477 401 q 470 436 477 418 q 447 471 463 454 q 410 497 432 487 q 356 507 387 507 q 308 493 329 507 q 272 456 286 480 q 250 397 257 431 q 243 317 243 362 q 249 251 243 282 q 269 196 256 219 q 302 158 283 172 q 347 144 321 144 q 396 162 374 144 q 432 210 418 179 q 453 281 446 240 q 460 372 460 323 l 460 443 q 433 629 460 549 q 359 768 406 710 q 255 862 313 825 q 135 920 197 899 m 576 946 l 244 701 l 195 779 l 528 1023 l 576 946 z "},"÷":{"ha":694,"x_min":50,"x_max":638,"o":"m 638 544 l 638 388 l 50 388 l 50 544 l 638 544 m 238 739 q 266 813 238 784 q 342 842 294 842 q 419 813 391 842 q 448 739 448 784 q 419 666 448 694 q 342 637 391 637 q 266 666 294 637 q 238 739 238 694 m 238 189 q 266 262 238 233 q 342 291 294 291 q 419 262 391 291 q 448 189 448 233 q 419 115 448 144 q 342 86 391 86 q 266 115 294 86 q 238 189 238 144 z "},"ø":{"ha":690,"x_min":50,"x_max":641,"o":"m 586 825 l 208 -96 l 107 -96 l 485 825 l 586 825 m 50 359 l 50 374 q 69 522 50 454 q 125 641 88 590 q 218 719 163 691 q 345 747 273 747 q 472 719 417 747 q 565 641 527 691 q 622 522 602 590 q 641 374 641 454 l 641 359 q 622 211 641 279 q 565 93 602 143 q 473 14 528 42 q 346 -14 418 -14 q 219 14 274 -14 q 126 93 163 42 q 69 211 88 143 q 50 359 50 279 m 239 374 l 239 359 q 244 275 239 314 q 262 207 250 237 q 294 161 274 178 q 346 144 315 144 q 396 161 376 144 q 428 207 416 178 q 446 275 440 237 q 451 359 451 314 l 451 374 q 446 456 451 417 q 428 525 440 495 q 396 572 416 555 q 345 589 375 589 q 294 572 314 589 q 262 525 274 555 q 244 456 250 495 q 239 374 239 417 z "},"þ":{"ha":694,"x_min":71,"x_max":642,"o":"m 262 1042 l 262 -282 l 71 -282 l 71 1042 l 262 1042 m 642 375 l 642 361 q 627 213 642 281 q 581 94 612 144 q 506 15 550 43 q 401 -14 461 -14 q 302 14 345 -14 q 232 92 260 42 q 187 207 204 141 q 162 349 170 273 l 162 378 q 186 526 170 458 q 231 643 203 593 q 301 720 259 692 q 400 747 342 747 q 506 721 460 747 q 581 645 551 694 q 627 527 611 595 q 642 375 642 458 m 453 361 l 453 375 q 448 460 453 421 q 430 528 442 498 q 398 573 418 557 q 349 589 378 589 q 300 576 320 589 q 267 540 281 564 q 247 482 254 516 q 240 406 241 448 l 240 319 q 247 250 241 281 q 266 194 253 218 q 299 157 278 170 q 351 144 320 144 q 399 162 379 144 q 430 209 418 179 q 448 277 442 238 q 453 361 453 316 z "},"đ":{"ha":781,"x_min":45,"x_max":706,"o":"m 426 162 l 426 1042 l 616 1042 l 616 0 l 445 0 l 426 162 m 45 358 l 45 372 q 62 525 45 456 q 109 643 78 593 q 185 720 140 693 q 289 747 231 747 q 386 720 345 747 q 456 642 427 692 q 502 524 485 592 q 526 374 519 456 l 526 351 q 501 208 518 275 q 455 91 484 141 q 385 14 426 41 q 288 -14 343 -14 q 185 14 230 -14 q 109 92 140 42 q 62 210 78 142 q 45 358 45 278 m 235 372 l 235 358 q 240 275 235 314 q 257 208 245 237 q 289 162 269 178 q 338 146 309 146 q 399 169 376 146 q 435 231 423 191 q 448 322 447 270 l 448 403 q 439 480 447 446 q 418 538 432 514 q 385 576 405 563 q 338 589 365 589 q 290 572 310 589 q 258 526 270 556 q 241 457 247 496 q 235 372 235 418 m 706 950 l 706 827 l 296 827 l 296 950 l 706 950 z "},"Ħ":{"ha":876,"x_min":33,"x_max":852,"o":"m 852 830 l 852 712 l 33 712 l 33 830 l 852 830 m 642 587 l 642 423 l 237 423 l 237 587 l 642 587 m 293 987 l 293 0 l 95 0 l 95 987 l 293 987 m 786 987 l 786 0 l 589 0 l 589 987 l 786 987 z "},"ı":{"ha":363,"x_min":85,"x_max":275,"o":"m 275 734 l 275 0 l 85 0 l 85 734 l 275 734 z "},"ĸ":{"ha":730,"x_min":83,"x_max":696,"o":"m 273 734 l 273 0 l 83 0 l 83 734 l 273 734 m 691 734 l 412 271 l 239 271 l 216 458 l 314 458 l 451 734 l 691 734 m 452 0 l 312 307 l 477 403 l 696 0 l 452 0 z "},"Ł":{"ha":686,"x_min":33,"x_max":652,"o":"m 409 649 l 409 538 l 33 411 l 33 522 l 409 649 m 652 164 l 652 0 l 241 0 l 241 164 l 652 164 m 301 987 l 301 0 l 103 0 l 103 987 l 301 987 z "},"ł":{"ha":397,"x_min":33,"x_max":363,"o":"m 363 649 l 363 537 l 33 410 l 33 522 l 363 649 m 289 1042 l 289 0 l 98 0 l 98 1042 l 289 1042 z "},"Ŋ":{"ha":846,"x_min":79,"x_max":768,"o":"m 79 987 l 277 987 l 277 0 l 79 0 l 79 987 m 138 905 l 277 987 l 710 82 l 570 0 l 138 905 m 570 987 l 768 987 l 768 -18 q 741 -171 768 -109 q 661 -264 713 -233 q 536 -296 609 -296 q 493 -294 514 -296 q 449 -285 473 -292 l 457 -124 q 484 -130 471 -128 q 513 -132 496 -132 q 545 -119 532 -132 q 564 -81 557 -106 q 570 -18 570 -56 l 570 987 z "},"ŋ":{"ha":690,"x_min":69,"x_max":620,"o":"m 258 577 l 258 0 l 69 0 l 69 734 l 245 734 l 258 577 m 218 392 l 196 391 q 213 533 196 468 q 260 646 230 598 q 332 721 290 694 q 423 747 374 747 q 503 731 467 747 q 565 679 538 714 q 606 586 591 644 q 620 448 620 529 l 620 -24 q 592 -173 620 -112 q 514 -265 565 -234 q 393 -296 464 -296 q 352 -294 371 -296 q 310 -285 332 -292 l 318 -128 q 345 -134 332 -132 q 372 -136 357 -136 q 404 -124 391 -136 q 423 -86 416 -111 q 430 -24 430 -61 l 430 448 q 425 515 430 488 q 410 558 420 542 q 385 582 400 574 q 351 589 370 589 q 295 574 319 589 q 254 532 271 559 q 228 470 237 505 q 218 392 218 434 z "},"Œ":{"ha":1168,"x_min":67,"x_max":1091,"o":"m 420 1001 q 503 997 463 1001 q 581 987 544 993 l 581 825 q 504 838 545 832 q 420 843 463 843 q 353 828 383 843 q 300 782 322 812 q 268 705 279 751 q 257 598 257 659 l 257 391 q 268 283 257 330 q 301 207 279 237 q 353 160 323 176 q 421 144 384 144 q 505 150 465 144 q 581 163 545 155 l 581 0 q 504 -9 544 -5 q 421 -14 463 -14 q 277 16 342 -14 q 165 99 212 45 q 93 227 118 153 q 67 391 67 301 l 67 597 q 93 761 67 686 q 165 889 118 835 q 277 972 212 943 q 420 1001 341 1001 m 1091 164 l 1091 0 l 663 0 l 663 164 l 1091 164 m 723 987 l 723 0 l 525 0 l 525 987 l 723 987 m 1034 587 l 1034 428 l 663 428 l 663 587 l 1034 587 m 1090 987 l 1090 823 l 663 823 l 663 987 l 1090 987 z "},"œ":{"ha":1072,"x_min":60,"x_max":1015,"o":"m 764 -14 q 638 14 694 -14 q 543 90 582 41 q 485 204 505 139 q 465 345 465 269 l 465 372 q 484 521 465 453 q 539 641 503 589 q 628 720 575 692 q 747 747 680 748 q 863 724 812 747 q 946 657 913 701 q 997 552 980 614 q 1015 416 1015 491 l 1015 305 l 545 305 l 545 439 l 827 439 l 827 456 q 820 526 827 496 q 794 572 812 555 q 747 589 777 589 q 703 572 721 589 q 675 525 686 555 q 660 455 664 495 q 655 372 655 416 l 655 345 q 662 269 655 304 q 685 204 669 233 q 725 160 701 176 q 785 144 749 144 q 880 160 844 144 q 951 197 916 175 l 1002 71 q 907 13 968 39 q 764 -14 846 -14 m 60 359 l 60 374 q 79 522 60 454 q 135 641 98 590 q 228 719 173 691 q 354 747 282 747 q 481 719 427 747 q 573 641 536 691 q 630 522 611 590 q 649 374 649 454 l 649 359 q 630 211 649 279 q 574 93 611 143 q 482 14 537 42 q 355 -14 427 -14 q 229 14 283 -14 q 136 93 174 42 q 79 211 98 143 q 60 359 60 279 m 250 374 l 250 359 q 255 275 250 314 q 272 208 260 237 q 304 161 283 178 q 355 144 324 144 q 406 161 385 144 q 438 208 426 178 q 454 275 450 237 q 458 359 458 314 l 458 374 q 454 456 458 417 q 437 525 450 495 q 405 572 425 555 q 354 589 385 589 q 303 572 323 589 q 272 525 283 555 q 255 456 260 495 q 250 374 250 417 z "},"ſ":{"ha":342,"x_min":74,"x_max":408,"o":"m 264 0 l 74 0 l 74 798 q 103 939 74 882 q 185 1026 132 996 q 314 1056 239 1056 q 361 1052 338 1056 q 408 1042 385 1048 l 393 891 q 369 896 381 895 q 340 898 357 898 q 298 886 315 898 q 273 852 281 874 q 264 798 264 830 l 264 0 z "},"Ə":{"ha":835,"x_min":47,"x_max":770,"o":"m 408 -14 q 251 18 319 -14 q 138 112 183 51 q 70 258 93 172 q 47 450 47 344 l 47 560 l 625 560 l 625 395 l 245 395 l 245 374 q 253 292 245 330 q 279 225 261 254 q 329 180 298 196 q 408 164 361 164 q 480 185 449 164 q 531 245 511 207 q 562 334 552 284 q 572 442 572 385 l 572 543 q 561 651 572 600 q 525 741 549 702 q 458 801 500 779 q 355 823 416 823 q 227 808 281 823 q 142 781 174 794 l 113 948 q 161 968 123 956 q 253 991 199 981 q 366 1002 307 1002 q 540 968 465 1002 q 667 873 615 935 q 744 728 718 812 q 770 543 770 644 l 770 442 q 742 258 770 342 q 665 113 714 174 q 550 19 616 52 q 408 -14 484 -14 z "},"ƒ":{"ha":458,"x_min":-1,"x_max":446,"o":"m 412 734 l 412 591 l 302 591 l 302 -33 q 276 -177 302 -119 q 201 -266 250 -236 q 85 -296 152 -296 q 42 -294 62 -296 q -1 -285 22 -292 l 8 -130 q 33 -136 16 -133 q 59 -138 50 -138 q 92 -126 81 -138 q 107 -91 102 -115 q 111 -33 111 -67 l 111 591 l 22 591 l 22 734 l 111 734 l 111 798 q 140 939 111 882 q 222 1026 169 996 q 351 1056 275 1056 q 398 1052 375 1056 q 446 1042 421 1048 l 429 890 q 406 895 418 893 q 375 897 393 897 q 335 885 351 897 q 310 852 319 874 q 302 798 302 830 l 302 734 l 412 734 z "},"Ơ":{"ha":844,"x_min":50,"x_max":851,"o":"m 724 1063 l 851 1063 q 827 900 851 967 q 754 798 803 833 q 631 762 706 762 l 631 869 q 687 892 667 869 q 715 959 707 916 q 724 1063 724 1002 m 772 516 l 772 471 q 746 269 772 359 q 671 116 720 178 q 557 20 623 53 q 412 -14 492 -14 q 293 8 349 -14 q 193 70 238 29 q 117 171 149 111 q 68 305 85 230 q 50 471 50 380 l 50 516 q 77 719 50 629 q 152 871 104 808 q 267 968 201 935 q 412 1001 332 1001 q 530 980 475 1001 q 630 917 585 958 q 707 816 675 876 q 755 682 739 757 q 772 516 772 606 m 572 471 l 572 517 q 566 629 572 578 q 545 717 559 679 q 512 781 532 755 q 467 820 492 806 q 412 833 442 833 q 343 812 373 833 q 292 752 313 792 q 261 653 271 712 q 250 517 250 595 l 250 471 q 257 359 250 410 q 277 271 264 309 q 310 207 291 233 q 355 167 330 180 q 412 154 381 154 q 481 175 451 154 q 531 235 511 195 q 562 335 551 275 q 572 471 572 394 z "},"ơ":{"ha":713,"x_min":48,"x_max":707,"o":"m 594 803 l 707 803 q 685 662 707 720 q 615 573 663 604 q 494 542 568 542 l 494 625 q 556 647 535 625 q 586 709 577 669 q 594 803 594 749 m 48 359 l 48 374 q 67 522 48 454 q 124 641 87 590 q 217 719 162 691 q 344 747 272 747 q 471 719 416 747 q 565 641 527 691 q 622 522 602 590 q 641 374 641 454 l 641 359 q 622 211 641 279 q 565 93 602 143 q 472 14 527 42 q 345 -14 416 -14 q 218 14 273 -14 q 124 93 162 42 q 67 211 87 143 q 48 359 48 279 m 238 374 l 238 359 q 243 275 238 314 q 261 207 249 237 q 293 161 273 178 q 345 144 314 144 q 395 161 375 144 q 428 207 416 178 q 445 275 439 237 q 450 359 450 314 l 450 374 q 445 456 450 417 q 428 525 440 495 q 395 572 416 555 q 344 589 374 589 q 293 572 313 589 q 261 525 273 555 q 243 456 249 495 q 238 374 238 417 z "},"Ư":{"ha":869,"x_min":73,"x_max":953,"o":"m 828 1042 l 953 1042 q 930 871 953 942 q 852 763 907 800 q 697 726 796 726 l 697 833 q 786 858 758 833 q 821 930 813 883 q 828 1042 828 977 m 524 987 l 722 987 l 722 336 q 680 144 722 222 q 565 26 638 66 q 397 -14 492 -14 q 229 26 302 -14 q 114 144 155 66 q 73 336 73 222 l 73 987 l 271 987 l 271 336 q 285 231 271 272 q 328 170 300 189 q 397 151 356 151 q 467 170 439 151 q 509 231 494 189 q 524 336 524 272 l 524 987 z "},"ư":{"ha":751,"x_min":66,"x_max":791,"o":"m 680 799 l 791 799 q 769 657 791 714 q 696 571 747 600 q 557 543 646 543 l 557 635 q 639 653 613 635 q 672 707 665 671 q 680 799 680 743 m 425 176 l 425 734 l 616 734 l 616 0 l 437 0 l 425 176 m 447 328 l 500 329 q 486 192 500 255 q 443 83 471 130 q 372 12 415 37 q 271 -14 329 -14 q 188 2 226 -14 q 123 50 151 17 q 81 135 96 83 q 66 259 66 186 l 66 734 l 256 734 l 256 258 q 261 207 256 228 q 276 172 267 185 q 299 152 286 158 q 328 146 312 146 q 399 170 373 146 q 436 234 425 193 q 447 328 447 275 z "},"ȷ":{"ha":372,"x_min":-26,"x_max":286,"o":"m 96 734 l 286 734 l 286 -24 q 258 -173 286 -112 q 180 -265 231 -234 q 59 -296 130 -296 q 16 -294 36 -296 q -26 -285 -4 -292 l -18 -130 q 9 -136 -5 -134 q 38 -138 23 -138 q 69 -125 56 -138 q 89 -86 82 -111 q 96 -24 96 -61 l 96 734 z "},"ə":{"ha":650,"x_min":58,"x_max":606,"o":"m 307 748 q 434 721 378 748 q 528 645 490 694 q 586 531 566 596 q 606 389 606 465 l 606 362 q 587 214 606 282 q 532 94 568 145 q 443 15 496 43 q 325 -13 391 -14 q 209 11 259 -13 q 125 78 159 34 q 74 182 91 121 q 58 318 58 243 l 58 429 l 526 429 l 526 296 l 243 296 l 243 278 q 251 209 243 239 q 277 162 259 179 q 325 145 295 145 q 368 162 351 145 q 396 210 385 180 q 411 279 406 240 q 416 362 416 319 l 416 389 q 409 466 416 429 q 386 530 401 502 q 346 574 370 558 q 287 590 321 590 q 192 575 228 590 q 119 538 155 559 l 69 664 q 163 722 102 695 q 307 748 225 748 z "},"ˆ":{"ha":629,"x_min":81,"x_max":544,"o":"m 366 1042 l 544 853 l 544 845 l 396 845 l 311 942 l 227 845 l 81 845 l 81 854 l 257 1042 l 366 1042 z "},"ˇ":{"ha":598,"x_min":56,"x_max":535,"o":"m 217 1042 l 295 946 l 374 1042 l 535 1042 l 535 1036 l 354 845 l 237 845 l 56 1036 l 56 1042 l 217 1042 z "},"ˉ":{"ha":634,"x_min":114,"x_max":519,"o":"m 519 987 l 519 873 l 114 873 l 114 987 l 519 987 z "},"˘":{"ha":617,"x_min":73,"x_max":542,"o":"m 402 1036 l 542 1036 q 513 931 542 976 q 432 860 484 886 q 307 834 379 834 q 136 890 199 834 q 73 1036 73 947 l 211 1036 q 233 973 211 1000 q 307 946 254 946 q 381 973 359 946 q 402 1036 402 1000 z "},"˙":{"ha":368,"x_min":80,"x_max":281,"o":"m 80 932 q 107 999 80 972 q 181 1025 135 1025 q 254 999 227 1025 q 281 932 281 972 q 254 866 281 892 q 181 840 227 840 q 107 866 135 840 q 80 932 80 892 z "},"˚":{"ha":463,"x_min":81,"x_max":383,"o":"m 81 899 q 101 968 81 937 q 155 1019 121 1000 q 233 1038 189 1038 q 340 997 297 1038 q 383 899 383 956 q 364 830 383 861 q 310 781 345 799 q 233 762 276 762 q 124 802 167 762 q 81 899 81 842 m 159 899 q 179 848 159 869 q 233 827 199 827 q 286 848 267 827 q 306 899 306 869 q 286 950 306 928 q 233 972 267 972 q 179 950 199 972 q 159 899 159 928 z "},"˛":{"ha":395,"x_min":29,"x_max":265,"o":"m 158 41 l 254 0 q 207 -37 225 -19 q 179 -76 189 -56 q 170 -120 170 -96 q 178 -151 170 -139 q 205 -163 186 -163 q 230 -159 219 -163 q 247 -150 240 -155 l 265 -256 q 227 -276 250 -267 q 166 -286 203 -286 q 70 -250 110 -286 q 29 -145 29 -214 q 39 -78 29 -111 q 78 -15 50 -45 q 158 41 106 15 z "},"˜":{"ha":607,"x_min":83,"x_max":525,"o":"m 417 1041 l 525 1034 q 508 943 525 984 q 460 878 491 902 q 389 853 429 853 q 343 862 363 853 q 308 882 324 871 q 274 903 291 894 q 235 911 257 911 q 204 895 216 911 q 191 846 191 878 l 83 854 q 101 944 83 903 q 149 1010 118 985 q 218 1036 179 1036 q 258 1026 239 1036 q 295 1006 277 1017 q 333 985 313 994 q 373 977 352 977 q 404 994 391 977 q 417 1041 417 1010 z "},"˝":{"ha":513,"x_min":36,"x_max":538,"o":"m 251 837 l 372 1041 l 538 1041 l 389 837 l 251 837 m 36 837 l 137 1041 l 302 1041 l 172 837 l 36 837 z "},"˳":{"ha":395,"x_min":90,"x_max":313,"o":"m 90 -156 q 123 -73 90 -106 q 203 -40 155 -40 q 281 -73 250 -40 q 313 -156 313 -106 q 281 -239 313 -206 q 203 -271 250 -271 q 123 -239 155 -271 q 90 -156 90 -206 m 160 -156 q 173 -193 160 -178 q 203 -207 185 -207 q 232 -192 220 -207 q 243 -156 243 -178 q 232 -119 243 -133 q 203 -104 220 -104 q 173 -119 185 -104 q 160 -156 160 -133 z "},"̀":{"ha":0,"x_min":-514,"x_max":-193,"o":"m -307 1042 l -193 832 l -347 832 l -514 1042 l -307 1042 z "},"́":{"ha":0,"x_min":-387,"x_max":-67,"o":"m -387 832 l -275 1042 l -67 1042 l -235 832 l -387 832 z "},"̃":{"ha":0,"x_min":-526,"x_max":-84,"o":"m -192 1041 l -84 1034 q -101 943 -84 984 q -149 878 -118 902 q -220 853 -180 853 q -266 862 -246 853 q -301 882 -285 871 q -335 903 -318 894 q -374 911 -352 911 q -405 895 -393 911 q -418 846 -418 878 l -526 854 q -508 944 -526 903 q -460 1010 -491 985 q -391 1036 -430 1036 q -351 1026 -370 1036 q -314 1006 -332 1017 q -276 985 -296 994 q -236 977 -257 977 q -205 994 -218 977 q -192 1041 -192 1010 z "},"̉":{"ha":0,"x_min":-418,"x_max":-187,"o":"m -267 859 l -409 859 l -418 950 q -377 957 -393 952 q -353 971 -361 962 q -346 995 -346 981 q -351 1018 -346 1008 q -365 1032 -355 1027 q -387 1039 -374 1037 q -416 1041 -400 1041 l -412 1133 q -314 1124 -356 1133 q -243 1098 -271 1115 q -201 1056 -215 1081 q -187 1000 -187 1031 q -212 931 -187 954 q -267 903 -237 909 l -267 859 z "},"̏":{"ha":0,"x_min":-587,"x_max":-62,"o":"m -267 849 l -421 849 l -587 1029 l -402 1029 l -267 849 m -62 849 l -212 849 l -351 1029 l -170 1029 l -62 849 z "},"̣":{"ha":0,"x_min":-517,"x_max":-298,"o":"m -517 -159 q -487 -92 -517 -119 q -407 -65 -457 -65 q -328 -92 -357 -65 q -298 -159 -298 -119 q -328 -227 -298 -199 q -407 -254 -357 -254 q -487 -227 -457 -254 q -517 -159 -517 -199 z "},"΄":{"ha":469,"x_min":149,"x_max":376,"o":"m 149 852 l 198 1086 l 376 1086 l 265 852 l 149 852 z "},"΅":{"ha":688,"x_min":62,"x_max":608,"o":"m 281 963 l 307 1188 l 475 1188 l 374 963 l 281 963 m 62 926 q 87 987 62 962 q 150 1013 112 1013 q 213 987 188 1013 q 238 926 238 962 q 213 865 238 890 q 150 840 188 840 q 87 865 112 840 q 62 926 62 890 m 432 926 q 457 987 432 962 q 520 1013 482 1013 q 583 987 558 1013 q 608 926 608 962 q 583 865 608 890 q 520 840 558 840 q 457 865 482 840 q 432 926 432 890 z "},"·":{"ha":395,"x_min":90,"x_max":299,"o":"m 90 473 q 118 548 90 517 q 194 578 146 578 q 271 548 243 578 q 299 473 299 517 q 271 399 299 429 q 194 368 243 368 q 118 399 146 368 q 90 473 90 429 z "},"Γ":{"ha":680,"x_min":82,"x_max":635,"o":"m 635 987 l 635 823 l 280 823 l 280 0 l 82 0 l 82 987 l 635 987 z "},"Δ":{"ha":890,"x_min":21,"x_max":874,"o":"m 511 905 l 229 0 l 21 0 l 348 987 l 456 987 l 511 905 m 667 0 l 388 910 l 445 987 l 553 987 l 874 0 l 667 0 m 689 164 l 689 0 l 182 0 l 182 164 l 689 164 z "},"∆":{"ha":890,"x_min":21,"x_max":874,"o":"m 511 905 l 229 0 l 21 0 l 348 987 l 456 987 l 511 905 m 667 0 l 388 910 l 445 987 l 553 987 l 874 0 l 667 0 m 689 164 l 689 0 l 182 0 l 182 164 l 689 164 z "},"Θ":{"ha":836,"x_min":56,"x_max":777,"o":"m 519 569 l 519 412 l 323 412 l 323 569 l 519 569 m 777 516 l 777 471 q 750 269 777 359 q 676 116 724 178 q 563 20 629 53 q 416 -14 496 -14 q 298 8 353 -14 q 198 70 243 29 q 121 171 153 111 q 73 305 90 230 q 56 471 56 380 l 56 516 q 82 719 56 629 q 156 871 108 808 q 271 968 204 935 q 416 1001 337 1001 q 535 980 479 1001 q 635 917 590 958 q 712 816 680 876 q 760 682 743 757 q 777 516 777 606 m 577 471 l 577 517 q 570 629 577 578 q 550 717 564 679 q 517 781 536 755 q 472 820 498 806 q 416 833 447 833 q 348 812 377 833 q 297 752 318 792 q 266 653 276 712 q 255 517 255 595 l 255 471 q 262 359 255 410 q 282 271 269 309 q 315 207 296 233 q 360 167 334 180 q 416 154 386 154 q 485 175 455 154 q 535 235 515 195 q 566 335 555 275 q 577 471 577 394 z "},"Λ":{"ha":785,"x_min":16,"x_max":768,"o":"m 414 789 l 229 0 l 16 0 l 289 987 l 431 987 l 414 789 m 553 0 l 368 791 l 352 987 l 493 987 l 768 0 l 553 0 z "},"Ξ":{"ha":693,"x_min":66,"x_max":636,"o":"m 66 0 l 66 164 l 636 164 l 636 0 l 66 0 m 132 420 l 132 578 l 570 578 l 570 420 l 132 420 m 80 823 l 80 987 l 610 987 l 610 823 l 80 823 z "},"Π":{"ha":854,"x_min":81,"x_max":772,"o":"m 772 987 l 772 0 l 574 0 l 574 823 l 280 823 l 280 0 l 81 0 l 81 987 l 772 987 z "},"Σ":{"ha":693,"x_min":56,"x_max":650,"o":"m 650 164 l 650 0 l 132 0 l 132 164 l 650 164 m 640 987 l 640 823 l 147 823 l 147 987 l 640 987 m 505 504 l 505 493 l 211 0 l 56 0 l 56 102 l 295 499 l 56 886 l 56 987 l 211 987 l 505 504 z "},"Φ":{"ha":937,"x_min":53,"x_max":893,"o":"m 551 113 l 394 113 q 256 139 318 113 q 148 214 194 165 q 78 332 102 263 q 53 486 53 401 q 96 691 53 604 q 217 826 140 778 q 393 874 294 874 l 553 874 q 689 847 627 874 q 798 769 752 819 q 868 647 843 718 q 893 488 893 576 q 850 290 893 374 q 729 159 806 205 q 551 113 652 113 m 394 288 l 553 288 q 632 311 599 288 q 682 378 665 334 q 699 488 699 423 q 689 579 699 540 q 660 644 678 618 q 614 684 641 671 q 554 696 587 696 l 393 696 q 316 673 349 696 q 264 603 283 649 q 246 486 246 557 q 256 400 246 437 q 286 338 267 363 q 333 301 306 313 q 394 288 360 288 m 573 987 l 573 0 l 376 0 l 376 987 l 573 987 z "},"Ψ":{"ha":882,"x_min":32,"x_max":847,"o":"m 648 987 l 847 987 l 847 674 q 801 450 847 542 q 673 310 755 358 q 481 262 591 262 l 394 262 q 246 289 313 262 q 132 369 179 316 q 58 498 84 421 q 32 674 32 575 l 32 987 l 230 987 l 230 674 q 241 565 230 611 q 275 488 253 518 q 329 441 297 457 q 403 426 361 426 l 488 426 q 580 453 545 426 q 632 535 615 481 q 648 674 648 590 l 648 987 m 542 987 l 542 0 l 345 0 l 345 987 l 542 987 z "},"Ω":{"ha":817,"x_min":68,"x_max":739,"o":"m 518 526 l 518 586 q 510 694 518 647 q 487 772 502 741 q 451 819 472 803 q 403 834 429 834 q 356 819 377 834 q 319 772 334 803 q 297 694 304 741 q 289 586 289 647 l 289 526 q 295 381 289 443 q 313 276 302 319 q 341 207 324 233 q 381 169 359 180 l 381 70 q 266 115 322 77 q 166 215 210 153 q 95 356 121 277 q 68 526 68 435 l 68 585 q 93 752 68 676 q 161 884 117 829 q 267 970 205 939 q 403 1000 328 1000 q 539 970 477 1000 q 645 884 600 939 q 714 752 690 829 q 739 585 739 676 l 739 526 q 712 356 739 435 q 642 215 686 277 q 543 116 597 154 q 429 70 488 78 l 429 169 q 467 207 450 181 q 495 277 484 233 q 512 382 506 320 q 518 526 518 444 m 429 0 l 429 166 l 724 166 l 724 0 l 429 0 m 81 0 l 81 166 l 381 166 l 381 0 l 81 0 z "},"Ω":{"ha":817,"x_min":68,"x_max":739,"o":"m 518 526 l 518 586 q 510 694 518 647 q 487 772 502 741 q 451 819 472 803 q 403 834 429 834 q 356 819 377 834 q 319 772 334 803 q 297 694 304 741 q 289 586 289 647 l 289 526 q 295 381 289 443 q 313 276 302 319 q 341 207 324 233 q 381 169 359 180 l 381 70 q 266 115 322 77 q 166 215 210 153 q 95 356 121 277 q 68 526 68 435 l 68 585 q 93 752 68 676 q 161 884 117 829 q 267 970 205 939 q 403 1000 328 1000 q 539 970 477 1000 q 645 884 600 939 q 714 752 690 829 q 739 585 739 676 l 739 526 q 712 356 739 435 q 642 215 686 277 q 543 116 597 154 q 429 70 488 78 l 429 169 q 467 207 450 181 q 495 277 484 233 q 512 382 506 320 q 518 526 518 444 m 429 0 l 429 166 l 724 166 l 724 0 l 429 0 m 81 0 l 81 166 l 381 166 l 381 0 l 81 0 z "},"α":{"ha":686,"x_min":51,"x_max":667,"o":"m 51 348 l 51 362 q 66 517 51 447 q 113 639 82 587 q 189 719 144 691 q 294 747 234 747 q 367 729 334 747 q 424 676 399 711 q 464 595 448 642 q 491 491 480 548 q 507 370 501 434 l 507 346 q 485 203 500 269 q 444 89 469 138 q 381 13 419 40 q 292 -14 344 -14 q 189 13 233 -14 q 113 88 144 39 q 66 202 81 136 q 51 348 51 269 m 241 362 l 241 348 q 246 267 241 304 q 262 202 251 230 q 293 160 273 175 q 342 144 312 144 q 390 158 370 144 q 423 196 410 171 q 443 256 435 222 q 454 332 450 290 l 454 380 q 444 465 451 427 q 423 531 436 503 q 390 574 410 559 q 342 589 370 589 q 295 571 314 589 q 263 522 275 553 q 246 450 251 491 q 241 362 241 409 m 445 734 l 610 734 l 610 238 q 612 195 610 212 q 619 167 614 178 q 630 152 624 157 q 644 148 637 148 q 650 149 648 148 q 652 150 652 150 l 667 3 q 630 -11 648 -8 q 591 -14 612 -14 q 527 -2 555 -14 q 476 36 498 10 q 440 100 454 61 q 420 193 425 139 l 420 577 l 445 734 z "},"β":{"ha":731,"x_min":89,"x_max":682,"o":"m 340 545 l 417 545 q 559 512 500 545 q 650 421 618 480 q 682 281 682 363 q 652 121 682 187 q 565 21 622 56 q 428 -14 507 -14 q 335 3 382 -14 q 249 53 288 19 q 185 139 209 86 q 161 267 161 193 l 229 275 q 248 209 229 238 q 301 162 267 179 q 385 144 336 144 q 442 163 418 144 q 479 213 467 182 q 492 283 492 244 q 481 367 492 332 q 446 421 469 402 q 390 439 423 439 l 340 439 l 340 545 m 375 1001 q 521 969 459 1001 q 616 879 583 938 q 650 734 650 819 q 619 608 650 664 q 531 518 587 551 q 399 484 474 484 l 340 484 l 340 583 l 373 583 q 424 599 405 583 q 451 646 442 615 q 460 720 460 677 q 451 780 460 752 q 423 826 441 808 q 375 843 404 843 q 326 825 347 843 q 292 776 304 808 q 279 701 279 745 l 279 -275 l 89 -275 l 89 701 q 128 859 89 791 q 232 964 167 926 q 375 1001 296 1001 z "},"γ":{"ha":631,"x_min":20,"x_max":610,"o":"m 410 60 l 410 -283 l 220 -283 l 220 60 l 410 60 m 298 180 l 412 734 l 610 734 l 407 0 l 280 0 l 298 180 m 219 734 l 340 176 l 351 0 l 225 0 l 20 734 l 219 734 z "},"δ":{"ha":690,"x_min":51,"x_max":645,"o":"m 121 848 q 150 966 121 918 q 232 1041 178 1015 q 361 1067 286 1067 q 434 1059 406 1067 q 506 1036 463 1051 l 507 886 q 452 905 488 894 q 378 917 415 917 q 336 909 353 917 q 310 887 319 901 q 301 852 301 873 q 303 831 301 842 q 313 808 306 820 q 335 784 320 796 q 374 760 349 772 q 524 669 463 724 q 615 539 585 614 q 645 370 645 465 l 645 355 q 625 210 645 277 q 568 93 606 143 q 474 15 530 43 q 349 -14 419 -14 q 221 14 277 -14 q 128 90 166 41 q 70 204 90 138 q 51 346 51 269 l 51 359 q 74 499 51 436 q 137 605 97 562 q 224 662 176 648 l 222 666 q 171 712 194 685 q 135 773 148 739 q 121 848 121 807 m 240 378 l 240 365 q 246 280 240 320 q 266 210 252 240 q 299 161 279 179 q 349 144 320 144 q 398 161 378 144 q 431 210 418 179 q 449 280 444 240 q 455 365 455 320 l 455 378 q 448 448 455 413 q 428 513 441 483 q 394 565 414 544 q 347 593 374 586 q 298 575 319 593 q 265 529 278 558 q 246 460 252 499 q 240 378 240 422 z "},"ε":{"ha":679,"x_min":65,"x_max":633,"o":"m 309 399 l 458 399 l 458 309 l 349 309 q 300 301 322 309 q 267 273 279 293 q 256 223 256 254 q 261 191 256 206 q 278 162 267 175 q 308 142 290 149 q 349 135 326 135 q 401 146 381 135 q 432 177 422 157 q 442 218 442 196 l 633 218 q 609 114 633 157 q 546 42 585 70 q 458 0 507 14 q 359 -14 410 -14 q 243 1 297 -14 q 149 45 189 16 q 87 114 109 73 q 65 208 65 155 q 82 289 65 254 q 131 349 99 325 q 208 386 163 374 q 309 399 253 399 m 458 350 l 309 350 q 216 364 258 350 q 142 404 174 378 q 93 463 111 429 q 76 533 76 496 q 96 625 76 585 q 155 692 117 665 q 245 733 193 719 q 359 747 297 747 q 461 731 414 747 q 545 687 509 716 q 601 617 581 659 q 622 523 622 576 l 433 523 q 422 564 433 547 q 393 590 412 581 q 349 599 374 599 q 302 587 320 599 q 275 556 283 575 q 267 517 267 538 q 272 486 267 500 q 288 461 277 471 q 314 446 299 452 q 349 440 330 440 l 458 440 l 458 350 z "},"ζ":{"ha":619,"x_min":61,"x_max":574,"o":"m 458 987 l 574 987 l 574 876 l 378 585 q 317 488 343 533 q 278 396 292 444 q 264 290 264 349 q 269 237 264 258 q 283 200 274 215 q 306 176 293 186 q 336 158 319 166 l 380 142 q 470 106 431 126 q 532 54 509 87 q 555 -35 555 22 q 533 -118 555 -74 q 480 -200 512 -161 q 414 -264 448 -239 l 318 -188 q 348 -145 338 -165 q 362 -106 358 -124 q 366 -75 366 -87 q 362 -47 367 -59 q 345 -25 357 -35 q 307 -8 332 -16 l 266 5 q 181 44 217 22 q 121 98 144 67 q 87 169 98 129 q 75 259 75 209 q 95 401 75 335 q 150 531 114 467 q 234 667 185 596 l 458 987 m 61 987 l 491 987 l 491 831 l 61 831 l 61 987 z "},"η":{"ha":690,"x_min":68,"x_max":620,"o":"m 258 577 l 258 0 l 68 0 l 68 734 l 245 734 l 258 577 m 222 392 l 182 391 q 199 533 182 468 q 249 646 217 598 q 326 721 281 694 q 423 747 370 747 q 503 733 467 747 q 565 686 538 718 q 606 601 591 654 q 620 469 620 547 l 620 -282 l 430 -282 l 430 469 q 425 524 430 500 q 410 561 420 547 q 385 583 400 576 q 351 589 370 589 q 297 574 321 589 q 256 532 273 559 q 231 470 239 505 q 222 392 222 434 z "},"θ":{"ha":718,"x_min":73,"x_max":646,"o":"m 359 1001 q 453 985 409 1001 q 532 936 497 968 q 593 852 568 903 q 632 733 618 802 q 646 576 646 664 l 646 412 q 632 256 646 326 q 593 137 618 187 q 533 53 568 87 q 454 3 498 19 q 360 -14 410 -14 q 266 3 310 -14 q 186 53 222 19 q 125 137 151 87 q 87 256 100 187 q 73 412 73 326 l 73 576 q 87 733 73 664 q 125 852 100 802 q 185 936 150 903 q 265 985 221 968 q 359 1001 309 1001 m 359 843 q 319 830 337 843 q 289 787 302 817 q 270 713 276 758 q 263 604 263 668 l 263 572 l 456 572 l 456 604 q 451 694 456 656 q 438 762 446 733 q 418 808 431 790 q 392 834 406 825 q 359 843 377 843 m 360 144 q 392 153 378 144 q 419 180 407 161 q 439 227 431 199 q 451 295 447 256 q 456 387 456 334 l 456 421 l 263 421 l 263 387 q 268 295 263 334 q 280 227 272 256 q 301 180 289 199 q 328 153 313 161 q 360 144 342 144 z "},"ι":{"ha":434,"x_min":89,"x_max":383,"o":"m 89 734 l 280 734 l 279 230 q 285 183 279 199 q 304 160 291 166 q 338 154 317 154 q 363 155 351 154 q 383 159 375 157 l 381 11 q 335 -3 360 2 q 275 -8 309 -8 q 177 14 219 -8 q 112 83 135 36 q 89 209 89 131 l 89 734 z "},"λ":{"ha":667,"x_min":12,"x_max":652,"o":"m 330 470 l 217 0 l 12 0 l 236 753 l 364 751 l 330 470 m 181 1048 q 236 1041 212 1048 q 281 1018 261 1033 q 315 981 301 1002 q 338 932 329 959 l 581 220 q 593 184 586 201 q 610 157 600 168 q 634 146 621 146 q 643 147 640 146 q 652 147 647 147 l 652 -8 q 622 -12 638 -11 q 584 -13 606 -13 q 502 5 536 -13 q 444 56 467 22 q 404 139 420 90 l 249 652 l 182 829 q 166 865 176 851 q 143 884 155 879 q 116 890 130 890 q 99 889 107 890 q 81 888 92 889 l 78 1035 q 129 1045 99 1041 q 181 1048 159 1048 z "},"ξ":{"ha":654,"x_min":68,"x_max":609,"o":"m 570 967 l 539 814 q 490 829 510 824 q 454 837 471 835 q 416 840 437 840 q 354 828 378 840 q 319 794 330 816 q 307 744 307 772 q 313 704 307 723 q 333 672 319 686 q 368 651 347 659 q 418 644 389 644 l 507 644 l 507 531 l 416 531 q 295 544 350 531 q 200 584 240 557 q 139 650 161 610 q 117 741 117 689 q 137 850 117 802 q 193 932 156 899 q 280 983 229 965 q 394 1001 332 1001 q 464 997 435 1001 q 518 986 492 994 q 570 967 543 979 m 422 589 l 507 589 l 507 480 l 425 480 q 331 461 368 480 q 277 405 294 442 q 259 311 259 368 q 275 234 259 264 q 318 184 292 203 q 376 154 345 165 l 433 138 q 526 104 486 124 q 587 50 566 84 q 608 -37 609 16 q 587 -120 608 -77 q 534 -203 566 -164 q 468 -267 503 -241 l 370 -191 q 401 -149 391 -169 q 416 -110 412 -128 q 420 -77 420 -92 q 414 -50 420 -62 q 395 -28 408 -38 q 361 -12 382 -18 l 327 2 q 216 46 264 24 q 135 99 168 68 q 85 179 102 130 q 68 304 68 228 q 92 426 68 373 q 161 516 116 479 q 272 571 206 552 q 422 589 338 589 z "},"π":{"ha":789,"x_min":43,"x_max":752,"o":"m 742 734 l 742 585 l 43 585 l 43 734 l 742 734 m 331 734 l 331 0 l 142 0 l 142 734 l 331 734 m 459 734 l 650 734 l 649 230 q 655 183 649 199 q 673 160 661 166 q 707 154 686 154 q 733 155 722 154 q 752 159 745 157 l 751 11 q 704 -3 729 2 q 645 -8 679 -8 q 547 14 589 -8 q 482 83 505 36 q 459 209 459 131 l 459 734 z "},"ρ":{"ha":690,"x_min":72,"x_max":642,"o":"m 72 -282 l 72 392 q 92 535 72 470 q 149 648 111 601 q 239 721 186 695 q 361 747 293 747 q 483 719 430 747 q 571 639 536 691 q 624 517 606 587 q 642 362 642 447 l 642 348 q 626 202 642 269 q 580 87 610 136 q 505 12 550 39 q 402 -14 460 -14 q 306 13 346 -14 q 239 87 266 39 q 196 200 212 135 q 170 340 179 264 q 189 333 173 340 q 219 319 204 326 q 235 312 234 312 q 248 224 237 262 q 285 165 260 186 q 350 144 310 144 q 398 159 379 144 q 429 202 418 174 q 446 267 441 230 q 452 348 452 304 l 452 362 q 447 450 452 409 q 430 522 441 491 q 399 571 418 553 q 351 589 379 589 q 311 572 328 589 q 283 526 294 555 q 267 457 273 496 q 261 374 261 418 l 262 -282 l 72 -282 z "},"ς":{"ha":624,"x_min":43,"x_max":591,"o":"m 333 747 q 469 713 411 747 q 559 615 527 680 q 591 460 591 551 l 413 460 q 406 526 413 496 q 381 572 399 555 q 333 589 363 589 q 284 572 303 589 q 254 524 264 554 q 238 456 243 494 q 233 376 233 418 l 233 357 q 247 258 233 297 q 287 195 260 219 q 359 155 315 172 q 455 117 415 136 q 517 66 494 98 q 541 -23 540 35 q 521 -106 541 -62 q 468 -190 500 -151 q 402 -254 436 -229 l 304 -176 q 334 -134 323 -154 q 349 -96 345 -115 q 353 -63 353 -78 q 347 -33 353 -45 q 329 -12 340 -20 q 300 3 317 -3 q 156 75 213 31 q 71 189 99 119 q 43 357 43 258 l 43 376 q 61 522 43 454 q 116 640 79 589 q 208 719 153 690 q 333 747 262 747 z "},"σ":{"ha":701,"x_min":50,"x_max":673,"o":"m 50 359 l 50 374 q 68 517 50 451 q 125 631 87 583 q 217 707 162 680 q 342 734 272 734 q 368 705 355 726 q 401 661 380 684 q 459 627 422 638 q 540 564 501 606 q 603 466 578 522 q 628 346 628 410 l 628 332 q 610 196 628 259 q 555 86 591 134 q 466 12 519 39 q 344 -14 413 -14 q 217 14 272 -14 q 125 93 163 42 q 68 211 87 143 q 50 359 50 279 m 239 374 l 239 359 q 244 275 239 314 q 261 207 250 237 q 293 160 273 177 q 344 144 313 144 q 390 160 372 144 q 418 207 408 177 q 433 275 429 237 q 437 359 437 314 l 437 374 q 433 451 437 415 q 419 515 429 488 q 390 559 408 543 q 343 576 371 576 q 293 559 313 576 q 261 515 273 543 q 244 451 250 488 q 239 374 239 415 m 673 734 l 673 576 l 343 576 l 343 734 l 673 734 z "},"τ":{"ha":639,"x_min":35,"x_max":604,"o":"m 604 734 l 604 577 l 35 577 l 35 734 l 604 734 m 218 734 l 409 734 l 409 224 q 413 177 409 194 q 428 153 418 160 q 450 146 437 146 q 481 149 470 146 q 505 157 493 153 l 524 8 q 469 -9 494 -5 q 411 -14 443 -14 q 308 12 351 -14 q 242 91 265 38 q 218 225 218 144 l 218 734 z "},"υ":{"ha":669,"x_min":73,"x_max":619,"o":"m 73 734 l 262 734 l 262 281 q 267 216 262 243 q 279 174 271 190 q 297 151 287 157 q 318 144 307 144 q 365 164 345 144 q 399 220 385 185 q 421 297 414 255 q 429 384 429 340 q 412 562 427 474 q 372 734 397 650 l 552 734 q 585 639 570 692 q 610 522 601 586 q 619 384 619 458 q 602 229 619 301 q 550 102 585 157 q 459 16 515 47 q 325 -14 404 -14 q 221 3 267 -14 q 142 57 175 21 q 91 150 109 94 q 73 283 73 206 l 73 734 z "},"φ":{"ha":915,"x_min":35,"x_max":870,"o":"m 357 -324 l 357 545 q 382 648 357 604 q 449 719 407 693 q 545 744 492 744 q 690 712 629 744 q 792 628 752 680 q 851 510 832 575 q 870 379 870 445 q 849 234 870 304 q 781 107 829 163 q 654 19 734 52 q 456 -14 574 -14 q 256 20 337 -14 q 126 113 175 54 q 57 247 78 172 q 35 404 35 323 q 51 541 35 477 q 95 657 66 605 q 159 744 123 709 l 291 640 q 254 568 269 607 q 233 487 240 528 q 225 404 227 445 q 237 301 225 349 q 274 219 248 254 q 345 164 300 184 q 456 144 390 144 q 593 176 545 144 q 661 263 642 209 q 680 379 680 317 q 672 463 680 425 q 651 528 665 500 q 617 571 637 556 q 568 586 596 586 q 549 574 551 586 q 547 551 547 563 l 547 -324 l 357 -324 z "},"ψ":{"ha":913,"x_min":45,"x_max":868,"o":"m 45 734 l 235 734 l 235 398 q 252 276 235 325 q 298 198 269 227 q 367 156 328 169 q 449 144 406 144 q 557 164 513 144 q 628 219 602 184 q 666 301 654 254 q 678 404 678 349 q 661 572 677 489 q 621 734 644 654 l 796 734 q 833 645 817 695 q 859 535 849 595 q 868 404 868 475 q 847 247 868 322 q 780 113 827 172 q 653 20 732 54 q 456 -14 573 -14 q 287 9 363 -14 q 157 83 211 33 q 74 212 103 134 q 45 400 45 291 l 45 734 m 355 734 l 545 734 l 545 -324 l 355 -324 l 355 734 z "},"ω":{"ha":985,"x_min":54,"x_max":932,"o":"m 667 734 l 846 734 q 890 639 870 692 q 921 522 909 586 q 932 384 932 458 q 920 228 932 300 q 878 102 907 156 q 800 17 849 47 q 677 -14 751 -14 q 585 11 626 -14 q 515 81 544 35 q 470 195 486 127 q 454 351 454 263 l 454 573 l 593 573 l 593 334 q 600 245 593 281 q 616 187 606 209 q 641 155 627 165 q 670 144 654 144 q 705 164 691 144 q 727 218 719 184 q 739 295 736 252 q 742 384 742 338 q 720 562 740 474 q 667 734 701 650 m 140 734 l 320 734 q 267 562 287 650 q 245 384 247 474 q 247 312 245 347 q 254 247 249 277 q 267 194 258 217 q 288 157 275 170 q 317 144 300 144 q 346 155 332 144 q 371 187 360 165 q 387 245 381 209 q 393 334 393 281 l 393 573 l 532 573 l 532 351 q 517 195 532 263 q 472 81 501 127 q 402 11 444 35 q 311 -14 361 -14 q 208 6 252 -14 q 135 62 165 26 q 88 148 106 99 q 62 257 70 197 q 54 384 54 317 q 66 522 54 458 q 98 639 78 586 q 140 734 117 692 z "},"ϑ":{"ha":728,"x_min":77,"x_max":711,"o":"m 704 557 l 711 392 q 635 371 677 381 q 555 361 593 361 q 380 406 460 361 q 252 531 300 451 q 204 714 204 610 l 204 730 q 233 875 204 814 q 315 968 262 936 q 436 1001 368 1001 q 527 982 487 1001 q 595 927 566 963 q 639 837 624 890 q 654 716 654 783 l 654 311 q 617 140 654 214 q 516 27 581 67 q 363 -14 450 -14 q 246 11 298 -14 q 156 79 193 35 q 98 182 118 123 q 77 311 77 241 l 77 477 l 258 478 l 258 311 q 272 229 258 265 q 311 172 286 193 q 373 151 337 151 q 416 171 399 151 q 444 226 434 190 q 454 311 454 262 l 454 736 q 453 777 454 760 q 447 805 451 794 q 438 822 444 817 q 427 827 433 827 q 404 818 414 827 q 390 789 395 809 q 385 741 385 770 l 385 723 q 405 626 385 669 q 464 559 426 583 q 555 534 502 534 q 632 542 594 534 q 704 557 671 549 z "},"ϒ":{"ha":728,"x_min":3,"x_max":726,"o":"m 462 476 l 462 0 l 264 0 l 264 476 l 462 476 m 345 483 l 460 840 q 504 935 479 899 q 563 989 530 972 q 638 1006 596 1006 q 685 1000 663 1006 q 726 988 707 995 l 703 833 q 690 834 703 833 q 673 836 677 836 q 651 830 660 836 q 637 813 642 824 q 629 787 631 802 l 454 313 l 330 313 l 345 483 m 269 846 l 387 478 l 397 313 l 271 313 l 98 787 q 91 814 97 804 q 75 830 84 825 q 54 836 66 836 q 37 834 49 836 q 24 833 26 833 l 3 989 q 43 1001 22 996 q 90 1006 64 1006 q 162 992 129 1006 q 222 943 195 978 q 269 846 249 909 z "},"ϖ":{"ha":1002,"x_min":24,"x_max":985,"o":"m 985 734 l 985 595 l 24 595 l 24 734 l 985 734 m 677 734 l 857 734 q 900 639 881 692 q 931 522 920 586 q 943 384 943 458 q 935 257 943 317 q 910 148 928 197 q 865 62 893 99 q 794 6 836 26 q 694 -14 752 -14 q 599 11 642 -14 q 526 81 556 35 q 480 195 496 127 q 464 351 464 263 l 464 470 l 602 470 l 602 334 q 609 245 602 281 q 627 187 616 209 q 654 155 639 165 q 688 144 670 144 q 714 157 703 144 q 733 193 726 170 q 745 247 741 216 q 751 312 749 277 q 753 384 753 347 q 731 562 751 474 q 677 734 711 650 m 146 734 l 326 734 q 273 562 293 650 q 250 384 253 474 q 252 312 250 347 q 258 247 254 277 q 270 194 262 217 q 289 157 277 170 q 315 144 300 144 q 349 155 333 144 q 376 187 364 165 q 395 245 388 209 q 401 334 401 281 l 401 470 l 540 470 l 540 351 q 524 195 540 263 q 477 81 507 127 q 404 11 447 35 q 308 -14 361 -14 q 209 6 251 -14 q 138 62 167 26 q 93 148 110 99 q 67 257 75 197 q 60 384 60 317 q 72 522 60 458 q 103 639 83 586 q 146 734 122 692 z "},"Ђ":{"ha":902,"x_min":26,"x_max":859,"o":"m 337 402 l 337 565 q 403 585 368 576 q 474 601 438 595 q 546 607 511 607 q 711 574 640 607 q 820 473 781 541 q 859 300 859 405 q 843 188 859 243 q 789 87 827 132 q 689 15 752 42 q 533 -12 626 -12 l 532 143 q 606 157 580 143 q 644 194 633 172 q 659 241 656 216 q 663 289 662 267 q 649 370 663 336 q 607 423 635 404 q 536 441 578 441 q 464 437 496 441 q 401 425 432 433 q 337 402 371 416 m 421 987 l 421 0 l 224 0 l 224 987 l 421 987 m 676 987 l 676 823 l 26 823 l 26 987 l 676 987 z "},"Є":{"ha":800,"x_min":56,"x_max":750,"o":"m 490 577 l 490 412 l 161 412 l 161 577 l 490 577 m 551 329 l 749 329 q 703 151 745 229 q 588 30 662 73 q 408 -14 513 -14 q 261 19 327 -14 q 151 113 196 52 q 81 263 105 175 q 56 461 56 351 l 56 525 q 81 722 56 634 q 153 872 106 810 q 264 968 199 935 q 410 1001 330 1001 q 590 956 518 1001 q 702 832 663 911 q 750 652 742 753 l 553 652 q 536 752 549 711 q 493 815 522 793 q 410 836 463 836 q 341 818 371 836 q 293 760 312 799 q 264 663 274 722 q 255 526 255 605 l 255 461 q 260 350 255 399 q 276 263 265 300 q 305 200 287 226 q 349 162 323 175 q 408 150 374 150 q 488 170 458 150 q 533 230 518 190 q 551 329 547 270 z "},"Љ":{"ha":1265,"x_min":35,"x_max":1225,"o":"m 196 987 l 392 987 l 373 490 q 355 296 368 378 q 319 158 342 214 q 262 66 296 101 q 184 16 229 32 q 83 0 139 0 l 35 0 l 35 164 l 58 167 q 105 184 85 170 q 139 226 125 198 q 162 299 153 254 q 177 407 172 343 q 184 555 182 471 l 196 987 m 635 987 l 635 823 l 220 823 l 220 987 l 635 987 m 715 652 l 901 652 q 1074 610 1001 652 q 1186 494 1146 568 q 1225 326 1225 420 q 1203 196 1225 255 q 1138 92 1180 136 q 1036 24 1096 48 q 901 0 976 0 l 581 0 l 581 987 l 779 987 l 779 164 l 901 164 q 971 187 943 164 q 1013 248 998 210 q 1027 328 1027 285 q 1013 406 1027 369 q 971 465 998 442 q 901 488 943 488 l 715 488 l 715 652 z "},"Њ":{"ha":1258,"x_min":82,"x_max":1217,"o":"m 629 572 l 629 407 l 224 407 l 224 572 l 629 572 m 280 987 l 280 0 l 82 0 l 82 987 l 280 987 m 708 646 l 895 646 q 1065 605 993 646 q 1178 490 1138 563 q 1217 324 1217 417 q 1195 194 1217 254 q 1130 92 1173 135 q 1028 24 1088 48 q 895 0 968 0 l 574 0 l 574 987 l 772 987 l 772 165 l 895 165 q 964 187 936 165 q 1006 246 991 210 q 1020 326 1020 283 q 1006 402 1020 366 q 964 459 991 437 q 895 481 936 481 l 708 481 l 708 646 z "},"Ћ":{"ha":922,"x_min":31,"x_max":848,"o":"m 848 1 l 650 1 l 650 304 q 635 404 650 369 q 591 454 621 439 q 514 469 561 469 q 470 466 496 469 q 416 460 444 464 q 364 450 389 456 q 326 437 340 444 l 326 602 q 366 614 341 608 q 417 624 390 620 q 471 630 445 629 q 514 632 496 632 q 690 598 615 632 q 807 491 766 564 q 848 304 848 418 l 848 1 m 412 987 l 412 0 l 214 0 l 214 987 l 412 987 m 664 987 l 664 823 l 31 823 l 31 987 l 664 987 z "},"Џ":{"ha":845,"x_min":71,"x_max":762,"o":"m 71 0 l 71 987 l 269 987 l 269 164 l 564 164 l 564 987 l 762 987 l 762 0 l 71 0 m 525 161 l 525 -244 l 326 -244 l 326 161 l 525 161 z "},"Б":{"ha":758,"x_min":79,"x_max":724,"o":"m 632 987 l 632 823 l 277 823 l 277 0 l 79 0 l 79 987 l 632 987 m 213 632 l 401 632 q 572 593 500 632 q 685 484 645 555 q 724 319 724 414 q 702 190 724 248 q 636 89 679 132 q 535 23 594 46 q 401 0 475 0 l 79 0 l 79 987 l 278 987 l 278 164 l 401 164 q 470 185 443 164 q 512 242 498 207 q 526 321 526 278 q 512 395 526 362 q 470 448 498 429 q 401 467 443 467 l 213 467 l 213 632 z "},"Д":{"ha":911,"x_min":21,"x_max":888,"o":"m 744 164 l 744 0 l 162 0 l 162 164 l 744 164 m 218 164 l 218 -243 l 32 -243 l 21 164 l 218 164 m 888 164 l 870 -243 l 688 -243 l 688 164 l 888 164 m 642 987 l 642 823 l 243 823 l 243 987 l 642 987 m 785 987 l 785 0 l 587 0 l 587 987 l 785 987 m 218 987 l 417 987 l 393 583 q 375 407 387 483 q 344 273 362 330 q 304 174 326 216 q 258 101 283 132 q 208 45 234 70 q 157 0 182 21 l 49 0 l 49 164 l 87 164 q 121 208 104 180 q 153 283 138 236 q 178 404 167 330 q 195 583 189 477 l 218 987 z "},"Ж":{"ha":1224,"x_min":23,"x_max":1213,"o":"m 347 403 l 34 987 l 280 987 l 441 590 l 594 590 l 566 403 l 347 403 m 439 436 l 269 0 l 23 0 l 279 556 l 439 436 m 720 987 l 720 0 l 523 0 l 523 987 l 720 987 m 1201 987 l 894 403 l 677 403 l 649 590 l 800 590 l 957 987 l 1201 987 m 966 0 l 802 436 l 962 556 l 1213 0 l 966 0 z "},"З":{"ha":751,"x_min":49,"x_max":687,"o":"m 404 473 l 273 473 l 273 583 l 374 583 q 433 600 410 583 q 466 646 455 616 q 477 716 477 675 q 464 776 477 749 q 427 820 452 803 q 362 836 402 836 q 309 822 333 836 q 272 783 286 808 q 258 720 258 757 l 60 720 q 84 838 60 786 q 151 926 109 890 q 247 981 193 962 q 362 1000 302 1000 q 491 982 434 1000 q 589 929 548 964 q 652 841 630 894 q 674 720 674 789 q 654 624 674 669 q 599 545 635 579 q 513 492 563 511 q 404 473 463 473 m 273 533 l 404 533 q 523 516 471 533 q 612 467 575 499 q 668 386 648 434 q 687 277 687 338 q 663 154 687 208 q 595 62 639 100 q 493 6 552 25 q 362 -13 434 -13 q 250 4 306 -13 q 149 55 194 20 q 76 144 103 90 q 49 274 49 198 l 248 274 q 262 212 248 240 q 303 167 277 184 q 362 151 329 151 q 431 168 403 151 q 474 214 459 184 q 489 279 489 243 q 482 346 489 319 q 460 391 475 374 q 424 416 445 408 q 374 425 402 425 l 273 425 l 273 533 z "},"И":{"ha":842,"x_min":73,"x_max":763,"o":"m 266 363 l 574 987 l 763 987 l 763 0 l 571 0 l 571 617 l 265 0 l 73 0 l 73 987 l 266 987 l 266 363 z "},"Л":{"ha":853,"x_min":38,"x_max":771,"o":"m 627 987 l 627 823 l 222 823 l 222 987 l 627 987 m 771 987 l 771 0 l 574 0 l 574 987 l 771 987 m 198 987 l 395 987 l 375 490 q 358 296 372 378 q 321 158 344 214 q 264 66 298 101 q 185 16 231 32 q 85 0 140 0 l 38 0 l 38 164 l 60 167 q 107 184 87 170 q 142 226 127 198 q 165 299 156 254 q 179 407 174 343 q 186 555 184 471 l 198 987 z "},"У":{"ha":764,"x_min":31,"x_max":739,"o":"m 336 360 l 526 987 l 739 987 l 467 193 q 432 114 451 152 q 386 47 412 77 q 322 2 359 18 q 233 -14 285 -14 q 202 -14 221 -14 q 172 -12 184 -13 l 169 153 q 191 151 176 151 q 213 150 207 150 q 261 161 245 150 q 287 193 278 172 q 303 243 296 214 l 336 360 m 243 987 l 404 511 l 464 275 l 317 273 l 31 987 l 243 987 z "},"Ф":{"ha":1002,"x_min":56,"x_max":951,"o":"m 399 899 l 608 899 q 743 871 681 899 q 852 788 806 842 q 925 658 899 734 q 951 488 951 582 q 925 323 951 397 q 852 196 899 249 q 743 115 806 143 q 608 86 681 86 l 399 86 q 264 114 327 86 q 155 195 202 142 q 82 322 108 248 q 56 487 56 395 q 82 657 56 581 q 155 787 108 733 q 264 870 202 841 q 399 899 327 899 m 399 730 q 318 703 353 730 q 262 621 282 675 q 243 487 243 567 q 254 386 243 429 q 287 314 266 343 q 337 270 308 285 q 399 255 366 255 l 610 255 q 691 282 656 255 q 745 361 726 309 q 764 488 764 412 q 753 593 764 548 q 721 669 742 639 q 672 715 701 699 q 610 730 644 730 l 399 730 m 600 1028 l 600 -41 l 410 -41 l 410 1028 l 600 1028 z "},"Ц":{"ha":926,"x_min":73,"x_max":884,"o":"m 884 163 l 870 -238 l 686 -238 l 686 0 l 621 0 l 621 163 l 884 163 m 73 0 l 73 987 l 271 987 l 271 164 l 565 164 l 565 987 l 764 987 l 764 0 l 73 0 z "},"Ч":{"ha":850,"x_min":87,"x_max":767,"o":"m 87 987 l 284 987 l 284 684 q 299 584 284 619 q 343 533 313 548 q 420 519 374 519 q 463 521 437 519 q 517 528 489 524 q 569 537 545 532 q 609 550 594 543 l 609 386 q 569 373 594 379 q 517 363 545 368 q 464 357 490 359 q 420 355 437 355 q 244 390 319 355 q 128 497 169 424 q 87 684 87 570 l 87 987 m 570 987 l 767 987 l 767 0 l 570 0 l 570 987 z "},"Ш":{"ha":1156,"x_min":80,"x_max":1076,"o":"m 80 987 l 279 987 l 279 164 l 481 164 l 481 987 l 678 987 l 678 164 l 878 164 l 878 987 l 1076 987 l 1076 0 l 80 0 l 80 987 z "},"Щ":{"ha":1242,"x_min":80,"x_max":1192,"o":"m 1192 157 l 1179 -237 l 1002 -237 l 1002 1 l 931 1 l 931 157 l 1192 157 m 80 987 l 279 987 l 279 164 l 481 164 l 481 987 l 678 987 l 678 164 l 878 164 l 878 987 l 1076 987 l 1076 0 l 80 0 l 80 987 z "},"Ъ":{"ha":923,"x_min":35,"x_max":888,"o":"m 35 829 l 35 987 l 319 987 l 319 829 l 35 829 m 377 632 l 564 632 q 736 593 663 632 q 849 484 809 555 q 888 319 888 414 q 866 190 888 248 q 801 89 843 132 q 699 23 758 46 q 564 0 639 0 l 243 0 l 243 987 l 443 987 l 443 164 l 564 164 q 633 185 606 164 q 676 242 661 207 q 690 321 690 278 q 676 395 690 362 q 633 448 661 429 q 564 467 606 467 l 377 467 l 377 632 z "},"Ы":{"ha":1058,"x_min":83,"x_max":977,"o":"m 216 632 l 404 632 q 575 593 503 632 q 687 484 648 555 q 726 319 726 414 q 704 190 726 248 q 640 89 682 132 q 537 23 597 46 q 404 0 477 0 l 83 0 l 83 987 l 281 987 l 281 164 l 404 164 q 473 185 446 164 q 515 242 501 207 q 529 321 529 278 q 515 395 529 362 q 473 448 501 429 q 404 467 446 467 l 216 467 l 216 632 m 977 987 l 977 0 l 779 0 l 779 987 l 977 987 z "},"Ь":{"ha":764,"x_min":79,"x_max":724,"o":"m 213 632 l 401 632 q 572 593 500 632 q 685 484 645 555 q 724 319 724 414 q 702 190 724 248 q 636 89 679 132 q 535 23 594 46 q 401 0 475 0 l 79 0 l 79 987 l 278 987 l 278 164 l 401 164 q 470 185 443 164 q 512 242 498 207 q 526 321 526 278 q 512 395 526 362 q 470 448 498 429 q 401 467 443 467 l 213 467 l 213 632 z "},"Э":{"ha":787,"x_min":41,"x_max":733,"o":"m 640 576 l 640 411 l 293 411 l 293 576 l 640 576 m 42 329 l 239 329 q 258 230 243 270 q 303 170 273 190 q 383 150 334 150 q 455 170 426 150 q 502 229 484 190 q 528 326 520 268 q 536 461 536 385 l 536 526 q 530 639 536 589 q 512 726 524 689 q 481 788 500 764 q 437 824 463 812 q 380 836 412 836 q 299 815 329 836 q 255 752 269 793 q 239 652 241 711 l 41 652 q 89 832 49 753 q 200 956 128 911 q 380 1001 273 1001 q 526 968 461 1001 q 637 872 591 935 q 709 722 684 810 q 733 525 733 634 l 733 461 q 709 263 733 351 q 640 113 686 175 q 530 19 595 52 q 383 -14 465 -14 q 203 30 277 -14 q 89 151 130 73 q 42 329 47 229 z "},"Ю":{"ha":1133,"x_min":84,"x_max":1072,"o":"m 282 987 l 282 0 l 84 0 l 84 987 l 282 987 m 433 551 l 433 394 l 202 394 l 202 551 l 433 551 m 1072 570 l 1072 406 q 1047 223 1072 301 q 975 92 1021 144 q 863 13 928 39 q 718 -14 798 -14 q 573 13 639 -14 q 460 92 508 39 q 388 223 413 144 q 362 406 362 301 l 362 570 q 387 758 362 677 q 460 892 412 838 q 572 974 507 946 q 716 1001 637 1001 q 861 974 796 1001 q 974 892 926 946 q 1047 758 1021 838 q 1072 570 1072 677 m 875 406 l 875 572 q 864 692 875 642 q 834 774 854 742 q 784 821 814 806 q 716 836 755 836 q 649 821 678 836 q 599 774 619 806 q 569 692 579 742 q 559 572 559 642 l 559 406 q 570 290 559 338 q 600 211 580 241 q 650 166 621 180 q 718 151 680 151 q 786 166 756 151 q 835 211 815 180 q 865 290 854 241 q 875 406 875 338 z "},"Я":{"ha":726,"x_min":-16,"x_max":649,"o":"m 515 356 l 313 356 l 245 385 q 91 496 144 422 q 37 684 37 569 q 75 850 37 783 q 184 953 113 918 q 351 987 254 987 l 649 987 l 649 0 l 450 0 l 450 823 l 351 823 q 262 782 290 823 q 235 667 235 742 q 248 578 235 612 q 289 527 262 543 q 357 510 315 510 l 514 510 l 515 356 m 378 439 l 197 0 l -16 0 l 165 439 l 378 439 z "},"б":{"ha":696,"x_min":60,"x_max":649,"o":"m 444 1057 l 596 1057 q 585 963 596 1002 q 548 896 574 924 q 479 848 522 868 q 373 814 437 829 q 294 777 328 804 q 240 705 261 750 q 211 591 219 660 q 207 426 203 522 l 207 395 l 60 373 l 60 403 q 80 635 60 536 q 137 802 100 734 q 225 910 174 870 q 339 967 277 951 q 398 988 375 978 q 432 1015 421 998 q 444 1057 444 1031 m 392 693 q 503 667 455 693 q 583 595 551 642 q 632 487 616 549 q 649 350 649 425 l 649 336 q 630 197 649 260 q 574 85 611 133 q 481 12 536 38 q 355 -14 427 -14 q 229 14 283 -14 q 136 94 174 43 q 79 214 98 145 q 60 366 60 283 l 60 380 q 70 402 60 391 q 94 427 80 412 q 118 463 109 441 q 196 590 155 538 q 286 667 237 642 q 392 693 334 693 m 355 535 q 292 510 315 535 q 259 442 269 484 q 250 350 250 399 l 250 336 q 255 261 250 296 q 272 200 260 227 q 304 158 283 173 q 355 144 324 144 q 406 158 385 144 q 437 200 426 173 q 454 261 449 227 q 459 336 459 296 l 459 350 q 454 421 459 388 q 437 480 449 454 q 406 520 426 506 q 355 535 385 535 z "},"в":{"ha":692,"x_min":83,"x_max":646,"o":"m 388 304 l 203 304 l 202 437 l 352 437 q 394 444 378 437 q 417 466 410 452 q 424 503 424 481 q 419 537 424 523 q 405 560 414 551 q 381 573 396 569 q 349 577 367 577 l 273 577 l 273 0 l 83 0 l 83 734 l 349 734 q 458 721 410 734 q 543 684 507 709 q 596 620 578 659 q 614 529 614 581 q 601 466 614 495 q 562 413 587 436 q 497 375 536 390 q 408 357 458 361 l 388 304 m 388 0 l 155 0 l 223 157 l 388 157 q 428 165 413 157 q 450 190 443 173 q 456 229 456 206 q 451 269 456 252 q 430 295 445 286 q 388 304 416 304 l 235 304 l 236 437 l 406 437 l 450 383 q 562 354 519 378 q 626 292 606 330 q 646 210 646 254 q 629 118 646 157 q 580 53 612 79 q 499 13 548 26 q 388 0 450 0 z "},"г":{"ha":515,"x_min":71,"x_max":500,"o":"m 500 734 l 500 576 l 260 576 l 260 0 l 71 0 l 71 734 l 500 734 z "},"д":{"ha":784,"x_min":30,"x_max":755,"o":"m 182 734 l 372 734 l 369 490 q 345 286 367 371 q 287 142 323 200 q 203 51 251 85 q 102 0 156 16 l 68 0 l 66 156 l 85 158 q 136 229 117 195 q 163 301 155 264 q 175 385 172 339 q 179 490 178 431 l 182 734 m 232 734 l 659 734 l 659 0 l 470 0 l 470 572 l 232 572 l 232 734 m 30 158 l 755 158 l 755 -221 l 566 -221 l 566 0 l 225 0 l 225 -221 l 30 -221 l 30 158 z "},"ж":{"ha":1043,"x_min":33,"x_max":1017,"o":"m 285 273 l 33 734 l 269 734 l 375 460 l 496 460 l 472 273 l 285 273 m 376 307 l 267 0 l 38 0 l 222 403 l 376 307 m 619 734 l 619 0 l 429 0 l 429 734 l 619 734 m 1017 734 l 764 273 l 578 273 l 553 460 l 674 460 l 782 734 l 1017 734 m 783 0 l 672 307 l 833 403 l 1017 0 l 783 0 z "},"з":{"ha":629,"x_min":48,"x_max":584,"o":"m 359 350 l 229 350 l 229 439 l 320 439 q 356 449 342 439 q 377 476 370 458 q 383 517 383 494 q 378 556 383 538 q 359 587 372 575 q 321 599 346 599 q 282 590 298 599 q 257 564 265 581 q 248 523 248 547 l 58 523 q 92 643 58 593 q 184 720 126 693 q 311 747 241 747 q 418 733 370 747 q 501 692 467 719 q 554 625 536 665 q 572 533 572 585 q 557 463 572 496 q 515 404 543 429 q 448 364 487 378 q 359 350 408 350 m 229 399 l 359 399 q 455 386 414 399 q 526 349 497 374 q 569 289 554 325 q 584 208 584 254 q 564 114 584 155 q 507 45 544 73 q 420 1 470 16 q 311 -14 371 -14 q 185 11 245 -14 q 87 86 125 35 q 48 218 48 138 l 239 218 q 247 177 239 196 q 274 145 256 157 q 321 134 292 134 q 364 147 349 134 q 387 180 380 160 q 393 223 393 201 q 385 274 393 254 q 361 303 377 294 q 320 312 345 312 l 229 312 l 229 399 z "},"и":{"ha":694,"x_min":71,"x_max":624,"o":"m 258 331 l 441 734 l 624 734 l 624 0 l 436 0 l 436 401 l 254 0 l 71 0 l 71 734 l 258 734 l 258 331 z "},"к":{"ha":700,"x_min":84,"x_max":689,"o":"m 275 734 l 275 0 l 84 0 l 84 734 l 275 734 m 673 734 l 408 271 l 240 271 l 216 458 l 321 458 l 434 734 l 673 734 m 437 0 l 309 307 l 475 403 l 689 0 l 437 0 z "},"л":{"ha":695,"x_min":24,"x_max":625,"o":"m 483 734 l 483 576 l 186 576 l 186 734 l 483 734 m 625 734 l 625 0 l 435 0 l 435 734 l 625 734 m 139 734 l 326 734 l 308 361 q 293 222 305 283 q 262 120 281 162 q 216 51 243 77 q 156 12 190 24 q 82 0 122 0 l 25 0 l 24 159 l 45 162 q 75 174 62 164 q 98 204 88 184 q 113 254 107 224 q 122 326 119 285 q 127 421 125 368 l 139 734 z "},"м":{"ha":922,"x_min":83,"x_max":832,"o":"m 455 263 l 593 734 l 749 734 l 524 0 l 385 0 l 158 734 l 318 734 l 455 263 m 267 734 l 267 0 l 83 0 l 83 734 l 267 734 m 648 0 l 648 734 l 832 734 l 832 0 l 648 0 z "},"н":{"ha":693,"x_min":71,"x_max":622,"o":"m 492 439 l 492 282 l 199 282 l 199 439 l 492 439 m 261 734 l 261 0 l 71 0 l 71 734 l 261 734 m 622 734 l 622 0 l 432 0 l 432 734 l 622 734 z "},"п":{"ha":694,"x_min":71,"x_max":624,"o":"m 483 734 l 483 576 l 210 576 l 210 734 l 483 734 m 261 734 l 261 0 l 71 0 l 71 734 l 261 734 m 624 734 l 624 0 l 433 0 l 433 734 l 624 734 z "},"т":{"ha":630,"x_min":31,"x_max":597,"o":"m 409 734 l 409 0 l 218 0 l 218 734 l 409 734 m 597 734 l 597 577 l 31 577 l 31 734 l 597 734 z "},"ф":{"ha":882,"x_min":47,"x_max":834,"o":"m 834 362 l 834 348 q 820 202 834 269 q 776 88 805 136 q 705 13 747 39 q 606 -14 662 -14 q 511 11 551 -14 q 444 79 471 35 q 400 182 417 123 q 376 308 384 240 l 376 403 q 400 538 384 476 q 443 648 416 601 q 510 721 470 695 q 606 747 550 747 q 687 729 650 747 q 751 676 723 711 q 797 594 779 642 q 825 488 815 547 q 834 362 834 429 m 644 348 l 644 362 q 641 434 644 399 q 632 496 638 468 q 614 545 625 525 q 589 577 604 566 q 554 589 574 589 q 490 570 515 589 q 453 515 465 551 q 438 431 440 479 l 438 280 q 452 207 440 237 q 489 161 464 177 q 555 144 513 144 q 598 160 581 144 q 625 202 615 175 q 639 267 635 230 q 644 348 644 304 m 47 348 l 47 362 q 56 488 47 429 q 84 594 66 547 q 130 676 103 642 q 194 729 157 711 q 275 747 231 747 q 370 721 330 747 q 436 648 410 695 q 479 538 463 601 q 504 403 496 476 l 504 313 q 479 184 495 243 q 436 80 463 125 q 369 11 409 36 q 275 -14 330 -14 q 177 13 220 -14 q 105 88 134 39 q 61 202 76 136 q 47 348 47 269 m 237 362 l 237 348 q 241 267 237 304 q 255 203 245 230 q 281 160 264 176 q 325 145 298 145 q 391 162 366 145 q 428 210 416 179 q 441 285 440 241 l 441 431 q 427 515 439 479 q 390 570 415 551 q 326 589 365 589 q 283 571 300 589 q 255 522 265 553 q 241 450 245 491 q 237 362 237 409 m 344 -282 l 344 1042 l 534 1042 l 534 -282 l 344 -282 z "},"ц":{"ha":752,"x_min":71,"x_max":724,"o":"m 71 0 l 71 734 l 261 734 l 261 158 l 433 158 l 433 734 l 624 734 l 624 0 l 71 0 m 724 157 l 711 -218 l 534 -218 l 534 0 l 464 0 l 464 157 l 724 157 z "},"ч":{"ha":681,"x_min":60,"x_max":610,"o":"m 610 734 l 610 0 l 420 0 l 420 734 l 610 734 m 521 421 l 521 263 q 473 242 502 252 q 413 227 444 233 q 352 221 381 221 q 198 251 263 221 q 96 342 132 280 q 60 502 60 405 l 60 734 l 250 734 l 250 502 q 261 427 250 454 q 295 390 273 400 q 352 379 317 379 q 407 384 381 379 q 460 399 433 389 q 521 421 487 408 z "},"ш":{"ha":1004,"x_min":71,"x_max":922,"o":"m 71 734 l 261 734 l 261 158 l 401 158 l 401 734 l 591 734 l 591 158 l 732 158 l 732 734 l 922 734 l 922 0 l 71 0 l 71 734 z "},"щ":{"ha":1105,"x_min":68,"x_max":1055,"o":"m 1055 157 l 1040 -218 l 865 -218 l 865 0 l 794 0 l 794 157 l 1055 157 m 68 734 l 258 734 l 258 158 l 399 158 l 399 734 l 589 734 l 589 158 l 730 158 l 730 734 l 920 734 l 920 0 l 68 0 l 68 734 z "},"ъ":{"ha":796,"x_min":32,"x_max":768,"o":"m 368 734 l 368 575 l 32 575 l 32 734 l 368 734 m 323 519 l 494 519 q 642 487 580 519 q 736 395 703 454 q 768 258 768 336 q 750 155 768 202 q 695 73 731 108 q 609 19 660 38 q 494 0 558 0 l 201 0 l 201 734 l 391 734 l 391 157 l 494 157 q 543 172 524 157 q 570 209 562 186 q 578 258 578 231 q 570 310 578 287 q 543 348 562 334 q 494 361 524 361 l 323 361 l 323 519 z "},"ы":{"ha":1016,"x_min":83,"x_max":924,"o":"m 204 519 l 375 519 q 523 487 462 519 q 617 395 585 454 q 649 258 649 336 q 630 155 649 202 q 577 73 612 108 q 491 19 542 38 q 375 0 440 0 l 83 0 l 83 734 l 274 734 l 274 157 l 375 157 q 424 172 406 157 q 451 209 443 186 q 460 258 460 231 q 451 310 460 287 q 424 348 443 334 q 375 361 406 361 l 204 361 l 204 519 m 924 734 l 924 0 l 734 0 l 734 734 l 924 734 z "},"ь":{"ha":685,"x_min":83,"x_max":649,"o":"m 204 519 l 375 519 q 523 487 462 519 q 617 395 585 454 q 649 258 649 336 q 630 155 649 202 q 577 73 612 108 q 491 19 542 38 q 375 0 440 0 l 83 0 l 83 734 l 274 734 l 274 157 l 375 157 q 424 172 406 157 q 451 209 443 186 q 460 258 460 231 q 451 310 460 287 q 424 348 443 334 q 375 361 406 361 l 204 361 l 204 519 z "},"э":{"ha":631,"x_min":43,"x_max":591,"o":"m 300 589 q 257 576 275 589 q 231 538 239 562 q 222 480 222 513 l 43 480 q 77 618 43 558 q 169 713 111 678 q 300 747 227 747 q 427 719 372 747 q 518 640 481 690 q 573 522 555 589 q 591 376 591 454 l 591 357 q 573 212 591 279 q 518 94 554 144 q 428 15 481 43 q 302 -14 374 -14 q 166 21 224 -14 q 76 121 108 56 q 43 273 43 185 l 222 273 q 230 209 222 238 q 256 162 238 179 q 302 144 274 144 q 351 162 332 144 q 381 210 370 180 q 396 277 392 239 q 401 357 401 315 l 401 376 q 396 457 401 419 q 381 525 391 495 q 351 572 370 555 q 300 589 331 589 m 464 430 l 464 309 l 263 309 l 263 430 l 464 430 z "},"ю":{"ha":975,"x_min":85,"x_max":929,"o":"m 467 453 l 467 294 l 115 294 l 115 453 l 467 453 m 276 734 l 276 0 l 85 0 l 85 734 l 276 734 m 337 359 l 337 374 q 356 522 337 454 q 413 641 376 590 q 506 719 451 691 q 632 747 560 747 q 760 719 705 747 q 853 641 815 691 q 910 522 890 590 q 929 374 929 454 l 929 359 q 910 211 929 279 q 853 93 890 143 q 760 14 815 42 q 633 -14 705 -14 q 506 14 562 -14 q 413 93 451 42 q 356 211 376 143 q 337 359 337 279 m 527 374 l 527 359 q 532 275 527 314 q 550 207 538 237 q 582 161 562 178 q 633 144 603 144 q 684 161 664 144 q 716 207 704 178 q 733 275 728 237 q 739 359 739 314 l 739 374 q 733 456 739 417 q 716 525 728 495 q 684 572 705 555 q 632 589 663 589 q 582 572 602 589 q 550 525 562 555 q 532 456 538 495 q 527 374 527 417 z "},"я":{"ha":685,"x_min":26,"x_max":601,"o":"m 200 368 l 392 368 l 218 0 l 26 0 l 200 368 m 321 734 l 601 734 l 601 0 l 411 0 l 411 577 l 321 577 q 275 563 294 577 q 247 527 256 549 q 238 482 238 505 q 247 439 238 460 q 275 404 256 418 q 322 391 294 391 l 479 391 l 479 254 l 322 254 q 208 271 258 254 q 121 320 157 289 q 66 395 85 352 q 47 489 47 438 q 66 587 47 542 q 121 664 85 631 q 207 715 157 697 q 321 734 258 734 z "},"ђ":{"ha":684,"x_min":-19,"x_max":615,"o":"m 425 320 l 615 320 l 615 -24 q 588 -173 615 -112 q 510 -265 561 -234 q 389 -296 459 -296 q 347 -294 367 -296 q 305 -285 327 -292 l 313 -130 q 340 -136 326 -134 q 368 -138 353 -138 q 399 -125 387 -138 q 418 -86 412 -111 q 425 -24 425 -61 l 425 320 m 256 1042 l 256 0 l 66 0 l 66 1042 l 256 1042 m 229 392 l 177 391 q 193 533 177 468 q 239 646 208 598 q 314 721 270 694 q 410 747 357 747 q 493 732 456 747 q 558 683 530 716 q 600 595 585 650 q 615 463 615 541 l 615 0 l 425 0 l 425 465 q 415 539 425 512 q 387 577 406 566 q 339 589 368 589 q 287 574 309 589 q 253 532 266 559 q 234 469 240 505 q 229 392 229 433 m 393 930 l 393 806 l -19 806 l -19 930 l 393 930 z "},"є":{"ha":631,"x_min":45,"x_max":597,"o":"m 380 418 l 380 299 l 170 299 l 170 418 l 380 418 m 332 144 q 379 158 360 144 q 409 196 398 172 q 419 254 419 221 l 597 254 q 562 116 597 176 q 468 21 527 56 q 336 -14 410 -14 q 208 15 262 -14 q 117 94 153 43 q 63 212 81 144 q 45 357 45 279 l 45 376 q 63 522 45 454 q 117 640 81 589 q 208 719 153 690 q 336 747 262 747 q 473 712 414 747 q 564 613 532 677 q 597 460 597 549 l 419 460 q 410 525 419 496 q 382 572 401 554 q 332 589 363 589 q 280 572 300 589 q 251 524 261 554 q 239 456 241 494 q 236 376 236 418 l 236 357 q 239 277 236 315 q 251 208 241 238 q 281 161 261 178 q 332 144 300 144 z "},"љ":{"ha":1029,"x_min":24,"x_max":994,"o":"m 140 734 l 326 734 l 309 361 q 293 222 304 283 q 262 120 281 162 q 217 51 243 77 q 157 12 191 24 q 83 0 123 0 l 26 0 l 24 159 l 46 162 q 76 174 63 164 q 97 204 88 184 q 113 254 106 224 q 123 326 119 285 q 128 421 127 368 l 140 734 m 476 734 l 476 576 l 186 576 l 186 734 l 476 734 m 549 502 l 720 502 q 867 470 806 502 q 961 382 929 439 q 994 252 994 326 q 975 151 994 197 q 921 71 956 104 q 835 19 886 37 q 720 0 784 0 l 428 0 l 428 734 l 618 734 l 618 157 l 720 157 q 769 170 750 157 q 796 206 788 184 q 804 254 804 228 q 796 299 804 279 q 769 332 788 320 q 720 345 750 345 l 549 345 l 549 502 z "},"њ":{"ha":1032,"x_min":71,"x_max":999,"o":"m 492 450 l 492 294 l 199 294 l 199 450 l 492 450 m 261 734 l 261 0 l 71 0 l 71 734 l 261 734 m 553 502 l 724 502 q 872 470 811 502 q 966 382 934 439 q 999 252 999 326 q 980 151 999 197 q 926 71 962 104 q 839 19 890 37 q 724 0 788 0 l 432 0 l 432 734 l 622 734 l 622 157 l 724 157 q 773 170 755 157 q 800 206 792 184 q 808 254 808 228 q 800 299 808 279 q 773 332 792 320 q 724 345 755 345 l 553 345 l 553 502 z "},"ћ":{"ha":690,"x_min":-9,"x_max":615,"o":"m 256 1042 l 256 0 l 66 0 l 66 1042 l 256 1042 m 229 392 l 177 391 q 193 533 177 468 q 239 646 208 598 q 314 721 270 694 q 410 747 357 747 q 493 732 456 747 q 558 683 530 716 q 600 595 585 650 q 615 463 615 541 l 615 0 l 425 0 l 425 465 q 415 539 425 512 q 387 577 406 566 q 339 589 368 589 q 287 574 309 589 q 253 532 266 559 q 234 469 240 505 q 229 392 229 433 m 402 939 l 402 815 l -9 815 l -9 939 l 402 939 z "},"џ":{"ha":694,"x_min":71,"x_max":624,"o":"m 252 158 l 442 158 l 442 -243 l 252 -243 l 252 158 m 71 734 l 261 734 l 261 158 l 433 158 l 433 734 l 624 734 l 624 0 l 71 0 l 71 734 z "},"Ѡ":{"ha":1143,"x_min":75,"x_max":1064,"o":"m 470 987 l 629 987 l 629 315 q 610 173 629 235 q 556 70 591 112 q 473 7 521 28 q 369 -14 426 -14 q 252 7 306 -14 q 158 70 198 28 q 96 173 118 112 q 75 315 75 235 l 75 987 l 273 987 l 273 315 q 279 241 273 272 q 299 190 286 210 q 330 160 312 170 q 369 150 347 150 q 424 167 401 150 q 458 221 446 184 q 470 315 470 258 l 470 987 m 866 987 l 1064 987 l 1064 315 q 1025 135 1064 208 q 921 23 987 61 q 768 -14 854 -14 q 665 7 712 -14 q 583 70 618 28 q 529 173 548 112 q 509 315 509 235 l 509 987 l 669 987 l 669 315 q 675 241 669 272 q 696 190 682 210 q 728 160 709 170 q 768 150 746 150 q 821 167 800 150 q 854 221 843 184 q 866 315 866 258 l 866 987 z "},"ѡ":{"ha":972,"x_min":61,"x_max":930,"o":"m 403 734 l 557 734 l 557 303 q 539 166 557 225 q 490 66 522 106 q 415 6 458 26 q 319 -14 372 -14 q 216 6 263 -14 q 134 66 169 26 q 80 166 99 106 q 61 303 61 225 l 61 734 l 252 734 l 252 303 q 256 232 252 262 q 269 182 260 201 q 290 153 277 163 q 319 144 303 144 q 366 161 347 144 q 393 213 384 178 q 403 303 403 248 l 403 734 m 739 734 l 930 734 l 930 303 q 897 129 930 199 q 805 22 863 58 q 669 -14 746 -14 q 575 6 618 -14 q 503 66 533 26 q 457 166 473 106 q 441 303 441 225 l 441 734 l 593 734 l 593 303 q 598 232 593 262 q 612 182 603 201 q 635 153 621 163 q 669 144 650 144 q 700 153 687 144 q 722 182 713 163 q 735 232 731 201 q 739 303 739 262 l 739 734 z "},"ѣ":{"ha":684,"x_min":-2,"x_max":649,"o":"m 205 536 l 374 536 q 523 503 461 536 q 617 409 585 469 q 649 270 649 349 q 617 130 649 191 q 523 35 585 69 q 374 0 461 0 l 82 0 l 82 1059 l 273 1059 l 273 157 l 374 157 q 424 172 405 157 q 451 213 442 187 q 459 269 459 239 q 451 323 459 298 q 424 364 442 349 q 374 379 405 379 l 205 379 l 205 536 m 412 858 l 412 734 l -2 734 l -2 858 l 412 858 z "},"Ѥ":{"ha":1069,"x_min":73,"x_max":1046,"o":"m 789 583 l 789 425 l 208 425 l 208 583 l 789 583 m 847 330 l 1044 330 q 999 152 1040 230 q 883 31 958 75 q 703 -13 808 -13 q 556 20 621 -13 q 446 115 491 53 q 376 265 400 177 q 353 462 353 353 l 353 527 q 377 724 353 636 q 449 874 402 812 q 560 969 495 936 q 706 1002 625 1002 q 886 957 814 1002 q 999 833 959 912 q 1046 654 1038 754 l 848 654 q 831 753 845 712 q 788 814 818 793 q 706 836 758 836 q 637 817 667 836 q 590 760 608 798 q 562 665 571 722 q 553 528 553 607 l 553 462 q 558 351 553 401 q 573 265 563 302 q 601 204 583 229 q 644 166 618 179 q 703 154 669 154 q 784 173 753 154 q 829 232 814 193 q 847 330 844 271 m 270 987 l 270 0 l 73 0 l 73 987 l 270 987 z "},"ѥ":{"ha":911,"x_min":74,"x_max":872,"o":"m 678 430 l 678 306 l 188 306 l 188 430 l 678 430 m 608 144 q 654 158 635 144 q 684 196 673 172 q 694 254 694 221 l 872 254 q 837 116 871 176 q 744 21 802 56 q 611 -14 685 -14 q 483 15 538 -14 q 392 94 427 43 q 338 212 356 144 q 320 357 320 279 l 320 376 q 338 522 320 454 q 392 640 356 589 q 483 719 428 690 q 611 747 537 747 q 748 712 689 747 q 839 613 806 677 q 872 460 871 549 l 694 460 q 685 525 694 496 q 656 572 675 554 q 606 589 637 589 q 556 572 575 589 q 527 524 536 554 q 513 456 517 494 q 510 376 510 418 l 510 357 q 513 277 510 315 q 527 208 517 238 q 556 161 537 178 q 608 144 575 144 m 264 734 l 264 0 l 74 0 l 74 734 l 264 734 z "},"Ѧ":{"ha":812,"x_min":20,"x_max":801,"o":"m 471 901 l 228 0 l 20 0 l 309 987 l 416 987 l 471 901 m 593 0 l 349 908 l 406 987 l 513 987 l 801 0 l 593 0 m 623 426 l 623 284 l 172 284 l 172 426 l 623 426 m 490 359 l 490 0 l 326 0 l 326 359 l 490 359 z "},"ѧ":{"ha":688,"x_min":15,"x_max":665,"o":"m 325 453 l 209 0 l 15 0 l 242 734 l 382 734 l 325 453 m 472 0 l 354 453 l 297 734 l 438 734 l 665 0 l 472 0 m 558 309 l 558 182 l 126 182 l 126 309 l 558 309 m 398 248 l 398 0 l 275 0 l 275 248 l 398 248 z "},"Ѩ":{"ha":1133,"x_min":85,"x_max":1114,"o":"m 564 425 l 564 285 l 214 285 l 214 425 l 564 425 m 783 901 l 541 0 l 332 0 l 622 987 l 729 987 l 783 901 m 906 0 l 661 908 l 719 987 l 826 987 l 1114 0 l 906 0 m 935 426 l 935 284 l 484 284 l 484 426 l 935 426 m 802 359 l 802 0 l 638 0 l 638 359 l 802 359 m 283 987 l 283 0 l 85 0 l 85 987 l 283 987 z "},"ѩ":{"ha":970,"x_min":76,"x_max":949,"o":"m 516 310 l 516 183 l 123 183 l 123 310 l 516 310 m 607 453 l 492 0 l 297 0 l 525 734 l 665 734 l 607 453 m 755 0 l 636 453 l 581 734 l 721 734 l 949 0 l 755 0 m 841 309 l 841 182 l 409 182 l 409 309 l 841 309 m 681 248 l 681 0 l 557 0 l 557 248 l 681 248 m 267 734 l 267 0 l 76 0 l 76 734 l 267 734 z "},"Ѫ":{"ha":1065,"x_min":70,"x_max":996,"o":"m 267 0 l 70 0 l 70 229 q 108 413 70 344 q 218 512 146 481 q 391 543 290 543 l 673 543 q 847 512 774 543 q 957 413 919 481 q 996 229 996 344 l 996 0 l 798 0 l 798 229 q 784 319 798 287 q 743 364 770 351 q 673 377 715 377 l 391 377 q 298 346 330 377 q 267 229 267 315 l 267 0 m 757 987 l 757 821 l 339 821 l 339 987 l 757 987 m 493 479 l 709 987 l 924 987 l 631 376 l 524 376 l 493 479 m 381 987 l 600 473 l 566 376 l 458 376 l 165 987 l 381 987 m 641 514 l 641 0 l 443 0 l 443 514 l 641 514 z "},"ѫ":{"ha":895,"x_min":71,"x_max":824,"o":"m 260 0 l 71 0 l 71 123 q 104 294 71 230 q 200 388 138 359 q 351 416 263 416 l 544 416 q 694 388 631 416 q 790 294 757 359 q 824 123 824 230 l 824 0 l 634 0 l 634 123 q 624 210 634 179 q 595 254 614 241 q 544 267 575 267 l 351 267 q 300 254 320 267 q 271 210 281 241 q 260 123 260 179 l 260 0 m 674 734 l 674 605 l 253 605 l 253 734 l 674 734 m 408 339 l 559 734 l 764 734 l 535 260 l 435 260 l 408 339 m 347 734 l 499 335 l 470 260 l 370 260 l 140 734 l 347 734 m 546 352 l 546 0 l 355 0 l 355 352 l 546 352 z "},"Ѭ":{"ha":1412,"x_min":90,"x_max":1343,"o":"m 773 545 l 773 385 l 214 385 l 214 545 l 773 545 m 287 987 l 287 0 l 90 0 l 90 987 l 287 987 m 615 0 l 418 0 l 418 229 q 456 413 418 344 q 566 512 494 481 q 740 543 638 543 l 1021 543 q 1195 512 1123 543 q 1305 413 1267 481 q 1343 229 1343 344 l 1343 0 l 1145 0 l 1145 229 q 1132 319 1145 287 q 1090 364 1118 351 q 1021 377 1063 377 l 740 377 q 646 346 677 377 q 615 229 615 315 l 615 0 m 1103 987 l 1103 821 l 687 821 l 687 987 l 1103 987 m 840 479 l 1056 987 l 1272 987 l 980 376 l 872 376 l 840 479 m 730 987 l 947 473 l 913 376 l 806 376 l 513 987 l 730 987 m 988 514 l 988 0 l 791 0 l 791 514 l 988 514 z "},"ѭ":{"ha":1229,"x_min":85,"x_max":1158,"o":"m 741 416 l 741 272 l 151 272 l 151 416 l 741 416 m 275 734 l 275 0 l 85 0 l 85 734 l 275 734 m 595 0 l 406 0 l 406 123 q 439 294 406 230 q 534 388 472 359 q 685 416 597 416 l 878 416 q 1029 388 966 416 q 1125 294 1092 359 q 1158 123 1158 230 l 1158 0 l 968 0 l 968 123 q 958 210 968 179 q 928 254 948 241 q 878 267 909 267 l 685 267 q 635 254 654 267 q 605 210 615 241 q 595 123 595 179 l 595 0 m 1008 734 l 1008 605 l 588 605 l 588 734 l 1008 734 m 743 339 l 893 734 l 1099 734 l 869 260 l 769 260 l 743 339 m 681 734 l 833 335 l 804 260 l 704 260 l 475 734 l 681 734 m 880 352 l 880 0 l 690 0 l 690 352 l 880 352 z "},"Ѯ":{"ha":627,"x_min":2,"x_max":547,"o":"m 77 987 l 217 987 q 340 972 285 987 q 435 925 396 957 q 497 845 475 894 q 519 730 519 796 q 498 619 519 667 q 438 539 477 571 q 345 491 399 507 q 227 475 291 475 l 135 475 l 135 587 l 224 587 q 284 604 261 587 q 318 648 307 620 q 328 712 328 676 q 316 771 328 746 q 280 810 304 796 q 217 825 256 825 l 77 825 l 77 987 m 135 533 l 222 533 q 358 516 298 533 q 460 467 418 499 q 524 386 502 434 q 547 277 547 338 q 527 153 547 208 q 469 62 507 99 q 378 5 431 24 q 260 -14 326 -14 l 231 -14 q 188 -33 201 -14 q 175 -78 175 -51 q 188 -130 175 -109 q 220 -163 201 -151 q 253 -184 239 -176 l 199 -304 q 89 -253 132 -288 q 24 -166 45 -218 q 2 -51 3 -115 q 29 62 2 18 q 104 127 56 106 q 216 149 153 149 l 251 149 q 295 158 276 149 q 328 184 315 168 q 349 224 342 201 q 356 274 356 248 q 347 338 356 311 q 321 386 338 366 q 278 414 304 405 q 219 424 252 424 l 135 424 l 135 533 m 202 1308 l 281 1211 l 359 1308 l 521 1308 l 521 1301 l 340 1110 l 223 1110 l 41 1301 l 41 1308 l 202 1308 z "},"ѯ":{"ha":618,"x_min":22,"x_max":544,"o":"m 80 734 l 226 734 q 344 722 291 734 q 436 685 397 710 q 495 623 474 661 q 516 532 516 585 q 496 446 516 483 q 441 383 477 408 q 355 346 405 358 q 245 334 306 334 l 144 334 l 144 426 l 243 426 q 292 437 274 426 q 317 469 309 449 q 326 514 326 490 q 319 546 326 532 q 301 570 313 560 q 271 586 290 580 q 226 591 252 591 l 80 591 l 80 734 m 144 392 l 241 392 q 368 380 312 392 q 464 344 425 368 q 523 286 503 320 q 544 206 544 251 q 525 113 544 154 q 472 44 507 73 q 389 1 437 16 q 280 -14 340 -14 l 251 -14 q 200 -33 216 -14 q 184 -78 184 -51 q 196 -130 184 -109 q 224 -163 208 -151 q 252 -184 240 -176 l 199 -293 q 108 -241 148 -275 q 45 -158 68 -207 q 22 -51 22 -110 q 46 50 22 10 q 114 109 71 90 q 216 128 158 128 l 250 128 q 294 135 275 128 q 327 153 313 141 q 347 179 340 164 q 354 214 354 195 q 346 252 354 235 q 324 280 338 269 q 288 297 310 292 q 238 303 267 303 l 144 303 l 144 392 m 207 1045 l 286 949 l 363 1045 l 524 1045 l 524 1038 l 344 847 l 227 847 l 45 1039 l 45 1045 l 207 1045 z "},"Ѳ":{"ha":836,"x_min":60,"x_max":783,"o":"m 421 1001 q 540 980 485 1001 q 640 917 595 958 q 717 816 685 876 q 766 682 749 757 q 783 516 783 606 l 783 471 q 756 269 783 359 q 682 116 730 178 q 568 20 634 53 q 422 -14 502 -14 q 303 8 358 -14 q 203 70 248 29 q 127 171 159 111 q 78 305 95 230 q 60 471 60 380 l 60 516 q 87 719 60 629 q 162 871 113 808 q 276 968 210 935 q 421 1001 342 1001 m 421 833 q 360 817 387 833 q 312 769 332 800 q 279 690 292 737 q 262 582 267 644 q 261 571 262 576 q 262 558 261 565 l 582 558 q 581 570 581 564 q 580 582 581 576 q 564 690 576 644 q 531 769 551 737 q 483 817 511 800 q 421 833 456 833 m 422 154 q 485 171 457 154 q 532 220 512 187 q 565 302 553 254 q 581 414 577 351 q 581 424 581 419 q 581 434 581 429 l 261 434 q 261 426 261 430 q 262 417 262 422 q 278 304 266 353 q 311 221 290 255 q 359 171 331 188 q 422 154 388 154 z "},"ѳ":{"ha":686,"x_min":48,"x_max":641,"o":"m 344 747 q 471 719 416 747 q 565 641 527 691 q 622 522 602 590 q 641 374 641 454 l 641 359 q 622 211 641 279 q 565 93 602 143 q 472 14 527 42 q 345 -14 416 -14 q 218 14 273 -14 q 124 93 162 42 q 67 211 87 143 q 48 359 48 279 l 48 374 q 67 522 48 454 q 124 641 87 590 q 217 719 162 691 q 344 747 272 747 m 344 589 q 299 577 318 589 q 269 543 281 565 q 250 491 257 520 q 240 426 243 461 l 448 426 q 439 491 446 461 q 419 543 431 520 q 388 577 407 565 q 344 589 370 589 m 345 144 q 388 156 370 144 q 418 189 406 168 q 438 239 431 210 q 448 302 446 269 l 241 302 q 250 239 243 269 q 270 189 257 210 q 301 156 282 168 q 345 144 319 144 z "},"Ѵ":{"ha":786,"x_min":18,"x_max":755,"o":"m 407 265 l 509 762 q 558 891 530 838 q 629 972 587 944 q 730 1000 671 1000 l 755 999 l 753 829 l 736 829 q 709 819 720 829 q 691 790 699 808 q 682 750 684 772 l 499 0 l 355 0 l 407 265 m 227 987 l 387 267 l 440 0 l 296 0 l 18 987 l 227 987 z "},"ѵ":{"ha":629,"x_min":20,"x_max":623,"o":"m 313 281 l 351 522 q 399 645 370 595 q 469 722 428 695 q 562 748 509 748 q 593 746 578 748 q 623 736 608 743 l 608 580 q 597 581 607 581 q 582 582 587 582 q 555 573 568 582 q 534 548 543 564 q 522 512 526 532 l 397 0 l 271 0 l 313 281 m 219 734 l 298 281 l 342 0 l 216 0 l 20 734 l 219 734 z "},"Ѻ":{"ha":836,"x_min":60,"x_max":783,"o":"m 480 1068 l 480 756 l 354 756 l 354 1068 l 480 1068 m 481 229 l 481 -92 l 355 -92 l 355 229 l 481 229 m 783 516 l 783 471 q 756 269 783 359 q 682 116 730 178 q 568 20 634 53 q 422 -14 502 -14 q 303 8 358 -14 q 203 70 248 29 q 127 171 159 111 q 78 305 95 230 q 60 471 60 380 l 60 516 q 87 719 60 629 q 162 871 113 808 q 276 968 210 935 q 421 1001 342 1001 q 540 980 485 1001 q 640 917 595 958 q 717 816 685 876 q 766 682 749 757 q 783 516 783 606 m 582 471 l 582 517 q 575 629 582 578 q 555 717 568 679 q 522 781 541 755 q 477 820 503 806 q 421 833 452 833 q 353 812 382 833 q 302 752 323 792 q 271 653 282 712 q 260 517 260 595 l 260 471 q 267 359 260 410 q 288 271 274 309 q 321 207 302 233 q 366 167 341 180 q 422 154 391 154 q 491 175 461 154 q 541 235 521 195 q 571 335 561 275 q 582 471 582 394 z "},"ѻ":{"ha":690,"x_min":50,"x_max":641,"o":"m 399 817 l 399 512 l 294 512 l 294 817 l 399 817 m 396 231 l 396 -84 l 290 -84 l 290 231 l 396 231 m 50 359 l 50 374 q 69 522 50 454 q 125 641 88 590 q 218 719 163 691 q 345 747 273 747 q 472 719 417 747 q 565 641 527 691 q 622 522 602 590 q 641 374 641 454 l 641 359 q 622 211 641 279 q 565 93 602 143 q 473 14 528 42 q 346 -14 418 -14 q 219 14 274 -14 q 126 93 163 42 q 69 211 88 143 q 50 359 50 279 m 239 374 l 239 359 q 244 275 239 314 q 262 207 250 237 q 294 161 274 178 q 346 144 315 144 q 396 161 376 144 q 428 207 416 178 q 446 275 440 237 q 451 359 451 314 l 451 374 q 446 456 451 417 q 428 525 440 495 q 396 572 416 555 q 345 589 375 589 q 294 572 314 589 q 262 525 274 555 q 244 456 250 495 q 239 374 239 417 z "},"Ѽ":{"ha":1144,"x_min":75,"x_max":1052,"o":"m 808 1159 l 819 1159 l 819 1068 l 808 1068 q 718 1080 760 1068 q 640 1109 675 1093 q 576 1137 605 1125 q 526 1149 547 1149 q 491 1133 505 1149 q 476 1080 476 1117 l 476 1068 l 392 1068 l 392 1093 q 427 1205 392 1169 q 524 1240 462 1240 q 588 1228 556 1240 q 654 1200 621 1216 q 726 1171 688 1183 q 808 1159 764 1159 m 536 868 l 484 907 q 512 959 502 935 q 522 1009 522 984 l 522 1074 l 630 1074 l 630 1004 q 615 951 630 979 q 578 902 600 924 q 536 868 557 880 m 369 987 l 369 823 q 319 804 340 823 q 285 749 297 786 q 273 652 273 711 l 273 320 q 279 243 273 276 q 299 190 286 211 q 330 160 312 170 q 369 150 347 150 q 424 167 401 150 q 458 221 446 184 q 470 315 470 258 l 470 553 l 629 553 l 629 315 q 610 173 629 235 q 556 70 591 112 q 473 7 521 28 q 369 -14 426 -14 q 252 7 306 -14 q 158 71 198 28 q 96 176 118 113 q 75 320 75 238 l 75 652 q 113 837 75 762 q 218 949 151 911 q 369 987 285 987 m 758 823 l 758 987 q 875 966 821 987 q 968 902 928 944 q 1030 797 1008 859 q 1052 652 1052 734 l 1052 320 q 1030 176 1052 238 q 968 71 1008 113 q 875 7 928 28 q 758 -14 821 -14 q 654 7 701 -14 q 571 70 607 28 q 516 173 536 112 q 496 315 496 235 l 496 553 l 656 553 l 656 315 q 664 241 656 272 q 684 190 671 210 q 715 160 696 170 q 758 150 734 150 q 798 160 780 150 q 828 190 815 170 q 848 243 841 211 q 855 320 855 276 l 855 652 q 848 729 855 696 q 828 782 841 762 q 798 813 815 803 q 758 823 780 823 z "},"ѽ":{"ha":966,"x_min":70,"x_max":894,"o":"m 732 930 l 745 930 l 745 840 l 731 840 q 641 852 683 840 q 564 880 600 864 q 500 909 529 897 q 450 921 472 921 q 415 905 430 921 q 400 851 400 888 l 400 839 l 316 839 l 316 865 q 351 976 316 940 q 448 1011 387 1011 q 512 999 481 1011 q 577 971 543 987 q 649 942 611 955 q 732 930 687 930 m 468 642 l 415 681 q 443 734 433 709 q 453 783 453 759 l 453 848 l 561 848 l 561 779 q 546 726 561 753 q 510 677 532 699 q 468 642 488 654 m 343 746 l 343 588 q 300 571 318 588 q 271 520 281 555 q 261 431 261 486 l 261 300 q 266 230 261 259 q 278 181 270 200 q 297 153 286 162 q 323 144 309 144 q 352 153 339 144 q 373 182 364 163 q 387 232 382 201 q 391 303 391 262 l 391 412 l 535 412 l 535 303 q 519 166 535 225 q 475 66 503 106 q 408 6 446 26 q 323 -14 369 -14 q 222 6 269 -14 q 142 66 176 26 q 89 164 108 105 q 70 300 70 223 l 70 431 q 105 605 70 534 q 203 710 141 675 q 343 746 265 746 m 621 588 l 621 746 q 729 726 679 746 q 816 666 779 705 q 873 567 853 626 q 894 431 894 509 l 894 300 q 875 164 894 223 q 822 66 856 105 q 742 6 788 26 q 641 -14 695 -14 q 556 6 595 -14 q 489 66 517 26 q 445 166 460 106 q 429 303 429 225 l 429 412 l 572 412 l 572 303 q 577 232 572 262 q 591 182 583 201 q 612 153 600 163 q 641 144 625 144 q 666 153 654 144 q 687 181 678 162 q 699 230 695 200 q 703 300 703 259 l 703 431 q 697 502 703 472 q 681 550 692 531 q 655 579 670 570 q 621 588 640 588 z "},"Ѿ":{"ha":1143,"x_min":75,"x_max":1064,"o":"m 507 1144 l 309 1144 l 309 1235 l 832 1235 l 833 1144 l 624 1144 l 624 1058 l 507 1058 l 507 1144 m 470 987 l 629 987 l 629 315 q 610 173 629 235 q 556 70 591 112 q 473 7 521 28 q 369 -14 426 -14 q 252 7 306 -14 q 158 70 198 28 q 96 173 118 112 q 75 315 75 235 l 75 987 l 273 987 l 273 315 q 279 241 273 272 q 299 190 286 210 q 330 160 312 170 q 369 150 347 150 q 424 167 401 150 q 458 221 446 184 q 470 315 470 258 l 470 987 m 866 987 l 1064 987 l 1064 315 q 1025 135 1064 208 q 921 23 987 61 q 768 -14 854 -14 q 665 7 712 -14 q 583 70 618 28 q 529 173 548 112 q 509 315 509 235 l 509 987 l 669 987 l 669 315 q 675 241 669 272 q 696 190 682 210 q 728 160 709 170 q 768 150 746 150 q 821 167 800 150 q 854 221 843 184 q 866 315 866 258 l 866 987 z "},"ѿ":{"ha":972,"x_min":61,"x_max":930,"o":"m 433 898 l 256 898 l 255 988 l 738 988 l 743 898 l 550 898 l 550 812 l 433 812 l 433 898 m 403 734 l 557 734 l 557 303 q 539 166 557 225 q 490 66 522 106 q 415 6 458 26 q 319 -14 372 -14 q 216 6 263 -14 q 134 66 169 26 q 80 166 99 106 q 61 303 61 225 l 61 734 l 252 734 l 252 303 q 256 232 252 262 q 269 182 260 201 q 290 153 277 163 q 319 144 303 144 q 366 161 347 144 q 393 213 384 178 q 403 303 403 248 l 403 734 m 739 734 l 930 734 l 930 303 q 897 129 930 199 q 805 22 863 58 q 669 -14 746 -14 q 575 6 618 -14 q 503 66 533 26 q 457 166 473 106 q 441 303 441 225 l 441 734 l 593 734 l 593 303 q 598 232 593 262 q 612 182 603 201 q 635 153 621 163 q 669 144 650 144 q 700 153 687 144 q 722 182 713 163 q 735 232 731 201 q 739 303 739 262 l 739 734 z "},"Ҁ":{"ha":753,"x_min":59,"x_max":697,"o":"m 382 150 l 382 -14 q 273 5 323 -14 q 183 60 222 24 q 116 146 144 96 q 74 258 88 196 q 59 393 59 321 l 59 595 q 81 759 59 684 q 146 888 104 833 q 248 972 189 943 q 380 1002 307 1002 q 553 963 481 1002 q 661 848 624 924 q 696 658 697 771 l 498 658 q 489 760 500 721 q 452 818 478 800 q 380 837 425 837 q 325 819 349 837 q 286 769 301 801 q 263 692 271 736 q 256 596 256 648 l 256 393 q 261 314 256 351 q 275 247 266 277 q 300 195 285 217 q 335 161 315 173 q 382 150 356 150 m 510 150 l 510 -245 l 313 -245 l 313 150 l 510 150 z "},"ҁ":{"ha":656,"x_min":58,"x_max":606,"o":"m 349 144 l 349 -14 q 223 14 277 -14 q 132 94 168 43 q 77 212 95 144 q 58 357 58 279 l 58 376 q 77 522 58 454 q 132 640 95 589 q 223 719 169 690 q 349 747 277 747 q 484 712 426 747 q 574 613 543 677 q 606 460 606 549 l 428 460 q 419 526 428 496 q 394 572 411 555 q 349 589 376 589 q 299 572 318 589 q 269 524 280 554 q 254 456 258 494 q 249 376 249 418 l 249 357 q 253 277 249 315 q 268 208 258 238 q 298 161 279 178 q 349 144 318 144 m 471 144 l 471 -248 l 281 -248 l 281 144 l 471 144 z "},"҂":{"ha":760,"x_min":71,"x_max":685,"o":"m 474 549 l 361 304 l 526 188 l 481 101 l 315 216 l 214 0 l 106 0 l 235 270 l 71 386 l 114 473 l 281 357 l 393 601 l 227 717 l 273 805 l 438 689 l 541 910 l 646 910 l 518 635 l 685 519 l 638 433 l 474 549 z "},"҃":{"ha":0,"x_min":-515,"x_max":-84,"o":"m -84 890 l -402 890 l -402 804 l -515 805 l -515 966 l -197 966 l -197 1040 l -84 1039 l -84 890 z "},"҄":{"ha":0,"x_min":-503,"x_max":-62,"o":"m -503 975 l -490 975 q -405 987 -444 975 q -331 1015 -366 999 q -264 1044 -296 1031 q -198 1056 -231 1056 q -99 1020 -135 1056 q -62 909 -62 985 l -62 884 l -149 884 l -149 896 q -164 949 -149 932 q -201 965 -179 965 q -253 953 -223 965 q -318 924 -282 941 q -397 896 -354 908 q -489 884 -439 884 l -503 884 l -503 975 z "},"҅":{"ha":0,"x_min":-336,"x_max":-186,"o":"m -238 886 l -336 1017 l -336 1116 l -219 1116 l -220 1005 l -186 932 l -238 886 z "},"҆":{"ha":0,"x_min":-330,"x_max":-180,"o":"m -180 1017 l -279 886 l -330 932 l -296 1005 l -297 1116 l -180 1116 l -180 1017 z "},"҈":{"ha":0,"x_min":-1010,"x_max":311,"o":"m -425 859 l -502 859 q -464 951 -502 916 q -359 987 -425 987 q -255 951 -293 987 q -216 859 -216 916 l -292 859 q -308 907 -292 886 q -359 928 -323 928 q -410 907 -395 928 q -425 859 -425 886 m -24 671 l -101 671 q -63 763 -101 728 q 41 799 -24 799 q 146 763 108 799 q 185 671 185 728 l 109 671 q 94 719 109 699 q 41 740 79 740 q -9 719 6 740 q -24 671 -24 699 m 102 330 l 26 330 q 64 422 26 387 q 168 458 102 458 q 273 422 235 458 q 311 330 311 387 l 235 330 q 220 378 235 357 q 168 399 205 399 q 118 378 133 399 q 102 330 102 357 m -31 -22 l -108 -22 q -70 70 -108 35 q 35 106 -31 106 q 139 70 101 106 q 178 -22 178 35 l 102 -22 q 87 26 102 5 q 35 47 72 47 q -16 26 -1 47 q -31 -22 -31 5 m -422 -214 l -498 -214 q -460 -122 -498 -158 q -356 -87 -422 -87 q -251 -122 -290 -87 q -213 -214 -213 -158 l -289 -214 q -304 -166 -289 -187 q -356 -146 -319 -146 q -407 -166 -391 -146 q -422 -214 -422 -187 m -813 671 l -890 671 q -852 763 -890 728 q -747 799 -813 799 q -643 763 -681 799 q -604 671 -604 728 l -680 671 q -695 719 -680 699 q -747 740 -711 740 q -798 719 -783 740 q -813 671 -813 699 m -933 330 l -1010 330 q -971 422 -1010 387 q -867 458 -933 458 q -763 422 -801 458 q -724 330 -724 387 l -800 330 q -815 378 -800 357 q -867 399 -830 399 q -918 378 -903 399 q -933 330 -933 357 m -820 -22 l -897 -22 q -859 70 -897 35 q -755 106 -821 106 q -650 70 -688 106 q -611 -22 -611 35 l -688 -22 q -703 26 -688 5 q -755 47 -718 47 q -805 26 -790 47 q -820 -22 -820 5 z "},"҉":{"ha":0,"x_min":-966,"x_max":292,"o":"m -362 -41 l -269 -41 l -262 -50 l -345 -280 l -410 -280 l -362 -41 m -309 764 l -401 764 l -410 773 l -327 1002 l -262 1002 l -309 764 m 58 334 l 58 428 l 66 436 l 292 352 l 292 286 l 58 334 m -731 388 l -731 294 l -740 286 l -966 370 l -966 436 l -731 388 m -39 612 l -104 680 l -103 690 l 114 794 l 160 748 l -39 612 m -634 81 l -568 14 l -570 3 l -787 -101 l -833 -54 l -634 81 m -597 650 l -663 583 l -675 585 l -775 806 l -731 852 l -597 650 m -77 42 l -12 109 l 0 108 l 101 -113 l 56 -161 l -77 42 z "},"Ҋ":{"ha":958,"x_min":73,"x_max":920,"o":"m 266 363 l 574 987 l 763 987 l 763 0 l 571 0 l 571 617 l 265 0 l 73 0 l 73 987 l 266 987 l 266 363 m 547 1248 l 687 1248 q 658 1143 687 1188 q 577 1072 629 1098 q 452 1046 524 1046 q 281 1103 344 1046 q 218 1248 218 1159 l 356 1248 q 378 1185 356 1213 q 452 1158 399 1158 q 526 1185 505 1158 q 547 1248 547 1213 m 920 136 l 920 3 q 882 -152 920 -74 q 785 -279 844 -229 l 684 -226 q 717 -163 701 -195 q 744 -94 733 -132 q 755 -7 755 -56 l 755 136 l 920 136 z "},"ҋ":{"ha":815,"x_min":71,"x_max":783,"o":"m 258 331 l 441 734 l 624 734 l 624 0 l 436 0 l 436 401 l 254 0 l 71 0 l 71 734 l 258 734 l 258 331 m 479 1031 l 619 1031 q 590 927 619 972 q 509 856 562 882 q 385 830 456 830 q 213 886 276 830 q 150 1031 150 943 l 288 1031 q 310 969 288 996 q 385 942 332 942 q 458 969 437 942 q 479 1031 479 996 m 783 136 l 783 3 q 745 -152 783 -74 q 648 -279 707 -229 l 547 -226 q 580 -163 564 -195 q 607 -94 596 -132 q 618 -7 618 -56 l 618 136 l 783 136 z "},"ҍ":{"ha":684,"x_min":-2,"x_max":649,"o":"m 205 536 l 374 536 q 523 503 461 536 q 617 409 585 469 q 649 270 649 349 q 617 130 649 191 q 523 35 585 69 q 374 0 461 0 l 82 0 l 82 1096 l 273 1096 l 273 157 l 374 157 q 424 172 405 157 q 451 213 442 187 q 459 269 459 239 q 451 323 459 298 q 424 364 442 349 q 374 379 405 379 l 205 379 l 205 536 m 412 987 l 412 864 l -2 864 l -2 987 l 412 987 z "},"Ҏ":{"ha":762,"x_min":81,"x_max":737,"o":"m 463 680 l 727 347 l 662 286 l 399 618 l 463 680 m 417 348 l 215 348 l 215 513 l 417 513 q 486 532 460 513 q 525 584 513 551 q 537 660 537 618 q 525 740 537 703 q 486 800 513 777 q 417 823 460 823 l 279 823 l 279 0 l 81 0 l 81 987 l 417 987 q 589 945 517 987 q 699 830 661 903 q 737 661 737 756 q 699 495 737 566 q 588 387 660 425 q 417 348 517 348 z "},"ҏ":{"ha":685,"x_min":71,"x_max":642,"o":"m 399 316 l 633 2 l 567 -58 l 334 256 l 399 316 m 260 593 l 260 -282 l 71 -282 l 71 734 l 246 734 l 260 593 m 642 375 l 642 361 q 626 213 642 281 q 579 94 610 144 q 504 15 549 43 q 400 -14 459 -14 q 301 14 342 -14 q 231 92 259 42 q 186 207 203 141 q 160 349 170 273 l 160 378 q 185 526 169 458 q 230 643 201 593 q 300 720 258 692 q 399 747 342 747 q 504 721 458 747 q 579 645 549 694 q 626 527 610 595 q 642 375 642 458 m 452 361 l 452 375 q 446 460 452 421 q 428 528 440 498 q 396 573 416 557 q 348 589 376 589 q 299 576 320 589 q 266 540 279 564 q 246 482 253 516 q 239 406 239 448 l 239 319 q 246 250 240 281 q 264 194 252 218 q 297 157 277 170 q 349 144 318 144 q 398 162 378 144 q 429 209 417 179 q 447 277 441 238 q 452 361 452 316 z "},"Ґ":{"ha":677,"x_min":79,"x_max":641,"o":"m 641 1240 l 641 830 l 451 830 l 451 1240 l 641 1240 m 632 987 l 632 823 l 277 823 l 277 0 l 79 0 l 79 987 l 632 987 z "},"ґ":{"ha":573,"x_min":68,"x_max":525,"o":"m 525 948 l 525 576 l 334 576 l 334 948 l 525 948 m 498 734 l 498 576 l 258 576 l 258 0 l 68 0 l 68 734 l 498 734 z "},"Ҕ":{"ha":770,"x_min":82,"x_max":717,"o":"m 635 987 l 635 823 l 280 823 l 280 0 l 82 0 l 82 987 l 635 987 m 203 407 l 203 568 l 368 568 q 512 543 448 568 q 622 469 576 519 q 692 344 668 419 q 717 169 717 269 q 700 24 717 96 q 646 -105 683 -47 q 547 -197 608 -163 q 395 -231 485 -231 l 395 -81 q 469 -58 442 -81 q 508 3 496 -35 q 523 82 519 40 q 526 159 526 123 q 517 269 527 222 q 488 346 507 315 q 438 392 468 377 q 368 407 409 407 l 203 407 z "},"ҕ":{"ha":652,"x_min":68,"x_max":602,"o":"m 144 292 l 144 452 l 275 452 q 445 415 371 452 q 560 306 518 378 q 602 121 602 233 q 590 35 602 81 q 550 -54 577 -10 q 484 -135 524 -98 q 389 -194 444 -172 l 309 -63 q 362 -17 339 -43 q 398 42 385 8 q 412 121 411 76 q 395 216 411 178 q 349 273 379 254 q 275 292 318 292 l 144 292 m 498 734 l 498 576 l 258 576 l 258 0 l 68 0 l 68 734 l 498 734 z "},"Җ":{"ha":1318,"x_min":23,"x_max":1300,"o":"m 347 403 l 34 987 l 280 987 l 441 590 l 594 590 l 566 403 l 347 403 m 439 436 l 269 0 l 23 0 l 279 556 l 439 436 m 720 987 l 720 0 l 523 0 l 523 987 l 720 987 m 1201 987 l 894 403 l 677 403 l 649 590 l 800 590 l 957 987 l 1201 987 m 966 0 l 802 436 l 962 556 l 1213 0 l 966 0 m 1300 140 l 1300 -242 l 1109 -242 l 1109 140 l 1300 140 z "},"җ":{"ha":1122,"x_min":33,"x_max":1095,"o":"m 285 273 l 33 734 l 269 734 l 375 460 l 496 460 l 472 273 l 285 273 m 376 307 l 267 0 l 38 0 l 222 403 l 376 307 m 619 734 l 619 0 l 429 0 l 429 734 l 619 734 m 1017 734 l 764 273 l 578 273 l 553 460 l 674 460 l 782 734 l 1017 734 m 783 0 l 672 307 l 833 403 l 1017 0 l 783 0 m 1095 140 l 1095 -242 l 904 -242 l 904 140 l 1095 140 z "},"Қ":{"ha":917,"x_min":81,"x_max":868,"o":"m 280 987 l 280 0 l 81 0 l 81 987 l 280 987 m 761 987 l 454 405 l 235 405 l 208 593 l 347 593 l 522 987 l 761 987 m 553 0 l 351 439 l 487 589 l 788 0 l 553 0 m 868 140 l 868 -242 l 677 -242 l 677 140 l 868 140 z "},"қ":{"ha":812,"x_min":84,"x_max":768,"o":"m 275 734 l 275 0 l 84 0 l 84 734 l 275 734 m 673 734 l 408 271 l 240 271 l 216 458 l 321 458 l 434 734 l 673 734 m 437 0 l 309 307 l 475 403 l 689 0 l 437 0 m 768 140 l 768 -242 l 578 -242 l 578 140 l 768 140 z "},"Ҝ":{"ha":814,"x_min":79,"x_max":822,"o":"m 79 987 l 278 987 l 278 0 l 79 0 l 79 987 m 313 763 l 420 763 l 420 247 l 313 247 l 313 763 m 558 987 l 804 987 l 521 401 l 234 401 l 207 589 l 433 589 l 558 987 m 431 436 l 589 556 l 822 0 l 569 0 l 431 436 z "},"ҝ":{"ha":749,"x_min":83,"x_max":739,"o":"m 83 734 l 273 734 l 273 0 l 83 0 l 83 734 m 308 587 l 406 587 l 406 156 l 308 156 l 308 587 m 496 734 l 734 734 l 510 271 l 239 271 l 216 458 l 425 458 l 496 734 m 412 307 l 567 403 l 739 0 l 497 0 l 412 307 z "},"Ҡ":{"ha":996,"x_min":29,"x_max":1003,"o":"m 358 987 l 358 829 l 29 829 l 29 987 l 358 987 m 494 987 l 494 0 l 296 0 l 296 987 l 494 987 m 977 987 l 667 405 l 450 405 l 422 593 l 561 593 l 735 987 l 977 987 m 768 0 l 565 439 l 701 589 l 1003 0 l 768 0 z "},"ҡ":{"ha":881,"x_min":50,"x_max":880,"o":"m 382 734 l 382 575 l 50 575 l 50 734 l 382 734 m 465 734 l 465 0 l 275 0 l 275 734 l 465 734 m 865 734 l 599 271 l 431 271 l 407 458 l 513 458 l 625 734 l 865 734 m 627 0 l 501 307 l 666 403 l 880 0 l 627 0 z "},"Ң":{"ha":964,"x_min":80,"x_max":914,"o":"m 627 587 l 627 423 l 222 423 l 222 587 l 627 587 m 279 987 l 279 0 l 80 0 l 80 987 l 279 987 m 771 987 l 771 0 l 574 0 l 574 987 l 771 987 m 914 140 l 914 -242 l 724 -242 l 724 140 l 914 140 z "},"ң":{"ha":811,"x_min":71,"x_max":766,"o":"m 492 439 l 492 282 l 199 282 l 199 439 l 492 439 m 261 734 l 261 0 l 71 0 l 71 734 l 261 734 m 622 734 l 622 0 l 432 0 l 432 734 l 622 734 m 766 140 l 766 -242 l 576 -242 l 576 140 l 766 140 z "},"Ҥ":{"ha":1164,"x_min":81,"x_max":1107,"o":"m 1107 987 l 1107 829 l 769 829 l 610 987 l 1107 987 m 629 587 l 629 423 l 223 423 l 223 587 l 629 587 m 279 987 l 279 0 l 81 0 l 81 987 l 279 987 m 772 987 l 772 0 l 574 0 l 574 987 l 772 987 z "},"ҥ":{"ha":844,"x_min":68,"x_max":798,"o":"m 798 734 l 798 576 l 563 576 l 565 734 l 798 734 m 491 439 l 491 282 l 197 282 l 197 439 l 491 439 m 258 734 l 258 0 l 68 0 l 68 734 l 258 734 m 620 734 l 620 0 l 430 0 l 430 734 l 620 734 z "},"Ҧ":{"ha":1253,"x_min":83,"x_max":1200,"o":"m 774 987 l 774 0 l 576 0 l 576 823 l 282 823 l 282 0 l 83 0 l 83 987 l 774 987 m 687 405 l 687 566 l 852 566 q 995 541 931 566 q 1105 467 1059 517 q 1176 342 1152 417 q 1200 167 1200 268 q 1183 22 1200 94 q 1129 -107 1166 -49 q 1030 -199 1092 -165 q 879 -233 968 -233 l 879 -83 q 952 -60 926 -83 q 991 1 979 -37 q 1006 80 1003 38 q 1010 157 1010 121 q 1000 267 1010 220 q 971 344 991 313 q 922 390 951 375 q 852 405 892 405 l 687 405 z "},"ҧ":{"ha":1044,"x_min":68,"x_max":1006,"o":"m 483 296 l 483 456 l 666 456 q 842 420 766 456 q 962 310 919 384 q 1006 125 1006 237 q 994 40 1006 85 q 955 -49 981 -5 q 888 -130 928 -93 q 793 -190 848 -166 l 713 -58 q 767 -13 744 -38 q 803 47 789 13 q 816 125 816 81 q 798 221 815 183 q 747 278 780 259 q 666 296 713 296 l 483 296 m 481 734 l 481 576 l 207 576 l 207 734 l 481 734 m 258 734 l 258 0 l 68 0 l 68 734 l 258 734 m 622 734 l 622 0 l 431 0 l 431 734 l 622 734 z "},"Ҩ":{"ha":977,"x_min":64,"x_max":911,"o":"m 911 149 l 911 -9 q 696 28 793 -9 q 530 132 600 65 q 423 292 460 199 q 385 498 385 385 l 385 629 q 402 776 385 708 q 453 895 420 844 q 533 974 487 945 q 634 1002 578 1002 q 745 972 695 1002 q 831 887 795 942 q 886 759 867 833 q 905 595 905 684 l 905 481 q 873 287 905 377 q 785 129 842 197 q 648 24 728 62 q 471 -14 569 -14 q 306 21 380 -14 q 177 119 231 56 q 93 266 122 182 q 64 448 64 349 l 64 591 q 85 753 64 679 q 148 884 107 828 q 244 970 188 939 q 368 1002 300 1002 l 368 830 q 328 812 345 830 q 298 762 310 795 q 279 687 286 730 q 273 593 273 644 l 273 448 q 286 331 273 385 q 325 239 299 278 q 387 178 351 199 q 471 157 424 157 q 569 181 526 157 q 643 250 612 206 q 690 354 674 294 q 707 481 707 413 l 707 619 q 702 720 707 680 q 688 785 696 760 q 665 820 679 810 q 634 831 652 831 q 607 820 619 831 q 587 785 595 809 q 575 723 579 762 q 571 631 571 685 l 571 496 q 593 359 571 422 q 660 248 616 296 q 766 175 703 201 q 911 149 829 149 z "},"ҩ":{"ha":794,"x_min":58,"x_max":750,"o":"m 750 94 l 750 -18 q 563 11 642 -18 q 431 91 483 39 q 354 212 380 143 q 329 360 329 280 l 329 465 q 343 577 329 526 q 384 666 357 628 q 447 726 410 705 q 529 747 484 747 q 616 724 577 747 q 683 657 655 700 q 726 558 711 615 q 741 435 741 501 l 741 334 q 715 196 741 260 q 644 85 690 133 q 534 12 598 38 q 392 -14 471 -14 q 255 14 317 -14 q 150 93 194 42 q 82 212 106 144 q 58 359 58 280 l 58 425 q 76 553 58 494 q 128 655 94 612 q 208 723 161 699 q 312 747 255 747 l 312 585 q 288 570 298 582 q 272 537 278 557 q 262 489 265 516 q 258 427 258 461 l 258 359 q 268 276 258 315 q 294 210 277 238 q 336 166 311 182 q 392 151 361 151 q 457 165 428 151 q 507 205 486 179 q 539 267 528 232 q 550 345 550 302 l 550 447 q 547 500 550 475 q 539 544 545 526 q 527 573 534 563 q 509 584 519 584 q 492 574 500 584 q 479 547 484 564 q 471 508 474 530 q 468 458 468 486 l 468 351 q 486 250 468 296 q 541 168 505 203 q 629 114 576 133 q 750 94 682 94 z "},"Ҳ":{"ha":819,"x_min":22,"x_max":801,"o":"m 255 987 l 396 658 l 530 987 l 749 987 l 511 498 l 754 0 l 526 0 l 386 337 l 245 0 l 22 0 l 269 503 l 28 987 l 255 987 m 801 140 l 801 -242 l 610 -242 l 610 140 l 801 140 z "},"ҳ":{"ha":677,"x_min":22,"x_max":649,"o":"m 233 734 l 323 547 l 401 734 l 603 734 l 415 375 l 610 0 l 408 0 l 315 193 l 226 0 l 22 0 l 209 373 l 29 734 l 233 734 m 649 140 l 649 -242 l 458 -242 l 458 140 l 649 140 z "},"Ҵ":{"ha":1084,"x_min":35,"x_max":1025,"o":"m 584 987 l 584 829 l 35 829 l 35 987 l 584 987 m 1025 163 l 1012 -238 l 828 -238 l 828 0 l 762 0 l 762 163 l 1025 163 m 215 0 l 215 987 l 412 987 l 412 164 l 707 164 l 707 987 l 906 987 l 906 0 l 215 0 z "},"ҵ":{"ha":840,"x_min":41,"x_max":808,"o":"m 444 734 l 444 576 l 41 576 l 41 734 l 444 734 m 155 0 l 155 734 l 345 734 l 345 158 l 518 158 l 518 734 l 709 734 l 709 0 l 155 0 m 808 157 l 795 -218 l 619 -218 l 619 0 l 548 0 l 548 157 l 808 157 z "},"Ҷ":{"ha":957,"x_min":87,"x_max":907,"o":"m 87 987 l 284 987 l 284 684 q 299 584 284 619 q 343 533 313 548 q 420 519 374 519 q 463 521 437 519 q 517 528 489 524 q 569 537 545 532 q 609 550 594 543 l 609 386 q 569 373 594 379 q 517 363 545 368 q 464 357 490 359 q 420 355 437 355 q 244 390 319 355 q 128 497 169 424 q 87 684 87 570 l 87 987 m 570 987 l 767 987 l 767 0 l 570 0 l 570 987 m 907 140 l 907 -242 l 716 -242 l 716 140 l 907 140 z "},"ҷ":{"ha":799,"x_min":60,"x_max":755,"o":"m 610 734 l 610 0 l 420 0 l 420 734 l 610 734 m 521 421 l 521 263 q 473 242 502 252 q 413 227 444 233 q 352 221 381 221 q 198 251 263 221 q 96 342 132 280 q 60 502 60 405 l 60 734 l 250 734 l 250 502 q 261 427 250 454 q 295 390 273 400 q 352 379 317 379 q 407 384 381 379 q 460 399 433 389 q 521 421 487 408 m 755 140 l 755 -242 l 564 -242 l 564 140 l 755 140 z "},"Ҹ":{"ha":829,"x_min":67,"x_max":749,"o":"m 463 718 l 463 200 l 355 200 l 355 718 l 463 718 m 67 987 l 265 987 l 265 684 q 280 584 265 619 q 325 533 294 548 q 401 519 355 519 q 445 521 418 519 q 498 528 471 524 q 550 537 526 532 q 589 550 574 543 l 589 386 q 550 373 574 379 q 498 363 526 368 q 445 357 471 359 q 401 355 418 355 q 225 390 300 355 q 109 497 150 424 q 67 684 67 570 l 67 987 m 551 987 l 749 987 l 749 0 l 551 0 l 551 987 z "},"ҹ":{"ha":684,"x_min":66,"x_max":616,"o":"m 391 562 l 391 121 l 284 121 l 284 562 l 391 562 m 616 734 l 616 0 l 425 0 l 425 734 l 616 734 m 526 421 l 526 263 q 477 242 506 252 q 417 227 449 233 q 358 221 386 221 q 203 251 269 221 q 102 342 138 280 q 66 502 66 405 l 66 734 l 256 734 l 256 502 q 266 427 256 454 q 299 390 277 400 q 358 379 321 379 q 412 384 387 379 q 465 399 437 389 q 526 421 493 408 z "},"Һ":{"ha":854,"x_min":84,"x_max":766,"o":"m 766 0 l 568 0 l 568 304 q 553 404 568 368 q 508 454 538 439 q 432 469 478 469 q 388 466 414 469 q 335 460 362 464 q 282 450 307 456 q 243 437 258 444 l 243 602 q 283 614 259 608 q 335 624 307 620 q 388 630 362 629 q 432 632 414 632 q 607 598 532 632 q 724 491 682 564 q 766 304 766 418 l 766 0 m 281 0 l 84 0 l 84 987 l 281 987 l 281 0 z "},"Ҽ":{"ha":915,"x_min":-7,"x_max":851,"o":"m -7 734 l 123 734 q 136 652 123 686 q 172 599 148 617 q 234 581 197 581 l 234 438 q 103 474 157 438 q 21 576 50 510 q -7 734 -7 642 m 568 -16 q 398 16 471 -16 q 277 104 326 47 q 204 240 228 161 q 180 412 180 318 l 180 587 q 206 754 180 678 q 279 885 232 829 q 390 971 327 941 q 526 1000 452 1001 q 668 968 606 1000 q 770 874 729 935 q 831 728 811 813 q 851 536 851 642 l 851 427 l 323 427 l 323 590 l 654 590 l 654 611 q 648 693 654 655 q 627 761 642 732 q 587 806 612 789 q 526 822 562 822 q 460 804 488 822 q 414 753 432 785 q 386 679 395 721 q 377 587 377 636 l 377 412 q 387 315 377 360 q 418 235 396 269 q 477 182 440 201 q 568 162 514 162 q 690 177 639 162 q 769 205 741 192 l 800 37 q 759 17 789 30 q 680 -5 728 5 q 568 -16 631 -16 z "},"ҽ":{"ha":727,"x_min":-34,"x_max":711,"o":"m -34 585 l 83 585 q 114 476 83 516 q 206 436 144 436 l 206 309 q 75 342 129 309 q -6 437 22 376 q -34 585 -34 499 m 452 -14 q 319 14 377 -14 q 220 91 260 42 q 159 204 180 140 q 139 342 139 269 l 139 368 q 159 520 139 451 q 217 641 179 590 q 310 720 255 692 q 433 747 364 747 q 554 722 501 747 q 641 648 606 696 q 693 534 675 600 q 711 387 711 468 l 711 304 l 220 304 l 220 437 l 524 437 l 524 453 q 519 507 524 482 q 503 550 513 531 q 474 579 492 569 q 431 589 457 589 q 382 573 401 589 q 351 527 363 556 q 334 457 339 497 q 329 368 329 416 l 329 342 q 338 262 329 298 q 364 199 347 226 q 406 159 381 173 q 464 144 431 144 q 544 165 507 144 q 606 227 581 186 l 699 119 q 646 56 680 86 q 563 6 612 25 q 452 -14 515 -14 z "},"Ӄ":{"ha":797,"x_min":79,"x_max":765,"o":"m 278 987 l 278 0 l 79 0 l 79 987 l 278 987 m 747 987 l 410 402 l 234 402 l 207 591 l 322 591 l 502 987 l 747 987 m 244 401 l 244 566 l 416 566 q 559 542 495 566 q 669 468 623 517 q 740 343 715 418 q 765 167 765 268 q 748 24 765 96 q 694 -106 731 -47 q 593 -202 656 -166 q 439 -237 530 -237 l 438 -81 q 512 -57 486 -81 q 550 5 538 -33 q 564 82 562 42 q 567 155 567 122 q 557 264 566 218 q 530 340 549 310 q 482 386 511 371 q 416 401 454 401 l 244 401 z "},"ӄ":{"ha":707,"x_min":83,"x_max":673,"o":"m 273 734 l 273 0 l 83 0 l 83 734 l 273 734 m 673 734 l 400 271 l 239 271 l 216 458 l 314 458 l 434 734 l 673 734 m 147 271 l 147 431 l 326 431 q 502 396 426 431 q 622 289 578 361 q 665 106 665 217 q 654 20 666 66 q 615 -68 642 -25 q 548 -147 588 -111 q 452 -205 508 -184 l 374 -75 q 426 -30 404 -55 q 463 29 449 -5 q 475 106 476 62 q 457 200 475 163 q 406 254 439 236 q 326 271 373 271 l 147 271 z "},"Ӆ":{"ha":965,"x_min":38,"x_max":926,"o":"m 627 987 l 627 823 l 222 823 l 222 987 l 627 987 m 771 987 l 771 0 l 574 0 l 574 987 l 771 987 m 198 987 l 395 987 l 375 490 q 358 296 372 378 q 321 158 344 214 q 264 66 298 101 q 185 16 231 32 q 85 0 140 0 l 38 0 l 38 164 l 60 167 q 107 184 87 170 q 142 226 127 198 q 165 299 156 254 q 179 407 174 343 q 186 555 184 471 l 198 987 m 926 136 l 926 3 q 888 -152 926 -74 q 792 -279 850 -229 l 690 -226 q 724 -163 707 -195 q 751 -94 740 -132 q 762 -7 762 -56 l 762 136 l 926 136 z "},"ӆ":{"ha":816,"x_min":24,"x_max":783,"o":"m 483 734 l 483 576 l 186 576 l 186 734 l 483 734 m 625 734 l 625 0 l 435 0 l 435 734 l 625 734 m 139 734 l 326 734 l 308 361 q 293 222 305 283 q 262 120 281 162 q 216 51 243 77 q 156 12 190 24 q 82 0 122 0 l 25 0 l 24 159 l 45 162 q 75 174 62 164 q 98 204 88 184 q 113 254 107 224 q 122 326 119 285 q 127 421 125 368 l 139 734 m 783 136 l 783 3 q 745 -152 783 -74 q 648 -279 707 -229 l 547 -226 q 580 -163 564 -195 q 607 -94 596 -132 q 618 -7 618 -56 l 618 136 l 783 136 z "},"Ӈ":{"ha":854,"x_min":82,"x_max":772,"o":"m 82 987 l 280 987 l 280 568 l 574 568 l 574 987 l 772 987 l 772 -18 q 744 -171 772 -109 q 665 -264 716 -233 q 541 -296 613 -296 q 496 -294 517 -296 q 452 -285 476 -292 l 460 -124 q 488 -130 475 -128 q 517 -132 502 -132 q 549 -119 536 -132 q 568 -81 562 -106 q 574 -18 574 -56 l 574 404 l 280 404 l 280 0 l 82 0 l 82 987 z "},"ӈ":{"ha":690,"x_min":68,"x_max":620,"o":"m 68 734 l 258 734 l 258 439 l 430 439 l 430 734 l 620 734 l 620 -24 q 593 -173 620 -112 q 515 -265 566 -234 q 393 -296 464 -296 q 351 -294 371 -296 q 308 -285 331 -292 l 317 -130 q 343 -136 330 -134 q 374 -138 357 -138 q 405 -125 392 -138 q 424 -86 417 -111 q 430 -24 430 -61 l 430 282 l 258 282 l 258 0 l 68 0 l 68 734 z "},"Ӊ":{"ha":967,"x_min":80,"x_max":929,"o":"m 627 587 l 627 423 l 222 423 l 222 587 l 627 587 m 279 987 l 279 0 l 80 0 l 80 987 l 279 987 m 771 987 l 771 0 l 574 0 l 574 987 l 771 987 m 929 136 l 929 3 q 891 -152 929 -74 q 795 -279 853 -229 l 693 -226 q 726 -163 710 -195 q 753 -94 743 -132 q 764 -7 764 -56 l 764 136 l 929 136 z "},"ӊ":{"ha":814,"x_min":71,"x_max":781,"o":"m 492 439 l 492 282 l 199 282 l 199 439 l 492 439 m 261 734 l 261 0 l 71 0 l 71 734 l 261 734 m 622 734 l 622 0 l 432 0 l 432 734 l 622 734 m 781 136 l 781 3 q 743 -152 781 -74 q 646 -279 705 -229 l 545 -226 q 578 -163 562 -195 q 605 -94 594 -132 q 616 -7 616 -56 l 616 136 l 781 136 z "},"Ӎ":{"ha":1164,"x_min":80,"x_max":1126,"o":"m 151 987 l 325 987 l 526 312 l 727 987 l 881 987 l 600 0 l 452 0 l 151 987 m 80 987 l 246 987 l 272 336 l 272 0 l 80 0 l 80 987 m 805 987 l 972 987 l 972 0 l 781 0 l 781 336 l 805 987 m 1126 136 l 1126 3 q 1088 -152 1126 -74 q 992 -279 1050 -229 l 890 -226 q 924 -163 907 -195 q 951 -94 940 -132 q 962 -7 962 -56 l 962 136 l 1126 136 z "},"ӎ":{"ha":1024,"x_min":83,"x_max":990,"o":"m 455 263 l 593 734 l 749 734 l 524 0 l 385 0 l 158 734 l 318 734 l 455 263 m 267 734 l 267 0 l 83 0 l 83 734 l 267 734 m 648 0 l 648 734 l 832 734 l 832 0 l 648 0 m 990 136 l 990 3 q 952 -152 990 -74 q 856 -279 914 -229 l 754 -226 q 787 -163 771 -195 q 814 -94 804 -132 q 825 -7 825 -56 l 825 136 l 990 136 z "},"Ә":{"ha":835,"x_min":47,"x_max":770,"o":"m 355 1002 q 536 968 458 1002 q 665 873 614 935 q 743 728 717 812 q 770 543 770 644 l 770 442 q 742 258 770 342 q 665 113 714 174 q 550 18 616 52 q 408 -14 484 -15 q 251 18 319 -14 q 138 112 183 51 q 70 258 93 172 q 47 450 47 344 l 47 560 l 625 560 l 625 395 l 245 395 l 245 374 q 253 292 245 330 q 279 225 261 254 q 329 180 298 196 q 408 164 361 164 q 480 185 449 164 q 531 245 511 207 q 562 334 552 284 q 572 442 572 385 l 572 543 q 561 651 572 600 q 525 741 549 702 q 458 801 500 779 q 355 823 416 823 q 227 808 281 823 q 142 781 174 794 l 113 948 q 155 968 123 956 q 238 991 186 981 q 355 1002 289 1002 z "},"Ӡ":{"ha":704,"x_min":55,"x_max":668,"o":"m 96 987 l 647 987 l 648 852 l 382 506 l 244 506 l 244 590 l 421 823 l 96 823 l 96 987 m 244 587 l 353 599 q 523 561 452 599 q 630 452 593 524 q 668 277 668 380 q 645 153 668 208 q 578 62 621 99 q 478 5 536 24 q 351 -14 421 -14 q 244 2 296 -14 q 148 54 191 19 q 80 143 105 89 q 55 274 55 198 l 252 274 q 264 212 252 240 q 298 166 276 183 q 351 150 321 150 q 415 167 389 150 q 456 214 441 184 q 471 279 471 243 q 454 386 471 345 q 404 445 437 426 q 323 463 371 463 l 244 463 l 244 587 z "},"ӡ":{"ha":705,"x_min":56,"x_max":664,"o":"m 91 734 l 642 734 l 642 605 l 377 250 l 243 250 l 243 335 l 419 576 l 91 576 l 91 734 m 243 332 l 355 342 q 522 305 452 342 q 627 197 591 268 q 664 22 664 125 q 641 -101 664 -47 q 575 -192 617 -155 q 476 -249 534 -229 q 351 -268 419 -268 q 244 -251 297 -268 q 150 -200 192 -235 q 82 -110 107 -165 q 56 20 56 -56 l 247 20 q 259 -45 247 -16 q 295 -92 272 -75 q 351 -110 319 -110 q 417 -92 390 -110 q 459 -44 445 -75 q 474 25 474 -13 q 458 132 474 92 q 409 191 441 172 q 328 210 376 210 l 243 210 l 243 332 z "},"Ӻ":{"ha":740,"x_min":39,"x_max":695,"o":"m 695 987 l 695 823 l 340 823 l 340 0 l 142 0 l 142 987 l 695 987 m 450 576 l 450 452 l 39 452 l 39 576 l 450 576 m 324 176 l 515 176 l 515 -24 q 488 -173 515 -112 q 410 -265 460 -234 q 288 -296 359 -296 q 245 -294 265 -296 q 202 -285 225 -292 l 210 -128 q 238 -134 224 -132 q 267 -136 252 -136 q 299 -124 286 -136 q 318 -86 311 -111 q 324 -24 324 -61 l 324 176 z "},"ӻ":{"ha":570,"x_min":28,"x_max":555,"o":"m 555 734 l 555 576 l 315 576 l 315 0 l 125 0 l 125 734 l 555 734 m 438 456 l 438 332 l 28 332 l 28 456 l 438 456 m 279 170 l 470 170 l 470 -29 q 443 -178 470 -117 q 364 -271 415 -239 q 243 -302 313 -302 q 200 -299 220 -302 q 157 -290 180 -297 l 165 -134 q 193 -140 179 -138 q 222 -142 207 -142 q 253 -129 241 -142 q 272 -92 266 -117 q 279 -29 279 -66 l 279 170 z "},"Ӽ":{"ha":865,"x_min":22,"x_max":848,"o":"m 255 987 l 396 658 l 530 987 l 749 987 l 511 498 l 754 0 l 526 0 l 386 337 l 245 0 l 22 0 l 269 503 l 28 987 l 255 987 m 657 176 l 848 176 l 848 -24 q 821 -173 848 -112 q 743 -265 793 -234 q 621 -296 692 -296 q 578 -294 598 -296 q 535 -285 558 -292 l 543 -128 q 571 -134 557 -132 q 600 -136 585 -136 q 632 -124 619 -136 q 651 -86 644 -111 q 657 -24 657 -61 l 657 176 z "},"ӽ":{"ha":724,"x_min":22,"x_max":697,"o":"m 233 734 l 323 547 l 401 734 l 603 734 l 415 375 l 610 0 l 408 0 l 315 193 l 226 0 l 22 0 l 209 373 l 29 734 l 233 734 m 506 176 l 697 176 l 697 -24 q 670 -173 697 -112 q 591 -265 642 -234 q 470 -296 541 -296 q 427 -294 447 -296 q 384 -285 407 -292 l 392 -128 q 420 -134 406 -132 q 449 -136 434 -136 q 480 -124 468 -136 q 499 -86 493 -111 q 506 -24 506 -61 l 506 176 z "},"Ԁ":{"ha":779,"x_min":56,"x_max":701,"o":"m 380 652 l 567 652 l 567 487 l 380 487 q 311 465 338 487 q 269 406 283 442 q 256 328 256 369 q 269 248 256 285 q 311 187 283 210 q 380 164 338 164 l 503 164 l 503 987 l 701 987 l 701 0 l 380 0 q 209 42 281 0 q 96 158 136 84 q 56 326 56 232 q 79 456 56 397 q 144 560 102 516 q 247 628 186 604 q 380 652 307 652 z "},"Ԃ":{"ha":1122,"x_min":85,"x_max":1055,"o":"m 409 652 l 595 652 l 595 487 l 409 487 q 340 465 368 487 q 298 406 312 442 q 284 328 284 369 q 298 248 284 285 q 340 187 312 210 q 409 164 368 164 l 532 164 l 532 987 l 729 987 l 729 0 l 409 0 q 237 42 310 0 q 125 158 165 84 q 85 326 85 232 q 108 456 85 397 q 173 560 131 516 q 275 628 216 604 q 409 652 335 652 m 758 0 l 684 0 l 684 165 l 758 165 q 818 195 798 165 q 847 265 839 224 q 857 344 856 306 q 855 407 857 370 q 849 483 853 443 q 838 560 844 524 q 823 623 831 596 l 1015 623 q 1035 536 1025 588 q 1049 432 1044 484 q 1054 344 1055 380 q 1021 169 1053 247 q 924 45 989 91 q 758 0 859 0 z "},"ԃ":{"ha":1022,"x_min":62,"x_max":975,"o":"m 62 348 l 62 362 q 77 517 62 447 q 124 639 93 587 q 200 719 155 691 q 304 747 245 747 q 379 729 346 747 q 437 677 412 711 q 481 596 463 643 q 511 491 500 549 q 528 370 523 434 l 528 346 q 504 203 521 269 q 460 89 488 138 q 394 13 433 40 q 303 -14 355 -14 q 199 12 244 -14 q 124 87 155 39 q 77 202 93 136 q 62 348 62 269 m 252 362 l 252 348 q 257 267 252 304 q 274 202 262 230 q 305 160 286 175 q 353 146 324 146 q 416 167 391 146 q 454 227 441 188 q 469 317 467 266 l 469 397 q 460 476 468 441 q 436 536 452 511 q 401 575 421 561 q 355 589 380 589 q 306 571 326 589 q 274 522 286 553 q 257 450 262 491 q 252 362 252 409 m 431 255 l 431 1058 l 621 1058 l 621 255 q 628 199 621 224 q 647 160 634 174 q 678 146 660 146 q 722 161 703 146 q 755 204 742 176 q 776 271 768 232 q 784 359 783 310 q 777 495 785 427 q 750 632 768 564 l 935 632 q 963 497 951 566 q 974 359 975 429 q 948 194 972 264 q 883 78 924 124 q 789 9 842 32 q 678 -14 736 -14 q 550 12 604 -16 q 467 99 496 39 q 431 255 437 159 z "},"Ԅ":{"ha":947,"x_min":53,"x_max":886,"o":"m 267 404 l 124 404 l 124 570 l 229 570 q 308 586 279 570 q 350 631 337 601 q 363 707 363 662 q 357 754 363 733 q 336 790 351 774 q 300 813 322 805 q 246 821 277 821 l 53 821 l 53 987 l 246 987 q 381 969 322 987 q 479 916 439 951 q 540 827 519 880 q 561 705 561 774 q 551 634 561 667 q 522 574 541 602 q 475 524 503 546 q 409 485 446 501 q 327 457 372 468 q 324 447 326 457 q 320 427 322 437 q 317 416 319 416 q 287 408 294 410 q 267 404 279 407 m 369 217 l 369 220 l 369 262 q 356 336 369 304 q 320 386 343 368 q 267 404 297 404 l 277 492 q 416 475 361 492 q 505 428 472 458 q 553 355 538 397 q 567 264 567 313 l 567 217 q 570 184 567 199 q 580 160 574 169 q 595 152 587 152 q 634 167 617 153 q 662 208 650 181 q 680 274 673 235 q 688 359 686 312 q 680 495 689 427 q 654 632 671 564 l 847 632 q 874 497 861 566 q 885 359 886 429 q 860 194 884 264 q 792 78 835 124 q 696 8 750 31 q 584 -14 643 -14 q 473 8 519 -16 q 399 83 426 31 q 369 217 373 134 z "},"ԅ":{"ha":777,"x_min":39,"x_max":762,"o":"m 254 264 l 90 264 l 88 414 l 189 414 q 232 423 216 414 q 255 449 248 433 q 262 490 262 466 q 256 533 262 514 q 235 564 250 553 q 193 575 220 575 l 43 575 l 39 734 l 193 734 q 334 708 276 734 q 422 633 393 682 q 452 515 452 584 q 443 453 452 480 q 415 404 434 425 q 368 366 395 382 q 304 338 340 349 q 301 322 302 336 q 299 293 300 307 q 296 277 298 278 q 272 270 276 271 q 254 264 268 268 m 475 176 l 475 176 q 480 130 475 149 q 502 111 486 111 q 529 124 517 112 q 550 158 541 136 q 564 212 559 180 q 570 284 569 243 q 562 392 570 336 q 537 500 553 448 l 722 500 q 749 393 737 448 q 760 284 762 338 q 739 151 760 208 q 684 57 719 94 q 605 0 650 19 q 511 -18 561 -18 q 416 -10 457 -19 q 347 18 374 -1 q 303 70 319 38 q 285 145 288 101 l 285 196 q 279 233 285 218 q 264 256 274 248 q 240 264 255 264 l 267 372 q 392 351 347 372 q 456 292 437 330 q 475 208 475 254 l 475 176 z "},"Ԇ":{"ha":724,"x_min":46,"x_max":686,"o":"m 267 391 l 77 391 l 77 549 l 222 549 q 288 565 262 549 q 328 611 315 581 q 341 685 341 641 q 329 761 341 728 q 290 811 316 793 q 224 829 264 829 l 50 829 l 46 987 l 224 987 q 389 953 320 987 q 495 853 458 919 q 532 694 532 787 q 523 624 532 657 q 498 564 515 591 q 457 514 481 536 q 400 475 433 492 q 328 446 368 458 q 325 436 327 445 q 323 419 323 428 q 320 409 322 410 q 299 401 304 405 q 288 395 293 397 q 267 391 283 393 m 235 391 l 277 492 q 434 459 377 492 q 514 370 491 427 q 537 239 537 313 l 537 169 q 541 119 537 149 q 553 60 544 89 q 580 14 563 31 l 580 0 l 382 0 q 357 52 364 18 q 349 121 350 87 q 347 170 347 155 l 347 237 q 334 321 347 287 q 296 373 321 355 q 235 391 271 391 m 686 170 l 686 37 q 651 -117 686 -40 q 564 -244 617 -194 l 466 -191 q 493 -129 479 -161 q 516 -60 507 -98 q 526 26 526 -22 l 526 170 l 686 170 z "},"ԇ":{"ha":693,"x_min":76,"x_max":671,"o":"m 292 261 l 102 261 l 102 398 l 248 398 q 294 408 275 398 q 322 438 313 418 q 332 483 332 457 q 322 530 332 509 q 294 564 313 551 q 248 577 275 577 l 82 577 l 76 734 l 248 734 q 361 718 311 734 q 449 670 412 701 q 504 596 485 640 q 524 498 524 553 q 512 429 524 460 q 477 372 500 397 q 420 328 454 347 q 344 296 387 309 q 340 287 341 296 q 337 277 339 278 q 320 270 323 275 q 313 263 317 266 q 292 261 309 260 m 250 261 l 300 356 q 440 330 389 356 q 512 259 491 304 q 532 156 532 214 l 532 106 q 534 79 532 99 q 541 40 536 60 q 556 9 547 20 l 556 0 l 359 0 q 348 32 352 9 q 344 77 345 55 q 343 107 343 98 l 343 155 q 333 214 343 190 q 301 249 322 237 q 250 261 280 261 m 671 161 l 670 28 q 636 -126 670 -50 q 549 -254 602 -203 l 450 -200 q 478 -138 464 -170 q 502 -68 492 -106 q 511 18 511 -31 l 511 161 l 671 161 z "},"Ԉ":{"ha":1154,"x_min":50,"x_max":1122,"o":"m 211 987 l 408 987 l 388 490 q 371 296 384 378 q 334 158 357 214 q 277 66 311 101 q 199 16 243 32 q 97 0 154 0 l 50 0 l 50 164 l 74 167 q 120 184 100 170 q 155 226 140 198 q 178 299 169 254 q 192 407 186 343 q 199 555 197 471 l 211 987 m 625 987 l 625 821 l 275 821 l 275 987 l 625 987 m 572 257 l 572 987 l 770 987 l 770 257 q 774 215 770 235 q 784 181 777 195 q 801 159 791 167 q 824 152 811 152 q 865 167 848 152 q 896 209 883 182 q 915 273 908 235 q 922 359 922 311 q 915 495 924 427 q 888 632 906 564 l 1082 632 q 1109 497 1097 566 q 1121 359 1122 429 q 1095 194 1120 264 q 1029 78 1071 124 q 935 9 987 32 q 824 -14 882 -14 q 692 13 749 -14 q 603 101 635 41 q 572 257 572 161 z "},"ԉ":{"ha":1026,"x_min":52,"x_max":968,"o":"m 168 734 l 355 734 l 336 361 q 321 222 332 283 q 291 120 310 162 q 245 51 271 77 q 184 12 218 24 q 111 0 151 0 l 54 0 l 52 159 l 73 162 q 103 174 90 164 q 125 204 116 184 q 141 254 134 224 q 151 326 147 285 q 157 421 155 368 l 168 734 m 500 734 l 500 573 l 228 573 l 228 734 l 500 734 m 441 255 l 441 734 l 631 734 l 631 255 q 635 211 631 231 q 649 176 640 191 q 671 154 659 162 q 701 146 684 146 q 732 159 719 146 q 756 196 746 172 q 771 255 766 220 q 777 331 776 289 q 770 460 778 395 q 743 589 762 526 l 928 589 q 956 462 943 527 q 968 331 968 397 q 944 179 966 243 q 885 71 922 114 q 801 7 848 28 q 701 -14 753 -14 q 594 1 642 -14 q 513 48 547 16 q 459 132 478 81 q 441 255 441 183 z "},"Ԋ":{"ha":1196,"x_min":79,"x_max":1133,"o":"m 221 568 l 639 568 l 639 404 l 221 404 l 221 568 m 79 987 l 277 987 l 277 0 l 79 0 l 79 987 m 582 987 l 781 987 l 781 257 q 787 203 781 227 q 805 166 793 180 q 833 152 817 152 q 875 167 857 153 q 906 209 893 182 q 925 273 918 235 q 933 359 932 311 q 925 495 935 427 q 899 632 916 564 l 1092 632 q 1120 497 1107 566 q 1131 359 1133 429 q 1105 194 1129 264 q 1039 78 1080 124 q 944 9 997 32 q 833 -14 892 -14 q 704 12 758 -16 q 618 100 649 40 q 582 257 587 161 l 582 987 z "},"ԋ":{"ha":990,"x_min":60,"x_max":958,"o":"m 467 449 l 467 290 l 195 290 l 195 449 l 467 449 m 250 734 l 250 0 l 60 0 l 60 734 l 250 734 m 431 255 l 431 734 l 621 734 l 621 255 q 625 211 621 231 q 638 177 629 191 q 661 154 648 162 q 690 146 673 146 q 722 160 708 146 q 746 197 736 173 q 761 255 755 220 q 766 331 766 289 q 759 460 768 395 q 733 589 750 526 l 919 589 q 945 462 933 527 q 956 331 958 397 q 934 179 956 243 q 875 71 912 114 q 790 7 838 28 q 690 -14 742 -14 q 585 0 631 -15 q 506 47 538 15 q 453 132 473 80 q 431 255 434 183 z "},"Ԍ":{"ha":770,"x_min":45,"x_max":728,"o":"m 414 -14 q 263 17 331 -14 q 147 105 196 49 q 72 238 98 162 q 45 405 45 315 l 45 583 q 72 749 45 673 q 147 882 98 825 q 263 970 196 939 q 414 1002 331 1002 q 533 986 481 1002 q 623 941 584 971 l 583 789 q 505 823 546 811 q 414 835 464 835 q 342 815 374 835 q 289 761 311 795 q 255 681 267 726 q 243 584 243 636 l 243 405 q 255 307 243 352 q 289 226 267 261 q 342 172 311 191 q 414 152 374 152 q 476 171 451 153 q 514 221 500 189 q 528 300 528 254 q 522 416 530 357 q 500 533 513 475 l 693 533 q 716 417 704 476 q 726 300 728 359 q 681 124 725 193 q 567 20 637 54 q 414 -14 497 -14 z "},"ԍ":{"ha":649,"x_min":47,"x_max":608,"o":"m 365 146 q 396 156 385 146 q 412 183 408 166 q 417 225 416 201 q 415 294 417 258 q 408 364 412 330 l 592 364 q 603 295 598 331 q 608 225 608 259 q 574 91 606 144 q 488 12 543 38 q 365 -14 433 -14 q 229 15 288 -14 q 129 96 170 45 q 68 213 89 147 q 47 353 47 279 l 47 381 q 68 520 47 454 q 127 637 88 587 q 222 718 165 688 q 353 747 279 747 q 450 735 409 747 q 516 703 490 724 l 488 548 q 428 577 462 567 q 353 587 393 587 q 300 569 322 587 q 264 521 278 551 q 244 454 250 491 q 237 381 237 418 l 237 353 q 244 279 237 315 q 266 212 251 243 q 306 164 281 182 q 365 146 330 146 z "},"Ԏ":{"ha":850,"x_min":32,"x_max":812,"o":"m 688 987 l 688 821 l 32 821 l 32 987 l 688 987 m 263 257 l 263 987 l 461 987 l 461 257 q 465 215 461 235 q 475 181 468 195 q 492 160 482 168 q 513 152 502 152 q 556 167 537 153 q 587 209 574 182 q 606 273 599 235 q 614 359 612 311 q 606 495 615 427 q 580 632 596 564 l 773 632 q 800 497 789 566 q 811 359 812 429 q 786 194 810 264 q 720 78 762 124 q 625 9 677 32 q 513 -14 572 -14 q 384 12 439 -16 q 299 100 329 40 q 263 257 269 161 z "},"ԏ":{"ha":771,"x_min":52,"x_max":733,"o":"m 568 734 l 568 575 l 52 575 l 52 734 l 568 734 m 208 255 l 208 734 l 397 734 l 397 255 q 405 199 397 224 q 428 160 413 174 q 464 146 444 146 q 496 156 481 146 q 519 184 510 166 q 535 229 529 203 q 541 288 541 256 q 534 387 543 336 q 507 485 526 437 l 692 485 q 721 388 708 437 q 732 288 733 338 q 708 155 730 212 q 649 61 686 98 q 564 4 612 23 q 464 -14 516 -14 q 360 0 406 -15 q 281 47 314 15 q 230 132 249 80 q 208 255 211 183 z "},"Ԑ":{"ha":793,"x_min":71,"x_max":744,"o":"m 376 533 l 521 533 l 521 425 l 406 425 q 347 416 372 425 q 304 391 321 408 q 278 346 287 374 q 269 279 269 319 q 279 229 269 252 q 308 187 289 205 q 354 160 327 170 q 418 150 382 150 q 485 166 456 150 q 530 212 513 183 q 547 274 547 240 l 744 274 q 716 143 744 198 q 640 54 688 89 q 535 2 593 19 q 418 -14 477 -14 q 278 5 342 -14 q 169 62 215 24 q 97 153 122 99 q 71 277 71 208 q 92 386 71 338 q 152 467 113 434 q 248 516 191 499 q 376 533 304 533 m 521 473 l 376 473 q 257 492 311 473 q 164 545 203 511 q 104 624 125 579 q 83 720 83 669 q 107 841 83 789 q 174 930 130 894 q 280 984 218 966 q 418 1002 342 1002 q 574 968 503 1002 q 689 871 646 934 q 732 720 732 808 l 534 720 q 519 783 534 757 q 477 823 503 808 q 418 837 450 837 q 341 820 371 837 q 296 776 311 803 q 281 716 281 749 q 289 661 281 686 q 311 619 296 636 q 349 593 326 602 q 406 583 373 583 l 521 583 l 521 473 z "},"Ԓ":{"ha":1008,"x_min":38,"x_max":958,"o":"m 627 987 l 627 823 l 222 823 l 222 987 l 627 987 m 771 987 l 771 0 l 574 0 l 574 987 l 771 987 m 198 987 l 395 987 l 375 490 q 358 296 372 378 q 321 158 344 214 q 264 66 298 101 q 185 16 231 32 q 85 0 140 0 l 38 0 l 38 164 l 60 167 q 107 184 87 170 q 142 226 127 198 q 165 299 156 254 q 179 407 174 343 q 186 555 184 471 l 198 987 m 768 176 l 959 176 l 959 -24 q 931 -173 959 -112 q 853 -265 904 -234 q 732 -296 802 -296 q 689 -294 709 -296 q 646 -285 669 -292 l 654 -128 q 682 -134 668 -132 q 711 -136 696 -136 q 742 -124 730 -136 q 761 -86 755 -111 q 768 -24 768 -61 l 768 176 z "},"ԓ":{"ha":860,"x_min":24,"x_max":814,"o":"m 483 734 l 483 576 l 186 576 l 186 734 l 483 734 m 625 734 l 625 0 l 435 0 l 435 734 l 625 734 m 139 734 l 326 734 l 308 361 q 293 222 305 283 q 262 120 281 162 q 216 51 243 77 q 156 12 190 24 q 82 0 122 0 l 25 0 l 24 159 l 45 162 q 75 174 62 164 q 98 204 88 184 q 113 254 107 224 q 122 326 119 285 q 127 421 125 368 l 139 734 m 624 176 l 815 176 l 815 -24 q 788 -173 815 -112 q 709 -265 760 -234 q 588 -296 659 -296 q 545 -294 565 -296 q 502 -285 525 -292 l 510 -128 q 538 -134 524 -132 q 567 -136 552 -136 q 598 -124 586 -136 q 617 -86 611 -111 q 624 -24 624 -61 l 624 176 z "}," ":{"ha":622,"x_min":0,"x_max":0,"o":""}," ":{"ha":1217,"x_min":0,"x_max":0,"o":""}," ":{"ha":622,"x_min":0,"x_max":0,"o":""}," ":{"ha":1217,"x_min":0,"x_max":0,"o":""}," ":{"ha":424,"x_min":0,"x_max":0,"o":""}," ":{"ha":324,"x_min":0,"x_max":0,"o":""}," ":{"ha":225,"x_min":0,"x_max":0,"o":""}," ":{"ha":683,"x_min":0,"x_max":0,"o":""}," ":{"ha":346,"x_min":0,"x_max":0,"o":""}," ":{"ha":265,"x_min":0,"x_max":0,"o":""}," ":{"ha":146,"x_min":0,"x_max":0,"o":""},"​":{"ha":0,"x_min":0,"x_max":0,"o":""},"‐":{"ha":502,"x_min":82,"x_max":412,"o":"m 412 503 l 412 345 l 82 345 l 82 503 l 412 503 z "},"‑":{"ha":502,"x_min":82,"x_max":412,"o":"m 412 503 l 412 345 l 82 345 l 82 503 l 412 503 z "},"–":{"ha":761,"x_min":102,"x_max":696,"o":"m 696 564 l 696 405 l 102 405 l 102 564 l 696 564 z "},"—":{"ha":918,"x_min":83,"x_max":876,"o":"m 876 564 l 876 405 l 83 405 l 83 564 l 876 564 z "},"‗":{"ha":547,"x_min":7,"x_max":532,"o":"m 532 -179 l 532 -282 l 7 -282 l 7 -179 l 532 -179 m 532 0 l 532 -104 l 7 -104 l 7 0 l 532 0 z "},"‘":{"ha":317,"x_min":73,"x_max":273,"o":"m 73 711 l 73 814 q 89 905 73 859 q 130 994 104 952 q 185 1065 155 1036 l 273 1012 q 238 925 254 972 q 223 814 223 878 l 223 711 l 73 711 z "},"’":{"ha":312,"x_min":45,"x_max":245,"o":"m 245 1042 l 245 937 q 230 846 245 893 q 189 757 215 799 q 133 685 163 715 l 45 739 q 80 826 65 779 q 96 937 96 873 l 96 1042 l 245 1042 z "},"‚":{"ha":339,"x_min":54,"x_max":255,"o":"m 255 156 l 254 45 q 238 -46 254 1 q 198 -135 223 -93 q 141 -207 172 -177 l 54 -154 q 86 -66 74 -113 q 99 45 99 -19 l 99 156 l 255 156 z "},"‛":{"ha":283,"x_min":52,"x_max":252,"o":"m 52 1042 l 201 1042 l 201 937 q 216 826 201 873 q 252 739 232 779 l 164 685 q 108 757 134 715 q 67 846 82 799 q 52 937 52 893 l 52 1042 z "},"“":{"ha":536,"x_min":79,"x_max":492,"o":"m 79 711 l 79 814 q 95 905 79 859 q 136 994 111 952 q 191 1065 161 1036 l 279 1012 q 244 925 260 972 q 229 814 229 878 l 229 711 l 79 711 m 292 711 l 292 814 q 308 905 292 859 q 349 994 323 952 q 404 1065 374 1036 l 492 1012 q 457 925 473 972 q 442 814 442 878 l 442 711 l 292 711 z "},"”":{"ha":541,"x_min":56,"x_max":470,"o":"m 255 1042 l 255 937 q 240 846 255 893 q 199 757 224 799 q 142 685 173 715 l 55 739 q 90 826 75 779 q 105 937 105 873 l 105 1042 l 255 1042 m 471 1042 l 471 937 q 455 846 471 893 q 414 757 440 799 q 358 685 389 715 l 271 739 q 306 826 290 779 q 321 937 321 873 l 321 1042 l 471 1042 z "},"„":{"ha":534,"x_min":54,"x_max":469,"o":"m 255 179 l 254 45 q 240 -52 254 -2 q 201 -145 226 -101 q 146 -221 177 -190 l 54 -167 q 86 -73 74 -123 q 99 45 99 -22 l 99 179 l 255 179 m 469 179 l 468 45 q 453 -52 468 -2 q 412 -145 438 -101 q 355 -221 387 -190 l 262 -167 q 298 -73 283 -123 q 313 45 313 -22 l 313 179 l 469 179 z "},"†":{"ha":652,"x_min":45,"x_max":609,"o":"m 420 987 l 420 0 l 229 0 l 229 987 l 420 987 m 609 734 l 609 570 l 45 570 l 45 734 l 609 734 z "},"‡":{"ha":707,"x_min":71,"x_max":635,"o":"m 448 987 l 448 -282 l 257 -282 l 257 987 l 448 987 m 635 734 l 635 576 l 71 576 l 71 734 l 635 734 m 635 158 l 635 0 l 71 0 l 71 158 l 635 158 z "},"•":{"ha":500,"x_min":92,"x_max":414,"o":"m 92 494 l 92 519 q 135 632 92 588 q 252 676 178 676 q 371 632 328 676 q 414 519 414 588 l 414 494 q 371 383 414 426 q 253 340 328 340 q 136 383 179 340 q 92 494 92 426 z "},"‥":{"ha":654,"x_min":86,"x_max":587,"o":"m 87 97 q 117 172 87 142 q 197 202 146 202 q 278 172 248 202 q 308 97 308 142 q 278 22 308 52 q 197 -7 248 -7 q 117 22 146 -7 q 87 97 87 52 m 366 97 q 396 172 366 142 q 477 202 426 202 q 557 172 528 202 q 587 97 587 142 q 557 22 587 52 q 477 -7 528 -7 q 396 22 426 -7 q 366 97 366 52 z "},"…":{"ha":918,"x_min":86,"x_max":862,"o":"m 87 97 q 117 172 87 142 q 197 202 146 202 q 278 172 248 202 q 308 97 308 142 q 278 22 308 52 q 197 -7 248 -7 q 117 22 146 -7 q 87 97 87 52 m 366 97 q 396 172 366 142 q 477 202 426 202 q 557 172 528 202 q 587 97 587 142 q 557 22 587 52 q 477 -7 528 -7 q 396 22 426 -7 q 366 97 366 52 m 641 97 q 671 172 641 142 q 751 202 701 202 q 832 172 802 202 q 862 97 862 142 q 832 22 862 52 q 751 -7 802 -7 q 671 22 701 -7 q 641 97 641 52 z "},"‧":{"ha":351,"x_min":73,"x_max":279,"o":"m 73 425 q 100 497 73 468 q 176 526 127 526 q 252 497 224 526 q 279 425 279 468 q 252 351 279 380 q 176 323 224 323 q 100 351 127 323 q 73 425 73 380 z "},"‰":{"ha":1140,"x_min":60,"x_max":1095,"o":"m 60 745 l 60 797 q 81 899 60 853 q 142 973 102 945 q 235 1001 182 1001 q 336 973 295 1001 q 399 899 377 945 q 420 797 420 853 l 420 745 q 399 644 420 690 q 336 570 377 598 q 236 543 295 543 q 142 570 182 543 q 81 644 102 598 q 60 745 60 690 m 176 797 l 176 745 q 182 702 176 722 q 202 668 189 681 q 236 656 216 656 q 270 668 257 656 q 290 702 283 681 q 296 745 296 722 l 296 797 q 289 842 296 821 q 269 875 282 863 q 235 888 256 888 q 202 875 215 888 q 182 842 189 863 q 176 797 176 821 m 471 190 l 471 242 q 493 344 471 298 q 556 418 515 390 q 655 446 597 446 q 746 418 709 446 q 803 344 784 390 q 823 242 823 298 l 823 190 q 803 88 823 134 q 747 14 784 42 q 656 -14 710 -14 q 557 14 598 -14 q 493 88 515 42 q 471 190 471 134 m 595 242 l 595 190 q 603 146 595 167 q 625 112 611 125 q 656 100 638 100 q 694 112 681 100 q 711 145 707 125 q 716 190 716 166 l 716 242 q 709 287 716 266 q 689 320 703 307 q 655 332 675 332 q 621 320 634 332 q 602 287 608 307 q 595 242 595 266 m 744 190 l 744 242 q 763 344 744 298 q 819 418 782 390 q 910 446 857 446 q 1010 418 969 446 q 1073 344 1052 390 q 1095 242 1095 298 l 1095 190 q 1073 88 1095 134 q 1010 14 1052 42 q 911 -14 969 -14 q 819 14 857 -14 q 763 88 782 42 q 744 190 744 134 m 850 242 l 850 190 q 858 146 850 167 q 880 112 866 125 q 912 100 894 100 q 949 112 937 100 q 967 145 962 125 q 972 190 972 166 l 972 242 q 965 287 972 266 q 945 320 958 307 q 911 332 931 332 q 877 320 890 332 q 857 287 863 307 q 850 242 850 266 m 692 846 l 288 74 l 197 125 l 602 897 l 692 846 z "},"‹":{"ha":395,"x_min":75,"x_max":352,"o":"m 352 627 l 220 353 l 75 354 l 75 363 l 233 627 l 352 627 m 220 359 l 352 85 l 233 85 l 75 350 l 75 359 l 220 359 z "},"›":{"ha":381,"x_min":57,"x_max":334,"o":"m 57 84 l 189 359 l 334 358 l 334 349 l 176 84 l 57 84 m 57 626 l 176 626 l 334 362 l 334 353 l 189 353 l 57 626 z "},"⁄":{"ha":548,"x_min":26,"x_max":522,"o":"m 522 846 l 117 74 l 26 125 l 432 897 l 522 846 z "},"⁰":{"ha":466,"x_min":52,"x_max":413,"o":"m 413 775 l 413 663 q 390 541 413 589 q 326 468 367 492 q 233 445 286 445 q 139 468 180 445 q 75 541 98 492 q 52 663 52 589 l 52 775 q 75 898 52 850 q 139 971 98 947 q 231 995 180 995 q 326 971 285 995 q 390 898 367 947 q 413 775 413 850 m 281 658 l 281 780 q 275 840 281 818 q 258 873 269 863 q 231 883 247 883 q 208 873 218 883 q 191 840 197 863 q 185 780 185 818 l 185 658 q 191 598 185 620 q 208 566 197 576 q 233 557 218 557 q 257 566 247 557 q 274 598 268 576 q 281 658 281 620 z "},"⁴":{"ha":466,"x_min":43,"x_max":417,"o":"m 417 674 l 417 561 l 50 561 l 43 652 l 240 987 l 345 987 l 234 802 l 168 674 l 417 674 m 374 987 l 374 452 l 240 452 l 240 987 l 374 987 z "},"⁵":{"ha":466,"x_min":47,"x_max":411,"o":"m 163 684 l 58 712 l 89 987 l 382 987 l 382 878 l 197 878 l 187 787 q 215 798 195 790 q 256 805 235 805 q 342 785 308 805 q 393 726 376 765 q 411 633 411 688 q 391 542 411 585 q 332 472 372 499 q 231 445 292 445 q 142 464 184 445 q 74 519 100 484 q 47 604 47 555 l 180 604 q 193 567 180 578 q 231 557 206 557 q 269 580 260 557 q 277 632 277 603 q 263 689 277 668 q 220 710 250 710 q 181 701 194 710 q 163 684 169 691 z "},"⁶":{"ha":466,"x_min":50,"x_max":423,"o":"m 321 999 l 342 999 l 342 885 l 336 885 q 259 873 294 885 q 203 825 224 861 q 182 721 182 790 l 182 640 q 189 592 182 611 q 207 565 195 574 q 237 556 219 556 q 264 566 252 556 q 283 594 276 576 q 291 631 291 612 q 276 683 291 667 q 237 699 261 699 q 203 690 217 699 q 182 670 189 682 q 176 647 176 658 l 142 662 q 157 729 142 694 q 204 786 173 763 q 281 810 235 810 q 359 787 328 810 q 407 724 391 764 q 423 631 423 684 q 400 536 423 578 q 336 469 377 494 q 241 445 295 445 q 144 468 187 445 q 75 539 100 491 q 50 663 50 588 l 50 699 q 72 837 50 780 q 133 929 94 894 q 219 982 171 965 q 321 999 268 999 z "},"⁷":{"ha":466,"x_min":42,"x_max":412,"o":"m 412 987 l 412 909 l 229 452 l 89 452 l 273 876 l 42 876 l 42 987 l 412 987 z "},"⁸":{"ha":466,"x_min":54,"x_max":412,"o":"m 412 601 q 389 514 412 549 q 326 462 366 479 q 233 445 286 445 q 141 462 182 445 q 77 514 100 479 q 54 601 54 549 q 77 683 54 648 q 141 734 100 717 q 231 752 182 752 q 325 734 284 752 q 389 683 366 717 q 412 601 412 648 m 279 614 q 274 645 279 633 q 257 663 268 657 q 231 669 246 669 q 209 663 219 669 q 193 645 198 657 q 187 614 187 633 q 193 583 187 596 q 209 564 198 570 q 233 557 220 557 q 258 564 248 557 q 274 583 269 570 q 279 614 279 596 m 401 843 q 380 768 401 800 q 321 720 359 737 q 233 703 283 703 q 145 720 184 703 q 85 768 107 737 q 63 843 63 800 q 85 927 63 893 q 145 978 106 961 q 231 996 183 996 q 321 978 283 996 q 380 927 359 961 q 401 843 401 893 m 269 833 q 265 861 269 850 q 253 878 261 872 q 231 884 245 884 q 205 870 214 884 q 197 833 197 857 q 200 806 197 819 q 212 788 204 794 q 233 782 220 782 q 261 796 254 782 q 269 833 269 810 z "},"⁹":{"ha":466,"x_min":51,"x_max":412,"o":"m 138 555 l 145 555 q 216 565 186 555 q 262 605 246 574 q 279 696 279 635 l 279 804 q 273 850 279 833 q 257 876 267 868 q 231 884 246 884 q 206 872 216 884 q 190 841 195 861 q 184 800 184 822 q 190 759 184 776 q 208 734 196 743 q 238 726 220 726 q 266 734 255 726 q 282 754 277 743 q 288 774 287 765 l 327 761 q 310 693 328 725 q 263 642 292 662 q 201 623 234 623 q 121 643 155 623 q 69 702 87 663 q 51 801 51 742 q 74 898 51 854 q 138 969 98 942 q 231 996 179 996 q 321 973 280 996 q 387 902 362 951 q 412 775 412 853 l 412 739 q 391 596 412 652 q 334 507 370 540 q 249 459 298 473 q 146 444 201 444 l 138 444 l 138 555 z "},"⁺":{"ha":503,"x_min":59,"x_max":444,"o":"m 444 743 l 444 625 l 59 625 l 59 743 l 444 743 m 311 924 l 311 444 l 193 444 l 193 924 l 311 924 z "},"⁻":{"ha":463,"x_min":59,"x_max":404,"o":"m 404 743 l 404 625 l 59 625 l 59 743 l 404 743 z "},"⁼":{"ha":463,"x_min":59,"x_max":404,"o":"m 404 638 l 404 520 l 59 520 l 59 638 l 404 638 m 404 848 l 404 730 l 59 730 l 59 848 l 404 848 z "},"⁽":{"ha":332,"x_min":55,"x_max":273,"o":"m 55 652 l 55 663 q 81 853 55 772 q 146 986 108 935 q 220 1058 184 1038 l 273 968 q 239 903 256 941 q 210 808 221 865 q 198 664 198 751 l 198 651 q 205 536 198 585 q 223 451 212 487 q 247 390 234 415 q 273 345 260 364 l 220 256 q 164 305 193 272 q 111 388 136 338 q 71 504 87 437 q 55 652 55 570 z "},"⁾":{"ha":332,"x_min":59,"x_max":277,"o":"m 277 663 l 277 652 q 251 461 277 543 q 186 328 224 380 q 113 256 149 277 l 59 345 q 93 408 76 370 q 122 504 111 446 q 134 651 134 563 l 134 664 q 127 777 134 728 q 110 861 121 826 q 86 923 99 897 q 59 968 73 949 l 113 1058 q 168 1010 139 1043 q 221 927 197 977 q 262 811 246 877 q 277 663 277 745 z "},"ⁿ":{"ha":514,"x_min":60,"x_max":458,"o":"m 198 870 l 198 444 l 60 444 l 60 987 l 169 987 l 198 870 m 183 731 l 155 730 q 165 836 155 787 q 196 919 176 884 q 244 975 216 955 q 310 994 273 994 q 390 973 357 994 q 440 905 423 951 q 458 786 458 859 l 458 444 l 320 444 l 320 742 q 313 818 320 790 q 292 859 306 846 q 259 871 279 871 q 213 852 230 871 q 190 802 197 833 q 183 731 183 771 z "},"₀":{"ha":466,"x_min":52,"x_max":413,"o":"m 413 77 l 413 -36 q 390 -158 413 -109 q 326 -230 367 -207 q 233 -254 286 -254 q 139 -230 180 -254 q 75 -158 98 -207 q 52 -36 52 -109 l 52 77 q 75 200 52 151 q 139 272 98 248 q 231 296 180 296 q 326 272 285 296 q 390 200 367 248 q 413 77 413 151 m 281 -41 l 281 81 q 275 142 281 119 q 258 174 269 164 q 231 184 247 184 q 208 174 218 184 q 191 142 197 164 q 185 81 185 119 l 185 -41 q 191 -101 185 -79 q 208 -132 197 -123 q 233 -142 218 -142 q 257 -132 247 -142 q 274 -101 268 -123 q 281 -41 281 -79 z "},"₁":{"ha":466,"x_min":92,"x_max":325,"o":"m 325 288 l 325 -245 l 193 -245 l 193 127 l 92 99 l 92 206 l 313 288 l 325 288 z "},"₂":{"ha":466,"x_min":43,"x_max":413,"o":"m 413 -134 l 413 -245 l 52 -245 l 52 -152 l 215 22 q 246 65 234 45 q 264 102 258 85 q 270 129 270 119 q 259 170 270 155 q 226 186 248 186 q 188 164 201 186 q 176 112 176 142 l 43 112 q 64 204 43 162 q 125 272 86 247 q 220 298 165 298 q 319 278 279 298 q 381 220 360 258 q 403 129 403 182 q 390 58 403 90 q 348 -5 376 26 q 275 -75 320 -37 l 227 -134 l 413 -134 z "},"₃":{"ha":466,"x_min":38,"x_max":414,"o":"m 169 74 l 222 74 q 252 81 240 74 q 269 102 263 89 q 274 134 274 116 q 263 169 274 153 q 223 186 252 186 q 192 175 205 186 q 179 144 179 164 l 45 144 q 70 229 45 195 q 134 280 94 263 q 220 298 174 298 q 318 280 275 298 q 384 228 360 262 q 408 144 408 194 q 386 73 408 102 q 327 28 363 44 q 243 13 290 13 l 169 13 l 169 74 m 169 -19 l 169 40 l 243 40 q 332 27 294 40 q 393 -15 371 14 q 414 -95 414 -43 q 389 -180 414 -145 q 319 -234 363 -216 q 220 -253 275 -253 q 135 -236 177 -253 q 65 -183 93 -220 q 38 -85 38 -146 l 172 -85 q 186 -124 172 -106 q 228 -141 201 -141 q 269 -123 257 -141 q 281 -81 281 -105 q 274 -45 281 -59 q 254 -25 267 -31 q 222 -19 241 -19 l 169 -19 z "},"₄":{"ha":466,"x_min":43,"x_max":417,"o":"m 417 -24 l 417 -137 l 50 -137 l 43 -46 l 240 290 l 345 290 l 234 104 l 168 -24 l 417 -24 m 374 290 l 374 -245 l 240 -245 l 240 290 l 374 290 z "},"₅":{"ha":466,"x_min":47,"x_max":411,"o":"m 163 -14 l 58 14 l 89 290 l 382 290 l 382 180 l 197 180 l 187 89 q 215 100 195 92 q 256 107 235 107 q 342 87 308 107 q 393 28 376 67 q 411 -65 411 -10 q 391 -156 411 -113 q 332 -226 372 -199 q 231 -253 292 -253 q 142 -234 184 -253 q 74 -178 100 -214 q 47 -94 47 -142 l 180 -94 q 193 -131 180 -120 q 231 -141 206 -141 q 269 -118 260 -141 q 277 -66 277 -95 q 263 -9 277 -30 q 220 12 250 12 q 181 3 194 12 q 163 -14 169 -7 z "},"₆":{"ha":466,"x_min":50,"x_max":423,"o":"m 321 301 l 342 301 l 342 187 l 336 187 q 259 175 294 187 q 203 127 224 163 q 182 23 182 92 l 182 -58 q 189 -105 182 -87 q 207 -133 195 -124 q 237 -142 219 -142 q 264 -132 252 -142 q 283 -104 276 -121 q 291 -66 291 -86 q 276 -15 291 -31 q 237 1 261 1 q 203 -7 217 1 q 182 -28 189 -16 q 176 -51 176 -40 l 142 -36 q 157 31 142 -3 q 204 89 173 65 q 281 112 235 112 q 359 89 328 112 q 407 26 391 66 q 423 -67 423 -14 q 400 -162 423 -120 q 336 -229 377 -204 q 241 -253 295 -253 q 144 -230 187 -253 q 75 -158 100 -207 q 50 -35 50 -110 l 50 1 q 72 139 50 82 q 133 232 94 196 q 219 284 171 267 q 321 301 268 301 z "},"₇":{"ha":466,"x_min":42,"x_max":412,"o":"m 412 290 l 412 212 l 229 -245 l 89 -245 l 273 178 l 42 178 l 42 290 l 412 290 z "},"₈":{"ha":466,"x_min":54,"x_max":412,"o":"m 412 -97 q 389 -184 412 -149 q 326 -236 366 -218 q 233 -253 286 -253 q 141 -236 182 -253 q 77 -184 100 -218 q 54 -97 54 -149 q 77 -15 54 -50 q 141 37 100 19 q 231 54 182 54 q 325 37 284 54 q 389 -15 366 19 q 412 -97 412 -50 m 279 -84 q 274 -53 279 -65 q 257 -35 268 -41 q 231 -29 246 -29 q 209 -35 219 -29 q 193 -53 198 -41 q 187 -84 187 -65 q 193 -115 187 -102 q 209 -134 198 -127 q 233 -141 220 -141 q 258 -134 248 -141 q 274 -115 269 -127 q 279 -84 279 -102 m 401 145 q 380 71 401 102 q 321 22 359 39 q 233 5 283 5 q 145 22 184 5 q 85 71 107 39 q 63 145 63 102 q 85 229 63 195 q 145 280 106 263 q 231 298 183 298 q 321 280 283 298 q 380 229 359 263 q 401 145 401 195 m 269 136 q 265 163 269 152 q 253 180 261 174 q 231 186 245 186 q 205 173 214 186 q 197 136 197 159 q 200 109 197 121 q 212 90 204 96 q 233 84 220 84 q 261 98 254 84 q 269 136 269 113 z "},"₉":{"ha":466,"x_min":51,"x_max":412,"o":"m 138 -143 l 145 -143 q 216 -133 186 -143 q 262 -93 246 -123 q 279 -2 279 -62 l 279 106 q 273 153 279 135 q 257 178 267 170 q 231 186 246 186 q 206 174 216 186 q 190 143 195 163 q 184 102 184 124 q 190 61 184 78 q 208 36 196 45 q 238 28 220 28 q 266 37 255 28 q 282 56 277 45 q 288 76 287 67 l 327 63 q 310 -4 328 27 q 263 -56 292 -36 q 201 -75 234 -75 q 121 -55 155 -75 q 69 4 87 -35 q 51 103 51 44 q 74 200 51 156 q 138 271 98 244 q 231 298 179 298 q 321 275 280 298 q 387 204 362 253 q 412 77 412 155 l 412 41 q 391 -102 412 -45 q 334 -191 370 -158 q 249 -239 298 -224 q 146 -254 201 -254 l 138 -254 l 138 -143 z "},"₊":{"ha":503,"x_min":59,"x_max":444,"o":"m 444 65 l 444 -53 l 59 -53 l 59 65 l 444 65 m 311 247 l 311 -234 l 193 -234 l 193 247 l 311 247 z "},"₋":{"ha":463,"x_min":59,"x_max":404,"o":"m 404 65 l 404 -53 l 59 -53 l 59 65 l 404 65 z "},"₌":{"ha":463,"x_min":59,"x_max":404,"o":"m 404 -39 l 404 -157 l 59 -157 l 59 -39 l 404 -39 m 404 170 l 404 52 l 59 52 l 59 170 l 404 170 z "},"₍":{"ha":332,"x_min":55,"x_max":273,"o":"m 55 9 l 55 20 q 81 200 55 123 q 146 327 108 277 q 220 395 184 376 l 273 305 q 239 245 256 280 q 210 156 221 210 q 198 20 198 102 l 198 8 q 210 -126 198 -73 q 239 -215 222 -180 q 273 -273 257 -249 l 220 -360 q 164 -316 193 -347 q 111 -239 136 -286 q 71 -130 87 -192 q 55 9 55 -68 z "},"₎":{"ha":332,"x_min":59,"x_max":277,"o":"m 277 27 l 277 16 q 251 -165 277 -87 q 186 -293 224 -243 q 113 -360 149 -342 l 59 -272 q 93 -213 76 -248 q 122 -123 111 -178 q 134 15 134 -68 l 134 28 q 123 159 134 107 q 94 246 112 212 q 59 305 77 281 l 113 395 q 168 350 139 380 q 221 273 196 320 q 262 165 246 227 q 277 27 277 103 z "},"₤":{"ha":728,"x_min":72,"x_max":686,"o":"m 686 0 l 72 0 l 72 164 l 686 164 l 686 0 m 347 705 l 360 297 q 335 183 361 230 q 246 105 309 136 l 122 164 q 147 189 139 170 q 158 234 155 208 q 160 286 160 260 l 149 705 q 183 864 149 798 q 277 965 217 930 q 417 1000 336 1000 q 562 965 503 1000 q 653 866 622 930 q 684 718 684 803 l 496 718 q 485 788 496 762 q 455 825 473 813 q 416 836 437 836 q 381 822 397 836 q 356 778 365 807 q 347 705 347 749 m 505 608 l 505 500 l 72 500 l 72 608 l 505 608 m 505 426 l 505 317 l 72 317 l 72 426 l 505 426 z "},"₦":{"ha":991,"x_min":35,"x_max":958,"o":"m 958 670 l 958 562 l 35 562 l 35 670 l 958 670 m 958 452 l 958 342 l 35 342 l 35 452 l 958 452 m 839 987 l 839 0 l 642 0 l 348 650 l 348 0 l 150 0 l 150 987 l 348 987 l 642 336 l 642 987 l 839 987 z "},"₧":{"ha":1041,"x_min":88,"x_max":970,"o":"m 330 350 l 224 350 l 224 521 l 330 521 q 395 543 372 521 q 428 600 418 565 q 437 672 437 634 q 428 743 437 709 q 395 796 418 776 q 330 817 372 817 l 288 817 l 288 0 l 88 0 l 88 987 l 330 987 q 500 946 432 987 q 604 835 569 905 q 638 673 638 764 q 604 507 638 581 q 500 392 569 434 q 330 350 432 350 m 965 734 l 965 591 l 591 591 l 591 734 l 965 734 m 676 915 l 867 915 l 867 224 q 872 177 867 194 q 891 154 878 161 q 925 148 905 148 q 951 150 939 148 q 970 153 964 151 l 969 5 q 922 -9 947 -4 q 863 -14 897 -14 q 764 8 806 -14 q 700 77 723 29 q 676 203 676 125 l 676 915 z "},"₨":{"ha":1305,"x_min":81,"x_max":1254,"o":"m 81 987 l 397 987 q 566 954 496 987 q 673 853 636 920 q 711 689 711 787 q 689 552 711 609 q 627 458 667 496 q 532 398 587 420 l 471 362 l 214 362 l 214 527 l 392 527 q 459 545 433 527 q 499 596 486 563 q 513 673 513 629 q 501 753 513 720 q 464 805 489 787 q 397 823 438 823 l 279 823 l 279 0 l 81 0 l 81 987 m 529 0 l 348 440 l 556 441 l 741 9 l 741 0 l 529 0 m 1069 198 q 1057 232 1069 217 q 1016 263 1044 247 q 942 298 988 279 q 853 340 892 319 q 788 389 814 362 q 747 449 761 415 q 734 526 734 483 q 751 613 734 573 q 801 683 768 652 q 881 730 833 713 q 987 747 928 747 q 1129 719 1069 747 q 1220 638 1188 690 q 1252 518 1252 587 l 1062 518 q 1055 562 1062 543 q 1030 592 1047 581 q 986 603 1014 603 q 950 594 966 603 q 925 571 934 585 q 916 536 916 556 q 922 510 916 522 q 943 488 928 498 q 981 465 957 477 q 1040 439 1005 453 q 1161 380 1114 412 q 1231 308 1208 349 q 1254 205 1254 266 q 1235 116 1254 156 q 1181 47 1217 76 q 1097 2 1146 18 q 987 -14 1048 -14 q 838 22 899 -14 q 745 112 777 57 q 714 227 714 168 l 895 227 q 908 170 896 191 q 943 141 921 149 q 991 133 964 133 q 1035 140 1017 133 q 1061 162 1052 147 q 1069 198 1069 178 z "},"₩":{"ha":976,"x_min":35,"x_max":941,"o":"m 941 785 l 941 677 l 35 677 l 35 785 l 941 785 m 941 589 l 941 480 l 35 480 l 35 589 l 941 589 m 327 0 l 310 153 l 401 987 l 504 987 l 538 844 l 437 0 l 327 0 m 276 987 l 368 149 l 359 0 l 237 0 l 80 987 l 276 987 m 613 0 l 605 152 l 695 987 l 891 987 l 734 0 l 613 0 m 570 987 l 665 150 l 646 0 l 534 0 l 431 846 l 469 987 l 570 987 z "},"₪":{"ha":1066,"x_min":71,"x_max":996,"o":"m 71 734 l 530 734 q 634 718 591 734 q 702 667 676 701 q 739 580 727 632 q 750 456 750 528 l 750 247 l 559 247 l 559 456 q 553 518 559 494 q 534 555 547 543 q 505 571 522 567 q 466 576 488 576 l 260 576 l 260 0 l 71 0 l 71 734 m 647 0 l 316 0 l 316 488 l 506 488 l 506 158 l 711 158 q 761 166 741 158 q 793 200 782 174 q 805 277 805 226 l 805 734 l 996 734 l 996 278 q 965 154 996 207 q 883 67 934 102 q 770 16 832 33 q 647 0 709 0 z "},"€":{"ha":702,"x_min":66,"x_max":642,"o":"m 513 151 q 568 156 541 151 q 618 172 594 161 l 642 7 q 570 -7 608 -2 q 492 -13 532 -13 q 359 11 420 -13 q 253 82 298 35 q 183 201 208 130 q 159 366 159 272 l 159 600 q 184 774 159 699 q 256 899 210 849 q 366 975 302 949 q 507 1000 429 1000 q 575 995 541 1000 q 642 979 609 989 l 618 814 q 570 830 596 824 q 517 836 543 836 q 449 823 479 836 q 398 781 419 809 q 368 709 378 753 q 357 602 357 665 l 357 366 q 369 263 357 304 q 400 197 380 221 q 449 161 420 172 q 513 151 478 151 m 534 641 l 534 538 l 66 538 l 66 641 l 534 641 m 534 453 l 534 351 l 66 351 l 66 453 l 534 453 z "},"₱":{"ha":924,"x_min":35,"x_max":889,"o":"m 889 792 l 889 684 l 35 684 l 35 792 l 889 792 m 889 642 l 889 532 l 35 532 l 35 642 l 889 642 m 464 348 l 262 348 l 262 513 l 464 513 q 532 532 506 513 q 571 584 559 551 q 584 660 584 618 q 571 740 584 703 q 532 800 559 777 q 464 823 506 823 l 326 823 l 326 0 l 128 0 l 128 987 l 464 987 q 635 945 564 987 q 745 830 707 903 q 784 661 784 756 q 745 495 784 566 q 635 387 707 425 q 464 348 564 348 z "},"₹":{"ha":657,"x_min":31,"x_max":624,"o":"m 623 740 l 590 605 l 35 605 l 68 740 l 623 740 m 311 0 l 37 385 l 36 505 l 192 505 q 261 526 234 505 q 301 584 288 547 q 315 665 315 620 q 304 746 315 711 q 268 802 294 782 q 197 823 242 823 l 31 823 l 69 987 l 197 987 q 374 951 304 987 q 477 845 444 914 q 511 678 511 776 q 489 528 511 592 q 417 422 467 464 q 286 361 368 380 l 528 9 l 528 0 l 311 0 m 624 987 l 589 853 l 150 853 l 183 987 l 624 987 z "},"₺":{"ha":747,"x_min":32,"x_max":696,"o":"m 337 987 l 337 0 l 139 0 l 139 987 l 337 987 m 496 518 l 696 518 l 696 471 q 669 269 696 358 q 594 116 642 179 q 479 20 545 53 q 333 -14 412 -14 q 227 -9 275 -14 q 139 0 178 -5 l 333 154 q 404 174 373 154 q 454 235 434 195 q 485 334 475 275 q 496 471 496 393 l 496 518 m 444 905 l 444 760 l 32 609 l 32 753 l 444 905 m 444 679 l 444 536 l 32 383 l 32 528 l 444 679 z "},"₼":{"ha":829,"x_min":47,"x_max":783,"o":"m 783 0 l 593 0 l 593 115 q 585 229 593 177 q 561 319 576 280 q 523 384 545 358 q 474 424 502 410 q 415 438 447 438 q 343 417 376 438 q 287 355 311 395 q 250 254 262 314 q 237 115 237 194 l 237 0 l 47 0 l 47 114 q 74 316 47 227 q 152 469 102 406 q 269 565 202 532 q 415 598 336 598 q 534 577 478 598 q 636 514 590 556 q 715 414 682 473 q 766 279 748 355 q 783 114 783 203 l 783 0 m 510 734 l 510 0 l 320 0 l 320 734 l 510 734 z "},"₽":{"ha":869,"x_min":44,"x_max":816,"o":"m 495 348 l 44 348 l 44 513 l 490 513 q 564 532 536 513 q 604 585 591 551 q 616 663 616 619 q 603 742 616 706 q 563 800 590 779 q 495 822 536 822 l 357 822 l 357 0 l 160 0 l 160 987 l 495 987 q 666 946 595 987 q 777 831 738 905 q 816 665 816 758 q 776 494 816 566 q 664 386 736 423 q 495 348 592 348 m 530 296 l 530 132 l 44 132 l 44 296 l 530 296 z "},"℅":{"ha":884,"x_min":69,"x_max":826,"o":"m 290 722 l 414 722 q 395 634 414 675 q 338 568 376 593 q 242 543 300 543 q 146 570 184 543 q 89 644 108 598 q 69 745 69 690 l 69 798 q 88 900 69 854 q 145 974 107 946 q 241 1002 183 1002 q 337 977 298 1002 q 395 910 376 951 q 414 821 414 869 l 290 821 q 277 867 290 846 q 241 888 265 888 q 213 876 224 888 q 198 842 203 863 q 194 798 194 821 l 194 745 q 199 702 194 722 q 214 668 203 681 q 242 656 225 656 q 278 678 266 656 q 290 722 290 700 m 456 190 l 456 242 q 477 344 456 298 q 539 418 498 390 q 641 446 581 446 q 744 418 703 446 q 805 344 785 390 q 826 242 826 298 l 826 190 q 806 88 826 134 q 744 14 785 42 q 642 -14 703 -14 q 539 14 581 -14 q 477 88 498 42 q 456 190 456 134 m 581 242 l 581 190 q 589 146 581 167 q 611 112 597 125 q 642 100 625 100 q 680 112 667 100 q 697 145 692 125 q 701 190 701 166 l 701 242 q 695 287 701 266 q 675 320 688 307 q 641 332 662 332 q 607 320 621 332 q 587 287 594 307 q 581 242 581 266 m 682 846 l 277 74 l 186 125 l 591 897 l 682 846 z "},"ℓ":{"ha":612,"x_min":35,"x_max":568,"o":"m 444 171 l 444 -14 q 304 7 363 -14 q 206 70 245 29 q 148 166 167 110 q 129 292 129 223 l 129 707 q 145 838 129 781 q 191 935 161 895 q 264 995 221 974 q 359 1016 307 1016 q 444 1000 406 1016 q 509 953 481 983 q 553 879 537 922 q 568 781 568 836 l 568 753 q 546 632 568 696 q 478 508 523 568 q 369 400 434 448 q 221 322 304 351 q 35 294 137 294 l 35 420 q 198 451 130 420 q 311 531 267 481 q 376 638 355 581 q 397 751 397 696 l 397 781 q 395 810 397 797 q 388 832 392 823 q 377 846 383 841 q 364 852 371 852 q 350 845 357 852 q 339 824 344 838 q 332 788 334 810 q 330 739 330 767 l 330 333 q 335 264 330 294 q 354 214 341 235 q 389 182 367 193 q 444 171 411 171 z "},"№":{"ha":1211,"x_min":80,"x_max":1143,"o":"m 1109 383 l 1109 283 l 767 283 l 767 383 l 1109 383 m 741 708 l 741 755 q 765 880 741 825 q 835 967 790 935 q 942 998 880 998 q 1050 967 1005 998 q 1119 880 1095 935 q 1143 755 1143 825 l 1143 708 q 1119 584 1143 638 q 1050 497 1095 529 q 943 465 1006 465 q 836 497 881 465 q 765 584 790 529 q 741 708 741 638 m 852 755 l 852 708 q 862 636 852 669 q 893 584 872 603 q 943 564 913 564 q 992 584 973 564 q 1021 636 1012 603 q 1031 708 1031 669 l 1031 755 q 1021 826 1031 793 q 992 879 1012 859 q 942 899 972 899 q 892 879 912 899 q 862 826 872 859 q 852 755 852 793 m 682 987 l 682 0 l 471 0 l 271 642 l 271 0 l 80 0 l 80 987 l 290 987 l 491 345 l 491 987 l 682 987 z "},"™":{"ha":769,"x_min":81,"x_max":673,"o":"m 591 621 l 591 859 l 534 621 l 492 621 l 433 860 l 433 621 l 353 621 l 353 987 l 452 987 l 512 738 l 579 987 l 673 987 l 673 621 l 591 621 m 314 987 l 314 914 l 245 914 l 245 623 l 155 623 l 155 914 l 81 914 l 81 987 l 314 987 z "},"℮":{"ha":879,"x_min":101,"x_max":792,"o":"m 706 134 l 707 64 q 587 7 650 28 q 456 -14 523 -14 q 318 16 382 -14 q 205 98 254 46 q 129 220 156 151 q 101 367 101 289 q 131 514 101 446 q 212 635 161 583 q 327 718 263 688 q 456 747 390 747 q 587 720 526 747 q 694 643 648 692 q 766 527 740 593 q 792 380 792 460 q 792 372 792 378 q 792 349 792 366 l 271 349 l 271 126 q 356 72 309 92 q 456 52 404 52 q 583 72 519 52 q 706 134 646 92 m 456 684 q 358 661 406 684 q 271 601 310 639 l 271 413 l 637 413 l 637 607 q 555 663 602 642 q 456 684 509 684 z "}}}
